<svg width="1440" height="2723" viewBox="0 0 1440 2723" fill="none" xmlns="http://www.w3.org/2000/svg">
<g filter="url(#filter0_f_127_358)">
<path d="M1390.84 981.794C1375.77 999.4 1386.83 1017.21 1386.3 1045.73C1385.7 1087.21 1406.97 1099.27 1423.26 1088.27C1439.31 1077.87 1435.54 1051.85 1449.96 1037.42C1463.49 1021.97 1488.88 1023.96 1498.11 1006.21C1507.09 989.067 1493.92 968.414 1453.04 972.258C1425.71 975.018 1407.04 964.612 1390.84 981.794Z" fill="#FFFAF3"/>
<path d="M1343.6 1009.61C1364.88 1011.42 1380.15 1024.66 1378.52 1038.41C1376.9 1052.16 1357.53 1062.01 1336.49 1059.61C1315.22 1057.8 1299.71 1045.16 1301.57 1030.81C1303.44 1016.46 1322.33 1007.8 1343.6 1009.61Z" fill="#FFFAF3"/>
<path d="M1419.11 928.048C1421.7 949.186 1434.74 963.107 1447.99 959.721C1461.24 956.335 1469.38 936.433 1466 915.695C1463.41 894.558 1450.37 880.637 1437.12 884.023C1423.87 887.409 1415.73 907.311 1419.11 928.048Z" fill="#FFFAF3"/>
<path d="M1348.65 941.938C1367.31 953.941 1375.8 974.335 1367.61 987.769C1359.42 1001.2 1336.84 1002.08 1318.19 990.075C1299.53 978.072 1291.04 957.679 1299.23 944.245C1307.42 930.811 1330 929.935 1348.65 941.938Z" fill="#FFFAF3"/>
<path d="M1349.91 935.552C1362.44 953.148 1381.45 959.583 1392.89 950.28C1404.33 940.978 1403.53 919.618 1390.99 902.022C1378.46 884.426 1359.45 877.992 1348.01 887.294C1336.57 896.597 1337.38 917.956 1349.91 935.552Z" fill="#FFFAF3"/>
</g>
<g filter="url(#filter1_f_127_358)">
<path d="M4.81975 2585.07C23.7655 2571.73 40.4566 2584.41 68.8949 2586.56C110.247 2589.88 120.254 2612.18 107.775 2627.37C95.9092 2642.36 70.3584 2636.17 54.6362 2649.16C37.9845 2661.18 37.5691 2686.64 19.0387 2694.16C1.12139 2701.48 -18.2 2686.43 -10.5267 2646.1C-5.20684 2619.14 -13.8095 2599.58 4.81975 2585.07Z" fill="#FFFAF3"/>
<path d="M36.9599 2540.66C36.7576 2562.01 48.4984 2578.46 62.3436 2578.13C76.1887 2577.81 87.8143 2559.45 87.4033 2538.28C87.6056 2516.93 76.4781 2500.3 62.0196 2500.81C47.5612 2501.32 37.1621 2519.31 36.9599 2540.66Z" fill="#FFFAF3"/>
<path d="M-30.8891 2539.32C-20.6948 2559.02 -1.19079 2569.39 12.9542 2562.5C27.0993 2555.61 30.0958 2533.22 19.9014 2513.52C9.70711 2493.82 -9.79685 2483.45 -23.9419 2490.33C-38.0869 2497.22 -41.0834 2519.62 -30.8891 2539.32Z" fill="#FFFAF3"/>
</g>
<path d="M331.774 1544.24C104.304 1512.81 -110.888 1550.34 -190.01 1573.24L-213 2011.19C-46.7618 1984.44 418.507 1966.43 959.514 2022.19C1519.33 2079.89 1375.37 1989.19 1695.21 1959.2C1713.37 1883.91 1891.29 1671.57 1648.23 1573.24C1405.17 1474.92 1527.73 1542.56 1247.39 1544.24C1037.02 1557.34 559.244 1575.68 331.774 1544.24Z" fill="#FFFAF3"/>
<path d="M383.055 1489C382.976 1486.01 380.047 1483.04 374.178 1481C374.579 1480.18 374.178 1479.91 374.178 1479C374.178 1475.47 371.106 1472 367.274 1472C366.41 1472 366.107 1472.71 365.301 1473C364.011 1471.55 361.649 1471 359.384 1471C358.357 1471 357.352 1470.65 356.425 1471C354.811 1469.66 352.803 1469 350.507 1469C347.412 1469 344.155 1470.81 342.616 1473C338.978 1472.6 335.968 1473.39 334.726 1476C331.675 1476.05 329.191 1478.3 328.808 1481C322.449 1483.07 319.028 1485.88 318.945 1489L315 1504V1505C315 1511.97 331.306 1517 351.493 1517C371.68 1517 387 1511.97 387 1505L383.055 1489ZM334.726 1478C334.674 1478 334.778 1478 334.726 1478H335.712V1477C336.493 1474.93 338.804 1474 341.63 1474C342.028 1474 342.204 1473.94 342.616 1474H343.603C344.85 1471.98 347.684 1470 350.507 1470C352.639 1470 354.036 1470.71 355.438 1472L356.425 1473V1472C357.292 1471.62 358.387 1472 359.384 1472C361.451 1472 363.309 1472.64 364.315 1474H365.301C366.081 1473.66 366.422 1474 367.274 1474C370.409 1474 373.192 1476.17 373.192 1479C373.192 1479.93 372.729 1480.21 372.205 1481C372.204 1481 372.207 1482 372.205 1482C372.165 1482.06 372.247 1481.94 372.205 1482V1483H373.192C375.668 1483.34 377.137 1484.69 377.137 1486C377.137 1486.79 376.662 1486.65 376.151 1487C376.069 1487.06 376.223 1486.96 376.151 1487L374.178 1488L376.151 1489C377.263 1489.52 377.137 1490.11 377.137 1491C377.137 1492.32 374.621 1494 372.205 1494C371.104 1494.38 370.411 1494.69 369.247 1495C364.301 1496.3 358.434 1497 352.479 1497C342.294 1497 333.753 1494.75 330.781 1494C330.096 1493.83 329.813 1494.01 329.795 1494C327.088 1494 324.863 1491.43 324.863 1489C324.863 1486.57 327.088 1485 329.795 1485C329.631 1484.98 329.964 1485 329.795 1485H330.781V1484C330.463 1483.42 329.795 1482.64 329.795 1482C329.792 1482.04 329.795 1481.96 329.795 1482C330.047 1479.84 332.22 1478 334.726 1478ZM328.808 1483C328.804 1482.97 328.811 1483.03 328.808 1483C328.802 1482.96 328.814 1483.04 328.808 1483C328.845 1483.22 328.742 1482.78 328.808 1483C328.809 1483 328.807 1483 328.808 1483C325.593 1483.19 322.89 1485.99 322.89 1489C322.89 1492.1 326.432 1494.96 329.795 1495C329.948 1495.04 330.251 1494.87 330.781 1495C333.819 1495.77 342.165 1498 352.479 1498C352.478 1498 352.481 1498 352.479 1498C359.929 1498 366.315 1497 372.205 1495C375.122 1494.96 379.11 1493.26 379.11 1491C379.11 1490.72 379.182 1490.26 379.11 1490C378.895 1489.21 377.911 1488.56 377.137 1488C377.905 1487.31 378.123 1486.87 378.123 1486C378.123 1485.94 378.128 1485.06 378.123 1485C378.12 1484.95 378.13 1485.05 378.123 1485C378.115 1484.94 378.135 1485.06 378.123 1485C378.112 1484.94 378.138 1485.06 378.123 1485C378.12 1484.99 378.127 1485.01 378.123 1485C380.493 1486.42 382.068 1487.43 382.068 1489C382.068 1493.77 368.987 1499 350.507 1499C332.026 1499 319.932 1493.77 319.932 1489C319.932 1486.53 323.268 1484.86 328.808 1483ZM350.507 1516C331.759 1516 316.121 1511.01 315.986 1505L319.932 1492C322.964 1497.09 334.805 1501 350.507 1501C366.207 1501 379.037 1497.09 382.068 1492L386.014 1505C385.879 1511.02 369.254 1516 350.507 1516Z" fill="#839AA9"/>
<path d="M361.356 1505C361.356 1503.31 360.036 1502 358.397 1502C356.812 1502 355.516 1503.38 355.438 1505H345.575C345.497 1503.38 344.203 1502 342.616 1502C340.979 1502 339.658 1503.31 339.658 1505C339.658 1505.99 339.941 1506.44 340.644 1507C339.941 1507.56 339.658 1509.01 339.658 1510C339.658 1511.69 340.979 1513 342.616 1513C344.203 1513 345.498 1511.62 345.575 1510H355.438C355.517 1511.62 356.812 1513 358.397 1513C360.036 1513 361.356 1511.69 361.356 1510C361.356 1509.01 361.071 1507.56 360.37 1507C361.071 1506.44 361.356 1505.99 361.356 1505ZM360.37 1510C360.37 1510.99 359.352 1512 358.397 1512C357.445 1512 356.425 1510.99 356.425 1510C356.401 1510.12 356.425 1509.88 356.425 1510V1509H344.589V1510C344.589 1509.88 344.612 1510.12 344.589 1510C344.589 1510.99 343.571 1512 342.616 1512C341.663 1512 340.644 1510.99 340.644 1510C340.644 1509.01 341.663 1508 342.616 1508V1507C341.663 1507 340.644 1505.99 340.644 1505C340.644 1504.01 341.663 1503 342.616 1503C343.571 1503 344.589 1504.01 344.589 1505C344.589 1505.12 344.612 1504.88 344.589 1505V1506H356.425V1505C356.401 1504.88 356.425 1505.12 356.425 1505C356.425 1504.01 357.445 1503 358.397 1503C359.352 1503 360.37 1504.01 360.37 1505C360.37 1505.99 359.352 1507 358.397 1507V1508C359.352 1508 360.37 1509.01 360.37 1510Z" fill="#839AA9"/>
<g clip-path="url(#clip0_127_358)">
<path d="M1228.75 1627.6C1235 1586.57 1268.32 1553.48 1303.05 1553.53C1303.25 1554.58 1304.19 1555.55 1303.86 1556.57C1298.26 1573.83 1306.1 1587.36 1318.19 1599.23C1327.5 1608.6 1337.95 1616.24 1350.8 1620.13C1354.48 1621.13 1357.61 1622.54 1361.6 1622.78C1376.23 1623.93 1384.58 1615.54 1383.85 1601.26C1383.37 1591.65 1378.36 1584.03 1372.4 1576.68C1362.23 1563.89 1348.94 1554.07 1333.32 1547.43C1330.19 1546.2 1327.07 1544.62 1322.64 1542.79C1337.8 1526.38 1358.44 1522.9 1378.08 1516.33C1374.62 1516.12 1371.64 1515.42 1368.15 1515.73C1350.08 1518.5 1332.59 1524.49 1319.03 1536.6C1315.08 1539.99 1311.61 1542.12 1305.76 1541.76C1283.12 1540.64 1264.47 1548.8 1248.58 1564.14C1236.66 1575.57 1227.48 1589.1 1221.21 1604.25C1219.64 1608.04 1218.17 1611.78 1215.4 1617.82C1208.11 1605.99 1201.75 1595.98 1195.43 1585.76C1194.62 1585.97 1194.2 1586.42 1193.38 1586.63C1192.99 1588.68 1191.28 1591.66 1191.97 1593.51C1195.16 1602.5 1198.57 1611.24 1202.31 1620.01C1205.83 1627.99 1210.3 1635.62 1213.82 1643.6C1217.36 1651.32 1221.11 1653.24 1226.55 1647.36C1235.98 1637.32 1244.69 1627.02 1253.37 1616.17C1254.53 1614.68 1253.92 1611.56 1253.8 1609.23C1251.1 1609.58 1247.42 1609.27 1245.73 1610.72C1239.8 1616.06 1235.02 1621.25 1228.75 1627.6ZM1314.03 1553.21C1339.84 1559.19 1359.58 1572.28 1371.24 1595.51C1373.61 1600.57 1375.36 1606.8 1370.34 1610.38C1366.99 1612.76 1360.75 1613.3 1356.25 1612.5C1339.11 1608.87 1326.47 1598.49 1316.06 1585.17C1308.9 1575.68 1306.59 1565.7 1314.03 1553.21Z" fill="#FFAA00"/>
</g>
<g filter="url(#filter2_f_127_358)">
<path d="M1172.19 1428.16C1179.2 1436.34 1174.47 1444.56 1174.71 1457.81C1174.98 1477.09 1164.93 1483.13 1157.35 1478.02C1149.88 1473.19 1151.17 1461.07 1144.47 1454.36C1138.18 1447.18 1126.63 1447.68 1122.34 1439.44C1118.16 1431.47 1124.77 1422.24 1143.8 1424.02C1156.52 1425.3 1164.66 1420.18 1172.19 1428.16Z" fill="#FFFAF3"/>
<path d="M1194.16 1441.27C1184.38 1442.09 1177.5 1448.26 1178.26 1454.61C1179.02 1460.96 1188.47 1465.14 1198.14 1464.05C1207.92 1463.23 1214.91 1457.34 1214.04 1450.71C1213.17 1444.09 1203.95 1440.46 1194.16 1441.27Z" fill="#FFFAF3"/>
<path d="M1159.17 1403.82C1157.93 1413.58 1152.02 1419.83 1145.87 1418.29C1139.71 1416.75 1135.65 1406.82 1137.26 1397.25C1138.5 1387.49 1144.4 1381.23 1150.56 1382.78C1156.71 1384.32 1160.77 1394.24 1159.17 1403.82Z" fill="#FFFAF3"/>
<path d="M1192.81 1410.88C1184.06 1416.45 1179.28 1425.27 1183.05 1431.41C1186.82 1437.55 1197.12 1437.93 1205.87 1432.36C1214.61 1426.79 1219.39 1417.97 1215.62 1411.83C1211.85 1405.7 1201.55 1405.31 1192.81 1410.88Z" fill="#FFFAF3"/>
<path d="M1191.52 1406.78C1185.72 1415.01 1177.03 1417.53 1171.69 1413.15C1166.36 1408.77 1167.3 1398.7 1173.1 1390.47C1178.89 1382.25 1187.58 1379.73 1192.92 1384.11C1198.26 1388.48 1197.31 1398.56 1191.52 1406.78Z" fill="#FFFAF3"/>
</g>
<g filter="url(#filter3_f_127_358)">
<path d="M125.865 2087.82C131.066 2093.89 127.558 2099.99 127.735 2109.83C127.932 2124.14 120.474 2128.62 114.848 2124.83C109.306 2121.24 110.263 2112.24 105.285 2107.27C100.615 2101.94 92.0437 2102.31 88.8608 2096.19C85.7615 2090.27 90.6678 2083.43 104.79 2084.75C114.232 2085.69 120.272 2081.9 125.865 2087.82Z" fill="#FFFAF3"/>
<path d="M142.172 2097.55C134.91 2098.16 129.804 2102.74 130.367 2107.45C130.931 2112.17 137.945 2115.27 145.124 2114.46C152.387 2113.85 157.575 2109.48 156.929 2104.56C156.282 2099.64 149.434 2096.95 142.172 2097.55Z" fill="#FFFAF3"/>
<path d="M116.196 2069.75C115.275 2077 110.892 2081.64 106.323 2080.49C101.754 2079.35 98.7402 2071.98 99.9329 2064.88C100.854 2057.63 105.238 2052.99 109.807 2054.13C114.376 2055.28 117.389 2062.64 116.196 2069.75Z" fill="#FFFAF3"/>
<path d="M141.165 2074.99C134.674 2079.13 131.125 2085.68 133.924 2090.23C136.722 2094.79 144.369 2095.08 150.86 2090.94C157.352 2086.81 160.901 2080.26 158.102 2075.7C155.303 2071.15 147.657 2070.86 141.165 2074.99Z" fill="#FFFAF3"/>
<path d="M140.209 2071.95C135.907 2078.06 129.456 2079.93 125.494 2076.68C121.533 2073.43 122.233 2065.95 126.535 2059.85C130.837 2053.74 137.288 2051.87 141.249 2055.12C145.211 2058.37 144.511 2065.85 140.209 2071.95Z" fill="#FFFAF3"/>
</g>
<g filter="url(#filter4_f_127_358)">
<path d="M292.194 792.162C299.2 800.342 294.474 808.555 294.713 821.811C294.977 841.093 284.93 847.129 277.351 842.022C269.884 837.191 271.174 825.066 264.467 818.362C258.175 811.184 246.628 811.68 242.34 803.435C238.165 795.466 244.775 786.243 263.8 788.019C276.521 789.295 284.658 784.179 292.194 792.162Z" fill="#FFFAF3"/>
<path d="M314.162 805.274C304.378 806.092 297.5 812.258 298.259 818.61C299.018 824.962 308.468 829.14 318.14 828.048C327.924 827.23 334.914 821.338 334.043 814.712C333.172 808.086 323.946 804.456 314.162 805.274Z" fill="#FFFAF3"/>
<path d="M279.167 767.818C277.927 777.577 272.021 783.833 265.865 782.29C259.71 780.748 255.65 770.825 257.257 761.249C258.498 751.49 264.404 745.235 270.559 746.777C276.714 748.319 280.774 758.242 279.167 767.818Z" fill="#FFFAF3"/>
<path d="M312.806 774.88C304.06 780.451 299.279 789.273 303.05 795.41C306.82 801.547 317.122 801.935 325.867 796.364C334.613 790.794 339.394 781.972 335.623 775.835C331.853 769.698 321.551 769.31 312.806 774.88Z" fill="#FFFAF3"/>
<path d="M311.517 770.785C305.722 779.01 297.031 781.526 291.694 777.149C286.357 772.772 287.3 762.697 293.096 754.472C298.891 746.247 307.582 743.731 312.919 748.108C318.256 752.485 317.313 762.56 311.517 770.785Z" fill="#FFFAF3"/>
</g>
<g filter="url(#filter5_f_127_358)">
<path d="M18.7707 1032.94C25.7774 1041.12 21.051 1049.33 21.2895 1062.59C21.5542 1081.87 11.5066 1087.91 3.92763 1082.8C-3.53861 1077.97 -2.24891 1065.84 -8.95641 1059.14C-15.2477 1051.96 -26.7947 1052.46 -31.0828 1044.21C-35.2582 1036.24 -28.6483 1027.02 -9.62292 1028.8C3.09825 1030.07 11.2351 1024.96 18.7707 1032.94Z" fill="#FFFAF3"/>
<path d="M40.7389 1046.05C30.9551 1046.87 24.0769 1053.04 24.8359 1059.39C25.5949 1065.74 35.0449 1069.92 44.7166 1068.82C54.5004 1068.01 61.4907 1062.11 60.6196 1055.49C59.7485 1048.86 50.5227 1045.23 40.7389 1046.05Z" fill="#FFFAF3"/>
<path d="M5.74432 1008.59C4.50346 1018.35 -1.40247 1024.61 -7.55782 1023.07C-13.7132 1021.52 -17.773 1011.6 -16.1663 1002.03C-14.9254 992.267 -9.01949 986.011 -2.86414 987.554C3.29121 989.096 7.35104 999.019 5.74432 1008.59Z" fill="#FFFAF3"/>
<path d="M39.3827 1015.66C30.6373 1021.23 25.856 1030.05 29.6267 1036.19C33.3974 1042.32 43.6989 1042.71 52.4444 1037.14C61.1898 1031.57 65.9711 1022.75 62.2004 1016.61C58.4297 1010.47 48.1282 1010.09 39.3827 1015.66Z" fill="#FFFAF3"/>
<path d="M38.0943 1011.56C32.2984 1019.79 23.6078 1022.3 18.2709 1017.93C12.934 1013.55 13.8766 1003.47 19.6725 995.248C25.4683 987.024 34.1589 984.507 39.4959 988.884C44.8328 993.261 43.8901 1003.34 38.0943 1011.56Z" fill="#FFFAF3"/>
</g>
<g filter="url(#filter6_f_127_358)">
<path d="M1372.81 2128.16C1365.8 2136.34 1370.53 2144.56 1370.29 2157.81C1370.02 2177.09 1380.07 2183.13 1387.65 2178.02C1395.12 2173.19 1393.83 2161.07 1400.53 2154.36C1406.82 2147.18 1418.37 2147.68 1422.66 2139.44C1426.84 2131.47 1420.23 2122.24 1401.2 2124.02C1388.48 2125.3 1380.34 2120.18 1372.81 2128.16Z" fill="#FFFAF3"/>
<path d="M1350.84 2141.27C1360.62 2142.09 1367.5 2148.26 1366.74 2154.61C1365.98 2160.96 1356.53 2165.14 1346.86 2164.05C1337.08 2163.23 1330.09 2157.34 1330.96 2150.71C1331.83 2144.09 1341.05 2140.46 1350.84 2141.27Z" fill="#FFFAF3"/>
<path d="M1385.83 2103.82C1387.07 2113.58 1392.98 2119.83 1399.13 2118.29C1405.29 2116.75 1409.35 2106.82 1407.74 2097.25C1406.5 2087.49 1400.6 2081.23 1394.44 2082.78C1388.29 2084.32 1384.23 2094.24 1385.83 2103.82Z" fill="#FFFAF3"/>
<path d="M1352.19 2110.88C1360.94 2116.45 1365.72 2125.27 1361.95 2131.41C1358.18 2137.55 1347.88 2137.93 1339.13 2132.36C1330.39 2126.79 1325.61 2117.97 1329.38 2111.84C1333.15 2105.7 1343.45 2105.31 1352.19 2110.88Z" fill="#FFFAF3"/>
<path d="M1353.48 2106.79C1359.28 2115.01 1367.97 2117.53 1373.31 2113.15C1378.64 2108.77 1377.7 2098.7 1371.9 2090.47C1366.11 2082.25 1357.42 2079.73 1352.08 2084.11C1346.74 2088.48 1347.69 2098.56 1353.48 2106.79Z" fill="#FFFAF3"/>
</g>
<g filter="url(#filter7_f_127_358)">
<path d="M876.194 64.1615C883.2 72.3421 878.474 80.5553 878.713 93.8107C878.977 113.093 868.93 119.129 861.351 114.022C853.884 109.191 855.174 97.0657 848.467 90.3618C842.175 83.1844 830.628 83.6798 826.34 75.435C822.165 67.4658 828.775 58.2433 847.8 60.0194C860.521 61.2953 868.658 56.1789 876.194 64.1615Z" fill="#FFFAF3"/>
<path d="M898.162 77.274C888.378 78.0917 881.5 84.2582 882.259 90.61C883.018 96.9617 892.468 101.14 902.14 100.048C911.924 99.2301 918.914 93.3376 918.043 86.7119C917.172 80.0861 907.946 76.4563 898.162 77.274Z" fill="#FFFAF3"/>
<path d="M863.167 39.8178C861.927 49.5767 856.021 55.8325 849.865 54.2902C843.71 52.7478 839.65 42.8248 841.257 33.2494C842.498 23.4905 848.404 17.2347 854.559 18.777C860.714 20.3194 864.774 30.2424 863.167 39.8178Z" fill="#FFFAF3"/>
<path d="M896.806 46.8804C888.06 52.4506 883.279 61.2731 887.05 67.4099C890.82 73.5466 901.122 73.9345 909.867 68.3643C918.613 62.7941 923.394 53.9717 919.623 47.8349C915.853 41.6981 905.551 41.3102 896.806 46.8804Z" fill="#FFFAF3"/>
<path d="M895.517 42.785C889.722 51.0098 881.031 53.5261 875.694 49.1491C870.357 44.772 871.3 34.6966 877.096 26.4718C882.891 18.247 891.582 15.7307 896.919 20.1078C902.256 24.4848 901.313 34.5602 895.517 42.785Z" fill="#FFFAF3"/>
</g>
<g filter="url(#filter8_f_127_358)">
<path d="M1401.83 99.2249C1410.17 92.3993 1418.27 97.3047 1431.53 97.3569C1450.82 97.5152 1456.63 107.693 1451.36 115.158C1446.36 122.516 1434.27 120.961 1427.42 127.52C1420.11 133.652 1420.35 145.207 1412.01 149.314C1403.95 153.313 1394.88 146.503 1397.07 127.521C1398.62 114.831 1393.69 106.584 1401.83 99.2249Z" fill="#FFFAF3"/>
<path d="M1415.43 77.5496C1416.03 87.349 1422.04 94.3608 1428.41 93.7412C1434.78 93.1217 1439.16 83.7656 1438.28 74.0723C1437.68 64.2729 1431.94 57.155 1425.3 57.8806C1418.65 58.6062 1414.82 67.7502 1415.43 77.5496Z" fill="#FFFAF3"/>
<path d="M1377.21 111.714C1386.94 113.169 1393.06 119.211 1391.39 125.331C1389.71 131.451 1379.7 135.292 1370.16 133.476C1360.43 132.021 1354.31 125.979 1355.99 119.859C1357.66 113.739 1367.67 109.898 1377.21 111.714Z" fill="#FFFAF3"/>
<path d="M1385.01 78.2389C1390.39 87.1043 1399.1 92.078 1405.32 88.4428C1411.54 84.8076 1412.15 74.517 1406.77 65.6515C1401.4 56.7861 1392.68 51.8124 1386.46 55.4476C1380.25 59.0828 1379.63 69.3734 1385.01 78.2389Z" fill="#FFFAF3"/>
<path d="M1380.89 79.4372C1388.98 85.412 1391.31 94.1557 1386.81 99.3954C1382.32 104.635 1372.27 103.472 1364.17 97.4968C1356.08 91.5219 1353.75 82.7782 1358.25 77.5386C1362.74 72.2989 1372.79 73.4623 1380.89 79.4372Z" fill="#FFFAF3"/>
</g>
<defs>
<filter id="filter0_f_127_358" x="1288.11" y="875.043" width="220.679" height="225.079" filterUnits="userSpaceOnUse" color-interpolation-filters="sRGB">
<feFlood flood-opacity="0" result="BackgroundImageFix"/>
<feBlend mode="normal" in="SourceGraphic" in2="BackgroundImageFix" result="shape"/>
<feGaussianBlur stdDeviation="4" result="effect1_foregroundBlur_127_358"/>
</filter>
<filter id="filter1_f_127_358" x="-105.822" y="2480.2" width="226.616" height="223.739" filterUnits="userSpaceOnUse" color-interpolation-filters="sRGB">
<feFlood flood-opacity="0" result="BackgroundImageFix"/>
<feBlend mode="normal" in="SourceGraphic" in2="BackgroundImageFix" result="shape"/>
<feGaussianBlur stdDeviation="4" result="effect1_foregroundBlur_127_358"/>
</filter>
<filter id="filter2_f_127_358" x="1113.14" y="1373.98" width="111.785" height="113.769" filterUnits="userSpaceOnUse" color-interpolation-filters="sRGB">
<feFlood flood-opacity="0" result="BackgroundImageFix"/>
<feBlend mode="normal" in="SourceGraphic" in2="BackgroundImageFix" result="shape"/>
<feGaussianBlur stdDeviation="4" result="effect1_foregroundBlur_127_358"/>
</filter>
<filter id="filter3_f_127_358" x="79.9695" y="2045.54" width="87.0982" height="88.5709" filterUnits="userSpaceOnUse" color-interpolation-filters="sRGB">
<feFlood flood-opacity="0" result="BackgroundImageFix"/>
<feBlend mode="normal" in="SourceGraphic" in2="BackgroundImageFix" result="shape"/>
<feGaussianBlur stdDeviation="4" result="effect1_foregroundBlur_127_358"/>
</filter>
<filter id="filter4_f_127_358" x="233.139" y="737.984" width="111.785" height="113.769" filterUnits="userSpaceOnUse" color-interpolation-filters="sRGB">
<feFlood flood-opacity="0" result="BackgroundImageFix"/>
<feBlend mode="normal" in="SourceGraphic" in2="BackgroundImageFix" result="shape"/>
<feGaussianBlur stdDeviation="4" result="effect1_foregroundBlur_127_358"/>
</filter>
<filter id="filter5_f_127_358" x="-40.2836" y="978.76" width="111.785" height="113.769" filterUnits="userSpaceOnUse" color-interpolation-filters="sRGB">
<feFlood flood-opacity="0" result="BackgroundImageFix"/>
<feBlend mode="normal" in="SourceGraphic" in2="BackgroundImageFix" result="shape"/>
<feGaussianBlur stdDeviation="4" result="effect1_foregroundBlur_127_358"/>
</filter>
<filter id="filter6_f_127_358" x="1320.08" y="2073.98" width="111.785" height="113.769" filterUnits="userSpaceOnUse" color-interpolation-filters="sRGB">
<feFlood flood-opacity="0" result="BackgroundImageFix"/>
<feBlend mode="normal" in="SourceGraphic" in2="BackgroundImageFix" result="shape"/>
<feGaussianBlur stdDeviation="4" result="effect1_foregroundBlur_127_358"/>
</filter>
<filter id="filter7_f_127_358" x="817.139" y="9.98376" width="111.785" height="113.769" filterUnits="userSpaceOnUse" color-interpolation-filters="sRGB">
<feFlood flood-opacity="0" result="BackgroundImageFix"/>
<feBlend mode="normal" in="SourceGraphic" in2="BackgroundImageFix" result="shape"/>
<feGaussianBlur stdDeviation="4" result="effect1_foregroundBlur_127_358"/>
</filter>
<filter id="filter8_f_127_358" x="1347.71" y="46.2476" width="113.496" height="112.167" filterUnits="userSpaceOnUse" color-interpolation-filters="sRGB">
<feFlood flood-opacity="0" result="BackgroundImageFix"/>
<feBlend mode="normal" in="SourceGraphic" in2="BackgroundImageFix" result="shape"/>
<feGaussianBlur stdDeviation="4" result="effect1_foregroundBlur_127_358"/>
</filter>
<clipPath id="clip0_127_358">
<rect width="192" height="144" fill="white" transform="matrix(-0.998138 -0.0610034 -0.0610034 0.998138 1389 1517)"/>
</clipPath>
</defs>
</svg>
