<svg viewBox="0 0 1988 2721.88" xmlns="http://www.w3.org/2000/svg" xmlns:xlink="http://www.w3.org/1999/xlink" width="1988.000000" height="2721.875000" fill="none" customFrame="#000000">
	<defs>
		<g id="pixso_custom_effect_0">
			<effect visibility="visible" effectType="gaussianBlur" stdDeviation="8" />
		</g>
		<filter id="filter_0" width="273.567017" height="265.416382" x="1474.000000" y="844.267212" filterUnits="userSpaceOnUse" customEffect="url(#pixso_custom_effect_0)" color-interpolation-filters="sRGB">
			<feFlood flood-opacity="0" result="BackgroundImageFix" />
			<feBlend result="shape" in="SourceGraphic" in2="BackgroundImageFix" mode="normal" />
			<feGaussianBlur stdDeviation="2.66666675" result="effect_layerBlur_1" />
		</filter>
		<g id="pixso_custom_effect_1">
			<effect visibility="visible" effectType="gaussianBlur" stdDeviation="8" />
		</g>
		<filter id="filter_1" width="253.319092" height="261.098145" x="85.932129" y="2460.776855" filterUnits="userSpaceOnUse" customEffect="url(#pixso_custom_effect_1)" color-interpolation-filters="sRGB">
			<feFlood flood-opacity="0" result="BackgroundImageFix" />
			<feBlend result="shape" in="SourceGraphic" in2="BackgroundImageFix" mode="normal" />
			<feGaussianBlur stdDeviation="2.66666675" result="effect_layerBlur_1" />
		</filter>
		<clipPath id="clipPath_1">
			<rect width="192.000000" height="144.000000" x="0.000000" y="0.000000" fill="rgb(255,255,255)" transform="matrix(-0.998138,-0.0610034,-0.0610034,0.998138,1602,1516.78)" />
		</clipPath>
		<g id="pixso_custom_effect_2">
			<effect visibility="visible" effectType="gaussianBlur" stdDeviation="8" />
		</g>
		<filter id="filter_2" width="127.576904" height="123.776123" x="1318.423096" y="1364.000000" filterUnits="userSpaceOnUse" customEffect="url(#pixso_custom_effect_2)" color-interpolation-filters="sRGB">
			<feFlood flood-opacity="0" result="BackgroundImageFix" />
			<feBlend result="shape" in="SourceGraphic" in2="BackgroundImageFix" mode="normal" />
			<feGaussianBlur stdDeviation="2.66666675" result="effect_layerBlur_1" />
		</filter>
		<g id="pixso_custom_effect_3">
			<effect visibility="visible" effectType="gaussianBlur" stdDeviation="8" />
		</g>
		<filter id="filter_3" width="94.696228" height="93.753906" x="289.303772" y="2040.138428" filterUnits="userSpaceOnUse" customEffect="url(#pixso_custom_effect_3)" color-interpolation-filters="sRGB">
			<feFlood flood-opacity="0" result="BackgroundImageFix" />
			<feBlend result="shape" in="SourceGraphic" in2="BackgroundImageFix" mode="normal" />
			<feGaussianBlur stdDeviation="2.66666675" result="effect_layerBlur_1" />
		</filter>
		<g id="pixso_custom_effect_4">
			<effect visibility="visible" effectType="gaussianBlur" stdDeviation="8" />
		</g>
		<filter id="filter_4" width="127.576874" height="123.776123" x="438.423126" y="728.000000" filterUnits="userSpaceOnUse" customEffect="url(#pixso_custom_effect_4)" color-interpolation-filters="sRGB">
			<feFlood flood-opacity="0" result="BackgroundImageFix" />
			<feBlend result="shape" in="SourceGraphic" in2="BackgroundImageFix" mode="normal" />
			<feGaussianBlur stdDeviation="2.66666675" result="effect_layerBlur_1" />
		</filter>
		<g id="pixso_custom_effect_5">
			<effect visibility="visible" effectType="gaussianBlur" stdDeviation="8" />
		</g>
		<filter id="filter_5" width="127.576904" height="123.776123" x="165.000000" y="968.776733" filterUnits="userSpaceOnUse" customEffect="url(#pixso_custom_effect_5)" color-interpolation-filters="sRGB">
			<feFlood flood-opacity="0" result="BackgroundImageFix" />
			<feBlend result="shape" in="SourceGraphic" in2="BackgroundImageFix" mode="normal" />
			<feGaussianBlur stdDeviation="2.66666675" result="effect_layerBlur_1" />
		</filter>
		<g id="pixso_custom_effect_6">
			<effect visibility="visible" effectType="gaussianBlur" stdDeviation="8" />
		</g>
		<filter id="filter_6" width="127.576904" height="123.776123" x="1525.000000" y="2064.000000" filterUnits="userSpaceOnUse" customEffect="url(#pixso_custom_effect_6)" color-interpolation-filters="sRGB">
			<feFlood flood-opacity="0" result="BackgroundImageFix" />
			<feBlend result="shape" in="SourceGraphic" in2="BackgroundImageFix" mode="normal" />
			<feGaussianBlur stdDeviation="2.66666675" result="effect_layerBlur_1" />
		</filter>
		<g id="pixso_custom_effect_7">
			<effect visibility="visible" effectType="gaussianBlur" stdDeviation="8" />
		</g>
		<filter id="filter_7" width="127.576904" height="123.776123" x="1022.423096" y="0.000000" filterUnits="userSpaceOnUse" customEffect="url(#pixso_custom_effect_7)" color-interpolation-filters="sRGB">
			<feFlood flood-opacity="0" result="BackgroundImageFix" />
			<feBlend result="shape" in="SourceGraphic" in2="BackgroundImageFix" mode="normal" />
			<feGaussianBlur stdDeviation="2.66666675" result="effect_layerBlur_1" />
		</filter>
		<g id="pixso_custom_effect_8">
			<effect visibility="visible" effectType="gaussianBlur" stdDeviation="8" />
		</g>
		<filter id="filter_8" width="122.767212" height="126.322998" x="1551.439331" y="38.776733" filterUnits="userSpaceOnUse" customEffect="url(#pixso_custom_effect_8)" color-interpolation-filters="sRGB">
			<feFlood flood-opacity="0" result="BackgroundImageFix" />
			<feBlend result="shape" in="SourceGraphic" in2="BackgroundImageFix" mode="normal" />
			<feGaussianBlur stdDeviation="2.66666675" result="effect_layerBlur_1" />
		</filter>
	</defs>
	<g id="background">
		<g id="Group" filter="url(#filter_0)">
			<path id="Vector" d="M97.2587 1.76086C75.4793 -5.51805 62.6678 11.466 35.7638 21.7778C-3.31108 36.9422 -7.15459 61.2053 8.8597 72.1237C24.2334 83.042 47.294 69.6974 65.8705 77.5829C85.0877 84.2552 92.134 108.518 111.992 110.338C131.209 112.158 145.942 92.1406 128.006 55.7461C115.835 31.483 119.038 10.2529 97.2587 1.76086Z" fill="rgb(255,250,243)" fill-rule="nonzero" transform="matrix(0.378666,-0.925533,0.936559,0.350509,1565.36,1070.97)" />
			<path id="Vector" d="M51.4523 31.4764C57.2193 51.8621 50.1707 71.0124 36.7144 74.7188C23.2582 78.4254 7.23884 64.2171 2.11264 43.8313C-3.65432 23.4456 2.75353 4.29535 16.8506 0.58885C30.9476 -3.11765 45.6854 11.0906 51.4523 31.4764Z" fill="rgb(255,250,243)" fill-rule="nonzero" transform="matrix(0.378666,-0.925533,0.936559,0.350509,1507.64,1045.98)" />
			<path id="Vector" d="M22.4499 8.24021C3.55337 18.6489 -4.9175 35.9967 2.90176 46.9837C10.721 57.9706 32.2241 57.9706 50.4691 46.9837C69.3656 36.575 77.8365 19.2272 70.0173 8.24021C62.198 -2.74674 40.6949 -2.74674 22.4499 8.24021Z" fill="rgb(255,250,243)" fill-rule="nonzero" transform="matrix(0.378666,-0.925533,0.936559,0.350509,1615.89,945.715)" />
			<path id="Vector" d="M57.0615 45.1504C52.3565 66.9712 36.2251 82.5574 20.7658 80.0636C5.30651 77.5698 -3.43132 56.996 1.27368 35.1752C5.97869 13.3545 22.1101 -2.2318 37.5694 0.262003C53.0287 2.75581 61.7665 23.3297 57.0615 45.1504Z" fill="rgb(255,250,243)" fill-rule="nonzero" transform="matrix(0.378666,-0.925533,0.936559,0.350509,1497.76,978.702)" />
			<path id="Vector" d="M8.68563 22.4715C-3.40717 40.7412 -2.77082 60.779 9.95844 67.8511C22.6877 74.9232 42.4181 66.0831 54.5109 47.8134C66.6036 29.5437 65.9673 9.50598 53.238 2.43385C40.5088 -4.63829 20.7784 4.20184 8.68563 22.4715Z" fill="rgb(255,250,243)" fill-rule="nonzero" transform="matrix(0.378666,-0.925533,0.936559,0.350509,1538.57,935.491)" />
		</g>
		<g id="Group" filter="url(#filter_1)">
			<path id="Vector" d="M97.2587 1.76086C75.4793 -5.51805 62.6678 11.466 35.7638 21.7778C-3.31108 36.9422 -7.15459 61.2053 8.8597 72.1237C24.2334 83.042 47.294 69.6974 65.8705 77.5829C85.0877 84.2552 92.134 108.518 111.992 110.338C131.209 112.158 145.942 92.1406 128.006 55.7461C115.835 31.483 119.038 10.2529 97.2587 1.76086Z" fill="rgb(255,250,243)" fill-rule="nonzero" transform="matrix(-0.957059,0.289893,0.260823,0.965387,310.443,2554.95)" />
			<path id="Vector" d="M51.4523 31.4764C57.2193 51.8621 50.1707 71.0124 36.7144 74.7188C23.2582 78.4254 7.23884 64.2171 2.11264 43.8313C-3.65432 23.4456 2.75353 4.29535 16.8506 0.58885C30.9476 -3.11765 45.6854 11.0906 51.4523 31.4764Z" fill="rgb(255,250,243)" fill-rule="nonzero" transform="matrix(-0.957059,0.289893,0.260823,0.965387,290.993,2495.13)" />
			<path id="Vector" d="M22.4499 8.24021C3.55337 18.6489 -4.9175 35.9967 2.90176 46.9837C10.721 57.9706 32.2241 57.9706 50.4691 46.9837C69.3656 36.575 77.8365 19.2272 70.0173 8.24021C62.198 -2.74674 40.6949 -2.74674 22.4499 8.24021Z" fill="rgb(255,250,243)" fill-rule="nonzero" transform="matrix(-0.957059,0.289893,0.260823,0.965387,180.989,2593.47)" />
			<path id="Vector" d="M57.0615 45.1504C52.3565 66.9712 36.2251 82.5574 20.7658 80.0636C5.30651 77.5698 -3.43132 56.996 1.27368 35.1752C5.97869 13.3545 22.1101 -2.2318 37.5694 0.262003C53.0287 2.75581 61.7665 23.3297 57.0615 45.1504Z" fill="rgb(255,250,243)" fill-rule="nonzero" transform="matrix(-0.957059,0.289893,0.260823,0.965387,224.946,2478.97)" />
			<path id="Vector" d="M8.68563 22.4715C-3.40717 40.7412 -2.77082 60.779 9.95844 67.8511C22.6877 74.9232 42.4181 66.0831 54.5109 47.8134C66.6036 29.5437 65.9673 9.50598 53.238 2.43385C40.5088 -4.63829 20.7784 4.20184 8.68563 22.4715Z" fill="rgb(255,250,243)" fill-rule="nonzero" transform="matrix(-0.957059,0.289893,0.260823,0.965387,178.087,2515.53)" />
		</g>
		<path id="Vector 3" d="M544.774 1544.02C317.304 1512.59 102.112 1550.12 22.9905 1573.02L0 2010.97C166.238 1984.22 631.507 1966.21 1172.51 2021.97C1732.33 2079.67 1588.37 1988.97 1908.21 1958.98C1926.37 1883.69 2104.29 1671.34 1861.23 1573.02C1618.17 1474.69 1740.73 1542.34 1460.4 1544.02C1250.02 1557.12 772.244 1575.45 544.774 1544.02Z" fill="rgb(255,250,243)" fill-rule="evenodd" />
		<g id="food icon">
			<path id="Vector" d="M596.055 1488.78C595.976 1485.79 593.047 1482.82 587.178 1480.78C587.579 1479.96 587.178 1479.69 587.178 1478.78C587.178 1475.24 584.106 1471.78 580.274 1471.78C579.41 1471.78 579.107 1472.49 578.301 1472.78C577.011 1471.32 574.649 1470.78 572.384 1470.78C571.357 1470.78 570.352 1470.43 569.425 1470.78C567.811 1469.44 565.803 1468.78 563.507 1468.78C560.412 1468.78 557.155 1470.59 555.616 1472.78C551.978 1472.38 548.968 1473.17 547.726 1475.78C544.675 1475.83 542.191 1478.08 541.808 1480.78C535.449 1482.84 532.028 1485.65 531.945 1488.78L528 1503.78L528 1504.78C528 1511.75 544.306 1516.78 564.493 1516.78C584.68 1516.78 600 1511.75 600 1504.78L596.055 1488.78ZM547.726 1477.78L548.712 1477.78L548.712 1476.78C549.493 1474.7 551.804 1473.78 554.63 1473.78C555.028 1473.78 555.204 1473.72 555.616 1473.78L556.603 1473.78C557.85 1471.76 560.684 1469.78 563.507 1469.78C565.639 1469.78 567.036 1470.49 568.438 1471.78L569.425 1472.78L569.425 1471.78C570.292 1471.4 571.387 1471.78 572.384 1471.78C574.451 1471.78 576.309 1472.41 577.315 1473.78L578.301 1473.78C579.081 1473.44 579.422 1473.78 580.274 1473.78C583.409 1473.78 586.192 1475.95 586.192 1478.78C586.192 1479.7 585.729 1479.98 585.206 1480.78C585.204 1480.78 585.207 1481.77 585.206 1481.78L585.206 1482.78L586.192 1482.78C588.668 1483.12 590.137 1484.47 590.137 1485.78C590.137 1486.56 589.662 1486.42 589.151 1486.78L587.178 1487.78L589.151 1488.78C590.263 1489.29 590.137 1489.89 590.137 1490.78C590.137 1492.1 587.621 1493.78 585.206 1493.78C584.104 1494.15 583.411 1494.47 582.247 1494.78C577.301 1496.08 571.434 1496.78 565.479 1496.78C555.294 1496.78 546.753 1494.53 543.781 1493.78C543.096 1493.6 542.813 1493.78 542.794 1493.78C540.088 1493.78 537.863 1491.2 537.863 1488.78C537.863 1486.35 540.088 1484.78 542.794 1484.78L543.781 1484.78L543.781 1483.78C543.463 1483.19 542.794 1482.42 542.794 1481.78C543.047 1479.62 545.22 1477.78 547.726 1477.78ZM541.808 1482.78C538.593 1482.97 535.89 1485.77 535.89 1488.78C535.89 1491.88 539.432 1494.73 542.794 1494.78C542.948 1494.82 543.251 1494.64 543.781 1494.78C546.819 1495.54 555.165 1497.78 565.479 1497.78C572.929 1497.78 579.315 1496.78 585.206 1494.78C588.122 1494.74 592.11 1493.04 592.11 1490.78C592.11 1490.5 592.182 1490.04 592.11 1489.78C591.895 1488.98 590.911 1488.33 590.137 1487.78C590.905 1487.09 591.123 1486.64 591.123 1485.78C591.123 1485.71 591.128 1484.84 591.123 1484.78C593.493 1486.19 595.068 1487.2 595.068 1488.78C595.068 1493.55 581.987 1498.78 563.507 1498.78C545.026 1498.78 532.932 1493.55 532.932 1488.78C532.932 1486.31 536.268 1484.64 541.808 1482.78ZM563.507 1515.78C544.759 1515.78 529.121 1510.79 528.986 1504.78L532.932 1491.78C535.964 1496.86 547.805 1500.78 563.507 1500.78C579.207 1500.78 592.037 1496.87 595.068 1491.78L599.014 1504.78C598.879 1510.79 582.254 1515.78 563.507 1515.78Z" fill="rgb(131.208,154.174,168.938)" fill-rule="nonzero" />
			<path id="Vector" d="M574.356 1504.78C574.356 1503.08 573.036 1501.78 571.397 1501.78C569.812 1501.78 568.516 1503.16 568.438 1504.78L558.575 1504.78C558.497 1503.16 557.203 1501.78 555.616 1501.78C553.979 1501.78 552.658 1503.08 552.658 1504.78C552.658 1505.77 552.941 1506.21 553.644 1506.78C552.941 1507.34 552.658 1508.79 552.658 1509.78C552.658 1511.47 553.979 1512.78 555.616 1512.78C557.203 1512.78 558.498 1511.4 558.575 1509.78L568.438 1509.78C568.517 1511.4 569.812 1512.78 571.397 1512.78C573.036 1512.78 574.356 1511.47 574.356 1509.78C574.356 1508.79 574.071 1507.34 573.37 1506.78C574.071 1506.21 574.356 1505.77 574.356 1504.78ZM573.37 1509.78C573.37 1510.76 572.352 1511.78 571.397 1511.78C570.445 1511.78 569.425 1510.76 569.425 1509.78L569.425 1508.78L557.589 1508.78L557.589 1509.78C557.589 1510.76 556.571 1511.78 555.616 1511.78C554.663 1511.78 553.644 1510.76 553.644 1509.78C553.644 1508.79 554.663 1507.78 555.616 1507.78L555.616 1506.78C554.663 1506.78 553.644 1505.76 553.644 1504.78C553.644 1503.79 554.663 1502.78 555.616 1502.78C556.571 1502.78 557.589 1503.79 557.589 1504.78L557.589 1505.78L569.425 1505.78L569.425 1504.78C569.425 1503.79 570.445 1502.78 571.397 1502.78C572.352 1502.78 573.37 1503.79 573.37 1504.78C573.37 1505.76 572.352 1506.78 571.397 1506.78L571.397 1507.78C572.352 1507.78 573.37 1508.79 573.37 1509.78Z" fill="rgb(131.208,154.174,168.938)" fill-rule="nonzero" />
		</g>
		<g id="arrow" clip-path="url(#clipPath_1)" customFrame="url(#clipPath_1)">
			<rect id="arrow" width="192.000000" height="144.000000" x="0.000000" y="0.000000" fill="rgb(255,255,255)" fill-opacity="0" transform="matrix(-0.998138,-0.0610034,-0.0610034,0.998138,1602,1516.78)" />
			<path id="XMLID_1_" d="M153.407 120.395C149.675 79.0601 118.431 44.0067 83.77 41.94C83.5034 42.9734 82.5086 43.8859 82.7752 44.9193C87.3077 62.4867 78.6611 75.5208 65.8633 86.6296C55.9982 95.4133 45.1039 102.398 32.0394 105.499C28.3067 106.274 25.0957 107.485 21.0964 107.485C6.43221 107.743 -1.39451 98.8524 0.205224 84.6434C1.27171 75.0847 6.73894 67.7842 13.1379 60.8089C24.0694 48.6668 37.9281 39.6787 53.9254 33.9952C57.1249 32.9618 60.3359 31.5728 64.8684 30.0227C50.7375 12.7137 30.345 7.97996 11.1482 0.229639C14.6143 0.229639 17.6303 -0.287049 21.0964 0.229639C38.9601 4.1048 56.0499 11.1469 68.8477 24.0641C72.5804 27.6809 75.9147 30.0227 81.7804 30.0227C104.443 30.2811 122.559 39.5678 137.49 55.8434C148.688 67.9856 157.028 82.0531 162.361 97.5538C163.694 101.429 164.935 105.257 167.335 111.457C175.333 100.09 182.289 90.4881 189.221 80.671C190.021 80.9294 190.411 81.4058 191.21 81.6641C191.477 83.7309 193.005 86.8074 192.205 88.6158C188.473 97.3995 184.533 105.911 180.267 114.437C176.268 122.187 171.334 129.528 167.335 137.278C163.335 144.77 159.468 146.457 154.402 140.257C145.604 129.665 137.53 118.852 129.532 107.485C128.465 105.935 129.265 102.858 129.532 100.533C132.198 101.05 135.89 100.969 137.49 102.519C143.089 108.203 147.542 113.678 153.407 120.395ZM72.827 40.9469C46.698 45.3387 26.2023 57.202 13.1379 79.6779C10.4716 84.5864 8.33867 90.6993 13.1379 94.5745C16.3373 97.1579 22.5328 98.0705 27.0653 97.5538C44.3957 94.9703 57.6496 85.385 68.8477 72.7262C76.5798 63.6841 79.4925 53.8641 72.827 40.9469Z" fill="rgb(255,170,0)" fill-rule="evenodd" transform="matrix(-0.998138,-0.0610034,-0.0610034,0.998138,1602.22,1516.56)" />
		</g>
		<g id="Group" filter="url(#filter_2)">
			<path id="Vector" d="M45.5332 0.852496C35.4112 -2.53627 29.3728 4.9517 16.8691 9.75245C-1.29114 16.8124 -3.42309 28.4025 4.01962 33.4857C11.1646 38.5688 22.0734 32.7812 30.707 36.4523C39.6382 39.5587 43.2232 50.4384 52.4522 51.2856C61.3834 52.1328 67.707 42.5184 59.3711 25.5746C53.7147 14.2787 55.6553 4.80605 45.5332 0.852496Z" fill="rgb(255,250,243)" fill-rule="evenodd" transform="matrix(-0.378666,-0.925533,-0.936559,0.350509,1403.23,1469.78)" />
			<path id="Vector" d="M23.6932 15.0848C26.3579 24.454 22.9919 33.159 16.7743 34.8625C10.5567 36.566 3.32822 29.3984 0.959592 20.0293C-1.70511 10.6601 1.36481 1.95507 7.87853 0.251584C14.3922 -1.4519 21.0285 5.71568 23.6932 15.0848Z" fill="rgb(255,250,243)" fill-rule="evenodd" transform="matrix(-0.378666,-0.925533,-0.936559,0.350509,1430.26,1457.69)" />
			<path id="Vector" d="M10.2512 3.83646C1.54234 8.68251 -2.24824 16.5211 1.35544 21.6364C4.95911 26.7516 15.6805 26.7516 24.0891 21.6364C32.798 16.7903 36.5885 8.95173 32.9849 3.83646C29.3812 -1.27882 18.6598 -1.27882 10.2512 3.83646Z" fill="rgb(255,250,243)" fill-rule="evenodd" transform="matrix(-0.378666,-0.925533,-0.936559,0.350509,1379.64,1411.74)" />
			<path id="Vector" d="M25.2951 20.8827C23.1426 31.0908 16.5527 38.8603 9.48038 37.6937C2.40802 36.527 -1.56786 27.1352 0.584601 16.9271C2.73706 6.71903 9.32696 -1.05053 16.3993 0.116105C23.4717 1.28274 27.4476 10.6746 25.2951 20.8827Z" fill="rgb(255,250,243)" fill-rule="evenodd" transform="matrix(-0.378666,-0.925533,-0.936559,0.350509,1434.94,1426.75)" />
			<path id="Vector" d="M3.89597 10.9428C-1.77813 19.4254 -1.08834 28.4258 4.88439 31.7094C10.8571 34.993 19.9671 30.3031 25.6412 21.8205C31.3153 13.338 30.6255 4.33757 24.6528 1.05399C18.6801 -2.22959 9.57006 2.46025 3.89597 10.9428Z" fill="rgb(255,250,243)" fill-rule="evenodd" transform="matrix(-0.378666,-0.925533,-0.936559,0.350509,1416.24,1406.33)" />
		</g>
		<g id="Group" filter="url(#filter_3)">
			<path id="Vector" d="M33.7979 0.632781C26.2846 -1.88259 21.8025 3.67549 12.5214 7.23893C-0.958372 12.4793 -2.54085 21.0823 2.98364 24.8553C8.28714 28.6284 16.3844 24.3324 22.7928 27.0574C29.4222 29.3631 32.0832 37.4388 38.9336 38.0676C45.563 38.6965 50.2567 31.5601 44.0693 18.9832C39.8707 10.5986 41.3112 3.56738 33.7979 0.632781Z" fill="rgb(255,250,243)" fill-rule="evenodd" transform="matrix(-0.378666,-0.925533,-0.936559,0.350509,352.256,2118.66)" />
			<path id="Vector" d="M17.5867 11.197C19.5647 18.1514 17.0662 24.6129 12.451 25.8773C7.83588 27.1418 2.47043 21.8215 0.712274 14.8671C-1.26565 7.91265 1.01306 1.45118 5.84798 0.186743C10.6829 -1.0777 15.6088 4.24257 17.5867 11.197Z" fill="rgb(255,250,243)" fill-rule="evenodd" transform="matrix(-0.378666,-0.925533,-0.936559,0.350509,372.318,2109.68)" />
			<path id="Vector" d="M7.60915 2.84768C1.14483 6.44475 -1.66879 12.2631 1.0061 16.06C3.68099 19.8569 11.6391 19.8569 17.8806 16.06C24.3449 12.4629 27.1585 6.64458 24.4836 2.84768C21.8087 -0.949226 13.8506 -0.949226 7.60915 2.84768Z" fill="rgb(255,250,243)" fill-rule="evenodd" transform="matrix(-0.378666,-0.925533,-0.936559,0.350509,334.745,2075.57)" />
			<path id="Vector" d="M18.7757 15.5005C17.178 23.0777 12.2866 28.8448 7.03698 27.9788C1.7874 27.1129 -1.16377 20.1416 0.433931 12.5645C2.03163 4.98732 6.9231 -0.779778 12.1727 0.0861811C17.4223 0.95214 20.3734 7.92339 18.7757 15.5005Z" fill="rgb(255,250,243)" fill-rule="evenodd" transform="matrix(-0.378666,-0.925533,-0.936559,0.350509,375.792,2086.71)" />
			<path id="Vector" d="M2.89185 8.12251C-1.31985 14.4189 -0.807841 21.0996 3.62553 23.5369C8.05889 25.9742 14.8209 22.493 19.0326 16.1967C23.2443 9.90035 22.7323 3.21964 18.299 0.782344C13.8656 -1.65495 7.10355 1.82616 2.89185 8.12251Z" fill="rgb(255,250,243)" fill-rule="evenodd" transform="matrix(-0.378666,-0.925533,-0.936559,0.350509,361.911,2071.56)" />
		</g>
		<g id="Group" filter="url(#filter_4)">
			<path id="Vector" d="M45.5332 0.852496C35.4112 -2.53627 29.3728 4.9517 16.8691 9.75245C-1.29114 16.8124 -3.42309 28.4025 4.01962 33.4857C11.1646 38.5688 22.0734 32.7812 30.707 36.4523C39.6382 39.5587 43.2232 50.4384 52.4522 51.2856C61.3834 52.1328 67.707 42.5184 59.3711 25.5746C53.7147 14.2787 55.6553 4.80605 45.5332 0.852496Z" fill="rgb(255,250,243)" fill-rule="evenodd" transform="matrix(-0.378666,-0.925533,-0.936559,0.350509,523.234,833.782)" />
			<path id="Vector" d="M23.6932 15.0848C26.3579 24.454 22.9919 33.159 16.7743 34.8625C10.5567 36.566 3.32822 29.3984 0.959592 20.0293C-1.70511 10.6601 1.36481 1.95507 7.87853 0.251584C14.3922 -1.4519 21.0285 5.71568 23.6932 15.0848Z" fill="rgb(255,250,243)" fill-rule="evenodd" transform="matrix(-0.378666,-0.925533,-0.936559,0.350509,550.262,821.692)" />
			<path id="Vector" d="M10.2512 3.83646C1.54234 8.68251 -2.24824 16.5211 1.35544 21.6364C4.95911 26.7516 15.6805 26.7516 24.0891 21.6364C32.798 16.7903 36.5885 8.95173 32.9849 3.83646C29.3812 -1.27882 18.6598 -1.27882 10.2512 3.83646Z" fill="rgb(255,250,243)" fill-rule="evenodd" transform="matrix(-0.378666,-0.925533,-0.936559,0.350509,499.642,775.738)" />
			<path id="Vector" d="M25.2951 20.8827C23.1426 31.0908 16.5527 38.8603 9.48038 37.6937C2.40802 36.527 -1.56786 27.1352 0.584601 16.9271C2.73706 6.71903 9.32696 -1.05053 16.3993 0.116105C23.4717 1.28274 27.4476 10.6746 25.2951 20.8827Z" fill="rgb(255,250,243)" fill-rule="evenodd" transform="matrix(-0.378666,-0.925533,-0.936559,0.350509,554.942,790.749)" />
			<path id="Vector" d="M3.89597 10.9428C-1.77813 19.4254 -1.08834 28.4258 4.88439 31.7094C10.8571 34.993 19.9671 30.3031 25.6412 21.8205C31.3153 13.338 30.6255 4.33757 24.6528 1.05399C18.6801 -2.22959 9.57006 2.46025 3.89597 10.9428Z" fill="rgb(255,250,243)" fill-rule="evenodd" transform="matrix(-0.378666,-0.925533,-0.936559,0.350509,536.241,770.332)" />
		</g>
		<g id="Group" filter="url(#filter_5)">
			<path id="Vector" d="M45.5332 0.852496C35.4112 -2.53627 29.3728 4.9517 16.8691 9.75245C-1.29114 16.8124 -3.42309 28.4025 4.01962 33.4857C11.1646 38.5688 22.0734 32.7812 30.707 36.4523C39.6382 39.5587 43.2232 50.4384 52.4522 51.2856C61.3834 52.1328 67.707 42.5184 59.3711 25.5746C53.7147 14.2787 55.6553 4.80605 45.5332 0.852496Z" fill="rgb(255,250,243)" fill-rule="evenodd" transform="matrix(-0.378666,-0.925533,-0.936559,0.350509,249.811,1074.56)" />
			<path id="Vector" d="M23.6932 15.0848C26.3579 24.454 22.9919 33.159 16.7743 34.8625C10.5567 36.566 3.32822 29.3984 0.959592 20.0293C-1.70511 10.6601 1.36481 1.95507 7.87853 0.251584C14.3922 -1.4519 21.0285 5.71568 23.6932 15.0848Z" fill="rgb(255,250,243)" fill-rule="evenodd" transform="matrix(-0.378666,-0.925533,-0.936559,0.350509,276.839,1062.47)" />
			<path id="Vector" d="M10.2512 3.83646C1.54234 8.68251 -2.24824 16.5211 1.35544 21.6364C4.95911 26.7516 15.6805 26.7516 24.0891 21.6364C32.798 16.7903 36.5885 8.95173 32.9849 3.83646C29.3812 -1.27882 18.6598 -1.27882 10.2512 3.83646Z" fill="rgb(255,250,243)" fill-rule="evenodd" transform="matrix(-0.378666,-0.925533,-0.936559,0.350509,226.219,1016.51)" />
			<path id="Vector" d="M25.2951 20.8827C23.1426 31.0908 16.5527 38.8603 9.48038 37.6937C2.40802 36.527 -1.56786 27.1352 0.584601 16.9271C2.73706 6.71903 9.32696 -1.05053 16.3993 0.116105C23.4717 1.28274 27.4476 10.6746 25.2951 20.8827Z" fill="rgb(255,250,243)" fill-rule="evenodd" transform="matrix(-0.378666,-0.925533,-0.936559,0.350509,281.519,1031.53)" />
			<path id="Vector" d="M3.89597 10.9428C-1.77813 19.4254 -1.08834 28.4258 4.88439 31.7094C10.8571 34.993 19.9671 30.3031 25.6412 21.8205C31.3153 13.338 30.6255 4.33757 24.6528 1.05399C18.6801 -2.22959 9.57006 2.46025 3.89597 10.9428Z" fill="rgb(255,250,243)" fill-rule="evenodd" transform="matrix(-0.378666,-0.925533,-0.936559,0.350509,262.818,1011.11)" />
		</g>
		<g id="Group" filter="url(#filter_6)">
			<path id="Vector" d="M45.5332 0.852496C35.4112 -2.53627 29.3728 4.9517 16.8691 9.75245C-1.29114 16.8124 -3.42309 28.4025 4.01962 33.4857C11.1646 38.5688 22.0734 32.7812 30.707 36.4523C39.6382 39.5587 43.2232 50.4384 52.4522 51.2856C61.3834 52.1328 67.707 42.5184 59.3711 25.5746C53.7147 14.2787 55.6553 4.80605 45.5332 0.852496Z" fill="rgb(255,250,243)" fill-rule="evenodd" transform="matrix(0.378666,-0.925533,0.936559,0.350509,1567.77,2169.78)" />
			<path id="Vector" d="M23.6932 15.0848C26.3579 24.454 22.9919 33.159 16.7743 34.8625C10.5567 36.566 3.32822 29.3984 0.959592 20.0293C-1.70511 10.6601 1.36481 1.95507 7.87853 0.251584C14.3922 -1.4519 21.0285 5.71568 23.6932 15.0848Z" fill="rgb(255,250,243)" fill-rule="evenodd" transform="matrix(0.378666,-0.925533,0.936559,0.350509,1540.74,2157.69)" />
			<path id="Vector" d="M10.2512 3.83646C1.54234 8.68251 -2.24824 16.5211 1.35544 21.6364C4.95911 26.7516 15.6805 26.7516 24.0891 21.6364C32.798 16.7903 36.5885 8.95173 32.9849 3.83646C29.3812 -1.27882 18.6598 -1.27882 10.2512 3.83646Z" fill="rgb(255,250,243)" fill-rule="evenodd" transform="matrix(0.378666,-0.925533,0.936559,0.350509,1591.36,2111.74)" />
			<path id="Vector" d="M25.2951 20.8827C23.1426 31.0908 16.5527 38.8603 9.48038 37.6937C2.40802 36.527 -1.56786 27.1352 0.584601 16.9271C2.73706 6.71903 9.32696 -1.05053 16.3993 0.116105C23.4717 1.28274 27.4476 10.6746 25.2951 20.8827Z" fill="rgb(255,250,243)" fill-rule="evenodd" transform="matrix(0.378666,-0.925533,0.936559,0.350509,1536.06,2126.75)" />
			<path id="Vector" d="M3.89597 10.9428C-1.77813 19.4254 -1.08834 28.4258 4.88439 31.7094C10.8571 34.993 19.9671 30.3031 25.6412 21.8205C31.3153 13.338 30.6255 4.33757 24.6528 1.05399C18.6801 -2.22959 9.57006 2.46025 3.89597 10.9428Z" fill="rgb(255,250,243)" fill-rule="evenodd" transform="matrix(0.378666,-0.925533,0.936559,0.350509,1554.76,2106.33)" />
		</g>
		<g id="Group" filter="url(#filter_7)">
			<path id="Vector" d="M45.5332 0.852496C35.4112 -2.53627 29.3728 4.9517 16.8691 9.75245C-1.29114 16.8124 -3.42309 28.4025 4.01962 33.4857C11.1646 38.5688 22.0734 32.7812 30.707 36.4523C39.6382 39.5587 43.2232 50.4384 52.4522 51.2856C61.3834 52.1328 67.707 42.5184 59.3711 25.5746C53.7147 14.2787 55.6553 4.80605 45.5332 0.852496Z" fill="rgb(255,250,243)" fill-rule="evenodd" transform="matrix(-0.378666,-0.925533,-0.936559,0.350509,1107.23,105.782)" />
			<path id="Vector" d="M23.6932 15.0848C26.3579 24.454 22.9919 33.159 16.7743 34.8625C10.5567 36.566 3.32822 29.3984 0.959592 20.0293C-1.70511 10.6601 1.36481 1.95507 7.87853 0.251584C14.3922 -1.4519 21.0285 5.71568 23.6932 15.0848Z" fill="rgb(255,250,243)" fill-rule="evenodd" transform="matrix(-0.378666,-0.925533,-0.936559,0.350509,1134.26,93.6923)" />
			<path id="Vector" d="M10.2512 3.83646C1.54234 8.68251 -2.24824 16.5211 1.35544 21.6364C4.95911 26.7516 15.6805 26.7516 24.0891 21.6364C32.798 16.7903 36.5885 8.95173 32.9849 3.83646C29.3812 -1.27882 18.6598 -1.27882 10.2512 3.83646Z" fill="rgb(255,250,243)" fill-rule="evenodd" transform="matrix(-0.378666,-0.925533,-0.936559,0.350509,1083.64,47.7377)" />
			<path id="Vector" d="M25.2951 20.8827C23.1426 31.0908 16.5527 38.8603 9.48038 37.6937C2.40802 36.527 -1.56786 27.1352 0.584601 16.9271C2.73706 6.71903 9.32696 -1.05053 16.3993 0.116105C23.4717 1.28274 27.4476 10.6746 25.2951 20.8827Z" fill="rgb(255,250,243)" fill-rule="evenodd" transform="matrix(-0.378666,-0.925533,-0.936559,0.350509,1138.94,62.749)" />
			<path id="Vector" d="M3.89597 10.9428C-1.77813 19.4254 -1.08834 28.4258 4.88439 31.7094C10.8571 34.993 19.9671 30.3031 25.6412 21.8205C31.3153 13.338 30.6255 4.33757 24.6528 1.05399C18.6801 -2.22959 9.57006 2.46025 3.89597 10.9428Z" fill="rgb(255,250,243)" fill-rule="evenodd" transform="matrix(-0.378666,-0.925533,-0.936559,0.350509,1120.24,42.332)" />
		</g>
		<g id="Group" filter="url(#filter_8)">
			<path id="Vector" d="M45.5332 0.852496C35.4112 -2.53627 29.3728 4.9517 16.8691 9.75245C-1.29114 16.8124 -3.42309 28.4025 4.01962 33.4857C11.1646 38.5688 22.0734 32.7812 30.707 36.4523C39.6382 39.5587 43.2232 50.4384 52.4522 51.2856C61.3834 52.1328 67.707 42.5184 59.3711 25.5746C53.7147 14.2787 55.6553 4.80605 45.5332 0.852496Z" fill="rgb(255,250,243)" fill-rule="evenodd" transform="matrix(-0.933615,0.358277,0.329885,0.944021,1657.06,81.8833)" />
			<path id="Vector" d="M23.6932 15.0848C26.3579 24.454 22.9919 33.159 16.7743 34.8625C10.5567 36.566 3.32822 29.3984 0.959592 20.0293C-1.70511 10.6601 1.36481 1.95507 7.87853 0.251584C14.3922 -1.4519 21.0285 5.71568 23.6932 15.0848Z" fill="rgb(255,250,243)" fill-rule="evenodd" transform="matrix(-0.933615,0.358277,0.329885,0.944021,1645.57,54.5972)" />
			<path id="Vector" d="M10.2512 3.83646C1.54234 8.68251 -2.24824 16.5211 1.35544 21.6364C4.95911 26.7516 15.6805 26.7516 24.0891 21.6364C32.798 16.7903 36.5885 8.95173 32.9849 3.83646C29.3812 -1.27882 18.6598 -1.27882 10.2512 3.83646Z" fill="rgb(255,250,243)" fill-rule="evenodd" transform="matrix(-0.933615,0.358277,0.329885,0.944021,1598.52,104.197)" />
			<path id="Vector" d="M25.2951 20.8827C23.1426 31.0908 16.5527 38.8603 9.48038 37.6937C2.40802 36.527 -1.56786 27.1352 0.584601 16.9271C2.73706 6.71903 9.32696 -1.05053 16.3993 0.116105C23.4717 1.28274 27.4476 10.6746 25.2951 20.8827Z" fill="rgb(255,250,243)" fill-rule="evenodd" transform="matrix(-0.933615,0.358277,0.329885,0.944021,1614.74,49.2393)" />
			<path id="Vector" d="M3.89597 10.9428C-1.77813 19.4254 -1.08834 28.4258 4.88439 31.7094C10.8571 34.993 19.9671 30.3031 25.6412 21.8205C31.3153 13.338 30.6255 4.33757 24.6528 1.05399C18.6801 -2.22959 9.57006 2.46025 3.89597 10.9428Z" fill="rgb(255,250,243)" fill-rule="evenodd" transform="matrix(-0.933615,0.358277,0.329885,0.944021,1593.91,67.4878)" />
		</g>
	</g>
</svg>
