<svg width="40" height="41" viewBox="0 0 40 41" fill="none" xmlns="http://www.w3.org/2000/svg">
<g clip-path="url(#clip0_140_1776)">
<path d="M1.87943 16.4999H38.1301V13.8333H1.87943V16.4999ZM37.3381 15.7079V16.8786H40.0048V15.7079H37.3381ZM33.0341 37.8333H6.97543V40.5H33.0341V37.8333ZM2.67143 16.8786V15.7079H0.00476074V16.8786H2.67143ZM7.72743 38.2973C4.40237 31.647 2.67134 24.3138 2.67143 16.8786H0.00476074C0.00476074 24.7293 1.83143 32.4706 5.34343 39.492L7.72743 38.2973ZM6.97543 37.8333C7.29543 37.8333 7.58609 38.0146 7.72743 38.2973L5.34343 39.492C5.49524 39.7948 5.72827 40.0494 6.01647 40.2274C6.30467 40.4054 6.63669 40.4998 6.97543 40.5V37.8333ZM32.2821 38.2973C32.352 38.1577 32.4593 38.0404 32.5922 37.9584C32.725 37.8765 32.878 37.8331 33.0341 37.8333V40.5C33.7274 40.5 34.3568 40.1106 34.6661 39.492L32.2821 38.2973ZM37.3381 16.8786C37.3381 24.3133 35.6048 31.6466 32.2821 38.2973L34.6661 39.492C38.177 32.4708 40.0048 24.7286 40.0048 16.8786H37.3381ZM38.1301 16.4999C37.92 16.4999 37.7186 16.4165 37.5701 16.268C37.4215 16.1194 37.3381 15.918 37.3381 15.7079H40.0048C40.0048 15.2108 39.8073 14.7339 39.4557 14.3824C39.1041 14.0308 38.6273 13.8333 38.1301 13.8333V16.4999ZM1.87943 13.8333C1.38223 13.8333 0.905406 14.0308 0.553838 14.3824C0.20227 14.7339 0.00476074 15.2108 0.00476074 15.7079H2.67143C2.67143 15.918 2.58798 16.1194 2.43946 16.268C2.29093 16.4165 2.08948 16.4999 1.87943 16.4999V13.8333ZM10.4821 15.8519L18.4821 2.51862L16.1914 1.14795L8.19143 14.4813L10.4821 15.8519ZM21.5274 2.51862L29.5274 15.8519L31.8154 14.4813L23.8154 1.14795L21.5274 2.51862ZM13.3381 27.1666H26.6714V24.5H13.3381V27.1666Z" fill="#FF9F0E"/>
</g>
<defs>
<clipPath id="clip0_140_1776">
<rect width="40" height="40" fill="white" transform="translate(0.00476074 0.5)"/>
</clipPath>
</defs>
</svg>
