<svg viewBox="0 0 2009 833" xmlns="http://www.w3.org/2000/svg" xmlns:xlink="http://www.w3.org/1999/xlink" width="2009.000000" height="833.000000" fill="none" customFrame="#000000">
	<defs>
		<linearGradient id="paint_linear_1" x1="1004.50012" x2="1004.50012" y1="0" y2="613.008484" gradientUnits="userSpaceOnUse">
			<stop stop-color="rgb(241,243,255)" offset="0" stop-opacity="1" />
			<stop stop-color="rgb(241,243,255)" offset="1" stop-opacity="0" />
		</linearGradient>
	</defs>
	<g id="background">
		<path id="Vector 4" d="M697.837 143.385C280.344 47.4619 234.623 103.417 263.948 143.385C128.483 424.659 -103.657 941.146 51.5029 756.893C245.453 526.578 873.292 862.808 1256.69 830.834C1563.41 805.254 1886.03 678.623 2009 618.504L2009 0L1561.11 87.9295C1415.14 129.396 1115.33 239.308 697.837 143.385Z" fill="url(#paint_linear_1)" fill-rule="evenodd" />
		<g id="paw">
			<path id="Vector" d="M4.90961 20.9367C10.5345 25.5195 16.585 16.038 15.46 10.3094C18.8349 -0.00201893 7.88792 -4.25974 3.95048 5.47882C-1.11194 9.48881 -1.84029 20.9367 4.90961 20.9367ZM5.86873 19.0044C-0.318676 19.5773 1.53466 9.30922 4.90961 6.44494L4.90961 5.47882C8.28455 -3.11403 16.9167 0.750435 13.5417 9.34328L13.5417 10.3094C14.6667 14.8923 9.97203 23.5873 4.90961 19.0044L5.86873 19.0044Z" fill="rgb(255,255,255)" fill-rule="evenodd" transform="matrix(0.981338,0.192289,-0.192289,0.981338,735.131,192.137)" />
			<path id="Vector" d="M4.90961 21.5663C10.5345 26.1746 16.585 15.7333 15.46 9.97288C18.8349 -0.395836 7.88792 -4.2603 3.95048 6.10841C-1.11194 10.1407 -1.84029 21.5663 4.90961 21.5663ZM5.86873 19.634C-0.318676 20.2101 1.53466 9.95473 4.90961 7.07453L4.90961 6.10841C8.28455 -2.53218 16.9167 1.33228 13.5417 9.97288C14.6667 14.5812 9.97203 24.2424 4.90961 19.634L5.86873 19.634Z" fill="rgb(255,255,255)" fill-rule="evenodd" transform="matrix(0.981338,0.192289,-0.192289,0.981338,717.998,180.918)" />
			<path id="Vector" d="M5.68622 15.5731C10.7623 18.988 17.5335 13.5356 15.2775 7.8442C17.5335 0.445312 6.19291 -3.41915 2.80884 3.97973C-2.26725 6.82546 0.0461144 15.004 5.68622 15.5731ZM6.64534 13.6409L5.68622 13.6409C1.17414 13.0717 -0.180104 6.65328 3.76797 4.94585L4.72709 4.94585C6.98314 -0.745602 15.6153 2.15275 13.3592 7.8442L13.3592 8.81031C15.0512 12.7943 10.5934 17.4527 6.64534 14.607L6.64534 13.6409Z" fill="rgb(255,255,255)" fill-rule="evenodd" transform="matrix(0.981338,0.192289,-0.192289,0.981338,739.195,217.82)" />
			<path id="Vector" d="M5.68622 15.5731C10.7623 18.988 17.5335 13.5356 15.2775 7.8442C17.5335 0.445312 6.19291 -3.41915 2.80884 3.97973C-2.26725 6.82546 0.0461144 15.004 5.68622 15.5731ZM6.64534 13.6409L5.68622 13.6409C1.17414 13.0717 -0.180104 6.65328 3.76797 4.94585L4.72709 4.94585C6.98314 -0.745602 15.6153 2.15275 13.3592 7.8442L13.3592 8.81031C15.0512 12.7943 10.5934 17.4527 6.64534 14.607L6.64534 13.6409Z" fill="rgb(255,255,255)" fill-rule="evenodd" transform="matrix(0.981338,0.192289,-0.192289,0.981338,695.1,191.802)" />
			<path id="Vector" d="M39.456 20.1499C45.1312 2.45605 15.5743 -8.56658 8.76397 8.55651C-8.82935 18.2596 3.38386 30.4708 16.437 35.6078C29.4901 40.1739 46.8338 38.9853 39.456 20.1499ZM37.5377 20.1499C44.348 37.273 29.3142 38.2417 17.3961 33.6755C5.47804 29.1094 -6.73517 19.6211 9.7231 10.4887L9.7231 9.52263C15.9659 -6.45893 42.6455 4.16835 37.5377 20.1499Z" fill="rgb(255,255,255)" fill-rule="evenodd" transform="matrix(0.981338,0.192289,-0.192289,0.981338,697.716,203.599)" />
		</g>
		<g id="paw">
			<path id="Vector" d="M4.90961 20.9367C10.5345 25.5195 16.585 16.038 15.46 10.3094C18.8349 -0.00201893 7.88792 -4.25974 3.95048 5.47882C-1.11194 9.48881 -1.84029 20.9367 4.90961 20.9367ZM5.86873 19.0044C-0.318676 19.5773 1.53466 9.30922 4.90961 6.44494L4.90961 5.47882C8.28455 -3.11403 16.9167 0.750435 13.5417 9.34328L13.5417 10.3094C14.6667 14.8923 9.97203 23.5873 4.90961 19.0044L5.86873 19.0044Z" fill="rgb(255,255,255)" fill-rule="evenodd" transform="matrix(0.0280143,0.999608,-0.999608,0.0280143,1651.04,120.222)" />
			<path id="Vector" d="M4.90961 21.5663C10.5345 26.1746 16.585 15.7333 15.46 9.97288C18.8349 -0.395836 7.88792 -4.2603 3.95048 6.10841C-1.11194 10.1407 -1.84029 21.5663 4.90961 21.5663ZM5.86873 19.634C-0.318676 20.2101 1.53466 9.95473 4.90961 7.07453L4.90961 6.10841C8.28455 -2.53218 16.9167 1.33228 13.5417 9.97288C14.6667 14.5812 9.97203 24.2424 4.90961 19.634L5.86873 19.634Z" fill="rgb(255,255,255)" fill-rule="evenodd" transform="matrix(0.0280143,0.999608,-0.999608,0.0280143,1658.22,101.042)" />
			<path id="Vector" d="M5.68622 15.5731C10.7623 18.988 17.5335 13.5356 15.2775 7.8442C17.5335 0.445312 6.19291 -3.41915 2.80884 3.97973C-2.26725 6.82546 0.0461144 15.004 5.68622 15.5731ZM6.64534 13.6409L5.68622 13.6409C1.17414 13.0717 -0.180104 6.65328 3.76797 4.94585L4.72709 4.94585C6.98314 -0.745602 15.6153 2.15275 13.3592 7.8442L13.3592 8.81031C15.0512 12.7943 10.5934 17.4527 6.64534 14.607L6.64534 13.6409Z" fill="rgb(255,255,255)" fill-rule="evenodd" transform="matrix(0.0280143,0.999608,-0.999608,0.0280143,1626.88,129.829)" />
			<path id="Vector" d="M5.68622 15.5731C10.7623 18.988 17.5335 13.5356 15.2775 7.8442C17.5335 0.445312 6.19291 -3.41915 2.80884 3.97973C-2.26725 6.82546 0.0461144 15.004 5.68622 15.5731ZM6.64534 13.6409L5.68622 13.6409C1.17414 13.0717 -0.180104 6.65328 3.76797 4.94585L4.72709 4.94585C6.98314 -0.745602 15.6153 2.15275 13.3592 7.8442L13.3592 8.81031C15.0512 12.7943 10.5934 17.4527 6.64534 14.607L6.64534 13.6409Z" fill="rgb(255,255,255)" fill-rule="evenodd" transform="matrix(0.0280143,0.999608,-0.999608,0.0280143,1642.57,81.0947)" />
			<path id="Vector" d="M39.456 20.1499C45.1312 2.45605 15.5743 -8.56658 8.76397 8.55651C-8.82935 18.2596 3.38386 30.4708 16.437 35.6078C29.4901 40.1739 46.8338 38.9853 39.456 20.1499ZM37.5377 20.1499C44.348 37.273 29.3142 38.2417 17.3961 33.6755C5.47804 29.1094 -6.73517 19.6211 9.7231 10.4887L9.7231 9.52263C15.9659 -6.45893 42.6455 4.16835 37.5377 20.1499Z" fill="rgb(255,255,255)" fill-rule="evenodd" transform="matrix(0.0280143,0.999608,-0.999608,0.0280143,1631.64,86.2395)" />
		</g>
		<g id="Group">
			<g id="Group">
				<g id="Group">
					<path id="Vector" d="M32 0C16.5053 0 0 7.53668 0 21.6216L0 42.2548C0 56.3398 16.5053 64 32 64C47.4947 64 64 56.4633 64 42.3784L64 21.6216C64 7.66023 47.4947 0 32 0ZM16.1011 56.0927C7.8821 52.8803 2.76211 47.444 2.76211 42.3784L2.76211 31.0116C5.79368 35.7066 11.1158 39.0425 17.3137 41.1429C15.9663 43.4903 15.2253 46.8262 15.2253 50.1622C15.2253 52.2625 15.5621 54.2394 16.1011 56.0927ZM9.63368 32C15.2253 28.0463 23.3095 25.6988 32 25.6988C40.6905 25.6988 48.7747 28.0463 54.3663 32C49.1789 35.583 41.3642 38.1776 32 38.1776C22.6358 38.3012 14.8211 35.7066 9.63368 32ZM61.2379 42.3784C61.2379 50.2857 49.2463 58.9344 32 58.9344C28.2947 58.9344 24.9263 58.5637 21.76 57.8224C19.6042 57.3282 17.9874 53.9923 17.9874 50.1622C17.9874 47.9382 18.4589 45.9614 19.4021 44.4788C20.2779 42.9961 21.4905 42.2548 22.7032 42.5019C25.7347 43.1197 28.9011 43.3668 32 43.3668C43.6547 43.3668 55.9158 39.0425 61.2379 30.888L61.2379 42.3784ZM57.7347 29.1583C51.8063 23.8456 42.3074 20.6332 32 20.6332C21.6926 20.6332 12.1937 23.8456 6.26526 29.1583C4.04211 26.8108 2.76211 24.2162 2.76211 21.6216C2.76211 13.7143 14.7537 5.06564 32 5.06564C49.2463 5.06564 61.2379 13.8378 61.2379 21.6216C61.2379 24.2162 59.9579 26.8108 57.7347 29.1583Z" fill="rgb(255,255,255)" fill-rule="nonzero" transform="matrix(0.960879,-0.276969,0.276969,0.960879,385,270)" />
					<path id="Vector" d="M1.68421 6.17761C2.61437 6.17761 3.36842 4.7947 3.36842 3.0888C3.36842 1.3829 2.61437 0 1.68421 0C0.754047 0 0 1.3829 0 3.0888C0 4.7947 0.754047 6.17761 1.68421 6.17761Z" fill="rgb(255,255,255)" fill-rule="evenodd" transform="matrix(0.960879,-0.276969,0.276969,0.960879,418.174,309.685)" />
					<path id="Vector" d="M1.68421 6.17761C2.61437 6.17761 3.36842 4.7947 3.36842 3.0888C3.36842 1.3829 2.61437 0 1.68421 0C0.754047 0 0 1.3829 0 3.0888C0 4.7947 0.754047 6.17761 1.68421 6.17761Z" fill="rgb(255,255,255)" fill-rule="evenodd" transform="matrix(0.960879,-0.276969,0.276969,0.960879,423.459,308.804)" />
					<path id="Vector" d="M1.68421 6.17761C2.61437 6.17761 3.36842 4.7947 3.36842 3.0888C3.36842 1.3829 2.61437 0 1.68421 0C0.754047 0 0 1.3829 0 3.0888C0 4.7947 0.754047 6.17761 1.68421 6.17761Z" fill="rgb(255,255,255)" fill-rule="evenodd" transform="matrix(0.960879,-0.276969,0.276969,0.960879,428.706,307.549)" />
					<path id="Vector" d="M1.68421 6.17761C2.61437 6.17761 3.36842 4.7947 3.36842 3.0888C3.36842 1.3829 2.61437 0 1.68421 0C0.754047 0 0 1.3829 0 3.0888C0 4.7947 0.754047 6.17761 1.68421 6.17761Z" fill="rgb(255,255,255)" fill-rule="evenodd" transform="matrix(0.960879,-0.276969,0.276969,0.960879,433.751,305.838)" />
				</g>
			</g>
		</g>
		<g id="Group">
			<g id="Group">
				<path id="Vector" d="M64 11.1892C64 5.02703 59.8232 0 54.7032 0C50.1895 0 46.4842 3.72973 45.6084 8.83784L18.3916 8.83784C17.5158 3.72973 13.8105 0 9.29684 0C4.17684 0 0 5.02703 0 11.1892C0 13.8649 0.741053 16.3784 2.15579 18.3243C0.741053 20.3513 0 22.7838 0 25.4595C0 31.6216 4.17684 36.6486 9.29684 36.6486C13.8105 36.6486 17.5158 32.9189 18.3916 27.8108L45.541 27.8108C46.4168 32.9189 50.1221 36.6486 54.6358 36.6486C59.7558 36.6486 63.9326 31.6216 63.9326 25.4595C63.9326 22.7838 63.1916 20.2703 61.7768 18.3243C63.2589 16.2973 64 13.8649 64 11.1892ZM58.1389 20.027C59.5537 21.3243 60.3621 23.3513 60.3621 25.4595C60.3621 29.2703 57.8021 32.3513 54.6358 32.3513C51.5368 32.3513 48.9768 29.4324 48.9095 25.6216C48.9095 24.4054 48.1011 23.5135 47.0905 23.5135L16.8421 23.5135C15.8316 23.5135 15.0905 24.4865 15.0232 25.6216C14.9558 29.3513 12.4632 32.3513 9.29684 32.3513C6.13053 32.3513 3.57053 29.2703 3.57053 25.4595C3.57053 23.3513 4.37895 21.3243 5.79368 20.027C6.26526 19.6216 6.46737 18.973 6.46737 18.3243C6.46737 17.6757 6.19789 17.027 5.79368 16.6216C4.37895 15.3243 3.57053 13.2973 3.57053 11.1892C3.57053 7.37838 6.13053 4.2973 9.29684 4.2973C12.3958 4.2973 14.9558 7.21622 15.0232 11.027C15.0232 12.2432 15.8316 13.1351 16.8421 13.1351L47.2253 13.1351C48.2358 13.1351 48.9768 12.1622 49.0442 11.027C49.1116 7.2973 51.6042 4.2973 54.7705 4.2973C57.9368 4.2973 60.4968 7.37838 60.4968 11.1892C60.4968 13.2973 59.6884 15.3243 58.2737 16.6216C57.8021 17.027 57.6 17.6757 57.6 18.3243C57.4653 18.973 57.7347 19.6216 58.1389 20.027Z" fill="rgb(255,255,255)" fill-rule="nonzero" transform="matrix(0.921775,-0.387726,0.387726,0.921775,1018.36,211.997)" />
				<path id="Vector" d="M1.81895 10.1351C2.82947 10.1351 3.6379 9.16216 3.6379 7.94594L3.6379 2.18919C3.6379 0.972972 2.82947 0 1.81895 0C0.808421 0 0 0.972972 0 2.18919L0 7.94594C0 9.16216 0.808421 10.1351 1.81895 10.1351Z" fill="rgb(255,255,255)" fill-rule="nonzero" transform="matrix(0.921775,-0.387726,0.387726,0.921775,1042.82,192.298)" />
				<path id="Vector" d="M1.09923 9.2704C1.36871 9.43256 1.57081 9.51365 1.84029 9.51365C2.51397 9.51365 3.18765 9.02716 3.45713 8.29743L5.47818 3.10824C5.88239 2.05418 5.47818 0.756888 4.60239 0.189321C3.7266 -0.297166 2.64871 0.18932 2.17713 1.24337L0.156077 6.43256C-0.248133 7.48662 0.156076 8.78391 1.09923 9.2704Z" fill="rgb(255,255,255)" fill-rule="nonzero" transform="matrix(0.921775,-0.387726,0.387726,0.921775,1050.6,191.901)" />
				<path id="Vector" d="M2.24572 8.37851C2.58257 9.18932 3.18888 9.59473 3.86257 9.59473C4.13204 9.59473 4.40151 9.51364 4.60362 9.35148C5.47941 8.865 5.88362 7.5677 5.47941 6.43256L3.45836 1.24337C3.05415 0.18932 1.97625 -0.297166 1.03309 0.189321C0.157304 0.675807 -0.246909 1.9731 0.157302 3.10824L2.24572 8.37851Z" fill="rgb(255,255,255)" fill-rule="nonzero" transform="matrix(0.921775,-0.387726,0.387726,0.921775,1035.13,198.23)" />
				<path id="Vector" d="M1.81895 0C0.808421 0 0 0.97297 0 2.18919L0 7.94594C0 9.16216 0.808421 10.1351 1.81895 10.1351C2.82947 10.1351 3.6379 9.16216 3.6379 7.94594L3.6379 2.18919C3.6379 0.97297 2.82947 0 1.81895 0Z" fill="rgb(255,255,255)" fill-rule="nonzero" transform="matrix(0.921775,-0.387726,0.387726,0.921775,1059.83,232.732)" />
				<path id="Vector" d="M4.60362 0.18932C3.72783 -0.297166 2.64993 0.189323 2.17835 1.24338L0.157302 6.43257C-0.246909 7.48662 0.157304 8.78392 1.03309 9.35148C1.30257 9.51365 1.50467 9.59472 1.77415 9.59472C2.44783 9.59472 3.12151 9.10824 3.39099 8.37851L5.41204 3.18932C5.95099 1.97311 5.54678 0.675807 4.60362 0.18932Z" fill="rgb(255,255,255)" fill-rule="nonzero" transform="matrix(0.921775,-0.387726,0.387726,0.921775,1050.41,234.552)" />
				<path id="Vector" d="M3.45835 1.24338C3.05414 0.189323 1.97625 -0.297166 1.03309 0.18932C0.157302 0.675807 -0.246908 1.9731 0.157302 3.10824L2.17835 8.29743C2.5152 9.10824 3.12151 9.51364 3.7952 9.51364C4.06467 9.51364 4.33414 9.43257 4.53625 9.2704C5.41204 8.78392 5.81625 7.48662 5.41204 6.35148L3.45835 1.24338Z" fill="rgb(255,255,255)" fill-rule="nonzero" transform="matrix(0.921775,-0.387726,0.387726,0.921775,1065.81,228.074)" />
			</g>
		</g>
		<g id="Group">
			<g id="Group">
				<path id="Vector" d="M64 11.1892C64 5.02703 59.8232 0 54.7032 0C50.1895 0 46.4842 3.72973 45.6084 8.83784L18.3916 8.83784C17.5158 3.72973 13.8105 0 9.29684 0C4.17684 0 0 5.02703 0 11.1892C0 13.8649 0.741053 16.3784 2.15579 18.3243C0.741053 20.3513 0 22.7838 0 25.4595C0 31.6216 4.17684 36.6486 9.29684 36.6486C13.8105 36.6486 17.5158 32.9189 18.3916 27.8108L45.541 27.8108C46.4168 32.9189 50.1221 36.6486 54.6358 36.6486C59.7558 36.6486 63.9326 31.6216 63.9326 25.4595C63.9326 22.7838 63.1916 20.2703 61.7768 18.3243C63.2589 16.2973 64 13.8649 64 11.1892ZM58.1389 20.027C59.5537 21.3243 60.3621 23.3513 60.3621 25.4595C60.3621 29.2703 57.8021 32.3513 54.6358 32.3513C51.5368 32.3513 48.9768 29.4324 48.9095 25.6216C48.9095 24.4054 48.1011 23.5135 47.0905 23.5135L16.8421 23.5135C15.8316 23.5135 15.0905 24.4865 15.0232 25.6216C14.9558 29.3513 12.4632 32.3513 9.29684 32.3513C6.13053 32.3513 3.57053 29.2703 3.57053 25.4595C3.57053 23.3513 4.37895 21.3243 5.79368 20.027C6.26526 19.6216 6.46737 18.973 6.46737 18.3243C6.46737 17.6757 6.19789 17.027 5.79368 16.6216C4.37895 15.3243 3.57053 13.2973 3.57053 11.1892C3.57053 7.37838 6.13053 4.2973 9.29684 4.2973C12.3958 4.2973 14.9558 7.21622 15.0232 11.027C15.0232 12.2432 15.8316 13.1351 16.8421 13.1351L47.2253 13.1351C48.2358 13.1351 48.9768 12.1622 49.0442 11.027C49.1116 7.2973 51.6042 4.2973 54.7705 4.2973C57.9368 4.2973 60.4968 7.37838 60.4968 11.1892C60.4968 13.2973 59.6884 15.3243 58.2737 16.6216C57.8021 17.027 57.6 17.6757 57.6 18.3243C57.4653 18.973 57.7347 19.6216 58.1389 20.027Z" fill="rgb(255,255,255)" fill-rule="nonzero" transform="matrix(0.921775,-0.387726,0.387726,0.921775,1786.36,213.997)" />
				<path id="Vector" d="M1.81895 10.1351C2.82947 10.1351 3.6379 9.16216 3.6379 7.94594L3.6379 2.18919C3.6379 0.972972 2.82947 0 1.81895 0C0.808421 0 0 0.972972 0 2.18919L0 7.94594C0 9.16216 0.808421 10.1351 1.81895 10.1351Z" fill="rgb(255,255,255)" fill-rule="nonzero" transform="matrix(0.921775,-0.387726,0.387726,0.921775,1810.82,194.298)" />
				<path id="Vector" d="M1.09923 9.2704C1.36871 9.43256 1.57081 9.51365 1.84029 9.51365C2.51397 9.51365 3.18765 9.02716 3.45713 8.29743L5.47818 3.10824C5.88239 2.05418 5.47818 0.756888 4.60239 0.189321C3.7266 -0.297166 2.64871 0.18932 2.17713 1.24337L0.156077 6.43256C-0.248133 7.48662 0.156076 8.78391 1.09923 9.2704Z" fill="rgb(255,255,255)" fill-rule="nonzero" transform="matrix(0.921775,-0.387726,0.387726,0.921775,1818.6,193.901)" />
				<path id="Vector" d="M2.24572 8.37851C2.58257 9.18932 3.18888 9.59473 3.86257 9.59473C4.13204 9.59473 4.40151 9.51364 4.60362 9.35148C5.47941 8.865 5.88362 7.5677 5.47941 6.43256L3.45836 1.24337C3.05415 0.18932 1.97625 -0.297166 1.03309 0.189321C0.157304 0.675807 -0.246909 1.9731 0.157302 3.10824L2.24572 8.37851Z" fill="rgb(255,255,255)" fill-rule="nonzero" transform="matrix(0.921775,-0.387726,0.387726,0.921775,1803.13,200.23)" />
				<path id="Vector" d="M1.81895 0C0.808421 0 0 0.97297 0 2.18919L0 7.94594C0 9.16216 0.808421 10.1351 1.81895 10.1351C2.82947 10.1351 3.6379 9.16216 3.6379 7.94594L3.6379 2.18919C3.6379 0.97297 2.82947 0 1.81895 0Z" fill="rgb(255,255,255)" fill-rule="nonzero" transform="matrix(0.921775,-0.387726,0.387726,0.921775,1827.83,234.732)" />
				<path id="Vector" d="M4.60362 0.18932C3.72783 -0.297166 2.64993 0.189323 2.17835 1.24338L0.157302 6.43257C-0.246909 7.48662 0.157304 8.78392 1.03309 9.35148C1.30257 9.51365 1.50467 9.59472 1.77415 9.59472C2.44783 9.59472 3.12151 9.10824 3.39099 8.37851L5.41204 3.18932C5.95099 1.97311 5.54678 0.675807 4.60362 0.18932Z" fill="rgb(255,255,255)" fill-rule="nonzero" transform="matrix(0.921775,-0.387726,0.387726,0.921775,1818.41,236.552)" />
				<path id="Vector" d="M3.45835 1.24338C3.05414 0.189323 1.97625 -0.297166 1.03309 0.18932C0.157302 0.675807 -0.246908 1.9731 0.157302 3.10824L2.17835 8.29743C2.5152 9.10824 3.12151 9.51364 3.7952 9.51364C4.06467 9.51364 4.33414 9.43257 4.53625 9.2704C5.41204 8.78392 5.81625 7.48662 5.41204 6.35148L3.45835 1.24338Z" fill="rgb(255,255,255)" fill-rule="nonzero" transform="matrix(0.921775,-0.387726,0.387726,0.921775,1833.81,230.074)" />
			</g>
		</g>
	</g>
</svg>
