<svg width="32" height="32" viewBox="0 0 32 32" fill="none" xmlns="http://www.w3.org/2000/svg">
<path d="M11.3837 9.71427C11.3837 8.58911 11.83 7.51004 12.6242 6.71443C13.4185 5.91882 14.4958 5.47185 15.619 5.47185C16.7423 5.47185 17.8196 5.91882 18.6138 6.71443C19.4081 7.51004 19.8543 8.58911 19.8543 9.71427C19.8543 10.8394 19.4081 11.9185 18.6138 12.7141C17.8196 13.5097 16.7423 13.9567 15.619 13.9567C14.4958 13.9567 13.4185 13.5097 12.6242 12.7141C11.83 11.9185 11.3837 10.8394 11.3837 9.71427ZM15.619 3.04761C13.8539 3.04761 12.1611 3.74999 10.9129 5.00023C9.66478 6.25047 8.96358 7.94616 8.96358 9.71427C8.96358 11.4824 9.66478 13.1781 10.9129 14.4283C12.1611 15.6786 13.8539 16.3809 15.619 16.3809C17.3842 16.3809 19.077 15.6786 20.3252 14.4283C21.5733 13.1781 22.2745 11.4824 22.2745 9.71427C22.2745 7.94616 21.5733 6.25047 20.3252 5.00023C19.077 3.74999 17.3842 3.04761 15.619 3.04761ZM5.33333 22.4415C5.33333 21.4771 5.7158 20.5522 6.3966 19.8702C7.07741 19.1883 8.00078 18.8052 8.96358 18.8052H22.2745C23.2373 18.8052 24.1607 19.1883 24.8415 19.8702C25.5223 20.5522 25.9048 21.4771 25.9048 22.4415V22.7155C25.9024 22.8286 25.8943 22.9414 25.8806 23.0537C25.8564 23.2634 25.8116 23.5482 25.7232 23.8852C25.4908 24.7741 25.0794 25.6061 24.5144 26.33C23.0986 28.1506 20.4352 29.7143 15.619 29.7143C10.8029 29.7143 8.14072 28.1506 6.72371 26.33C6.15825 25.6062 5.74646 24.7742 5.51363 23.8852C5.4212 23.5286 5.36206 23.1642 5.33696 22.7967C5.33579 22.7696 5.33498 22.7426 5.33454 22.7155V22.6876L5.33333 22.6779V22.4415ZM7.7535 22.6573V22.6719C7.77027 22.8757 7.80468 23.0776 7.85635 23.2755C7.96526 23.6973 8.18671 24.267 8.63202 24.8403C9.48513 25.9361 11.3595 27.29 15.619 27.29C19.8785 27.29 21.7542 25.9361 22.6061 24.8415C22.9679 24.3777 23.2314 23.8448 23.3805 23.2755C23.4326 23.0777 23.4674 22.8757 23.4846 22.6719L23.4858 22.6573V22.4415C23.4858 22.1201 23.3583 21.8118 23.1314 21.5844C22.9044 21.3571 22.5966 21.2294 22.2757 21.2294H8.96358C8.64265 21.2294 8.33486 21.3571 8.10792 21.5844C7.88099 21.8118 7.7535 22.1201 7.7535 22.4415V22.6573Z" fill="#FF9F0E"/>
</svg>
