<svg width="248" height="248" viewBox="0 0 248 248" fill="none" xmlns="http://www.w3.org/2000/svg">
<g filter="url(#filter0_d_127_315)">
<rect x="4" width="240" height="240" rx="16" fill="url(#paint0_linear_127_315)"/>
<rect x="4.5" y="0.5" width="239" height="239" rx="15.5" stroke="#F9F9FF"/>
<path d="M144.316 91.7568C143.718 90.3668 142.67 88.668 140.575 87.278C139.378 86.5058 134.739 85.8881 134.589 90.2124C134.589 90.2124 132.644 90.5213 132.794 91.9112C132.794 91.9112 131.597 96.0811 137.283 95.6178C137.283 95.6178 138.33 103.494 139.228 105.193C139.228 105.193 139.677 106.737 139.827 108.282H142.221L142.371 105.193C142.371 105.193 143.718 106.12 144.765 108.282H148.207C148.057 107.046 147.908 105.965 147.608 105.193C147.608 105.193 152.696 105.193 154.492 102.876C154.492 102.876 155.988 105.811 157.784 105.965V108.436H160.178C160.328 107.973 160.328 107.51 160.477 106.737C160.477 106.737 161.375 107.201 161.824 108.436H163.919C163.62 107.355 160.926 97.3166 160.029 96.5444C160.029 96.5444 161.375 96.39 161.824 98.0888C161.824 98.0888 162.572 101.641 164.069 101.487C164.069 101.487 165.116 99.1699 163.321 96.2356C163.321 96.2356 162.572 94.0734 158.682 94.3823L147.459 94.0734C145.962 93.7645 144.915 92.8379 144.316 91.7568Z" fill="#181817"/>
<path d="M130.699 79.8647C131.597 78.6292 131.447 76.7759 130.25 75.6948C129.053 74.7682 127.257 74.9226 126.21 76.1581C123.366 79.8647 118.279 80.4824 114.687 78.938L112.742 84.4979C118.877 86.9689 126.359 85.7334 130.699 79.8647Z" fill="#181817"/>
<path d="M105.26 70.1351C109.309 70.1351 112.592 66.747 112.592 62.5676C112.592 58.3881 109.309 55 105.26 55C101.21 55 97.9273 58.3881 97.9273 62.5676C97.9273 66.747 101.21 70.1351 105.26 70.1351Z" fill="#181817"/>
<path d="M109.599 109.981L103.314 107.355L107.055 96.3899C98.6755 91.6023 95.6827 84.0347 95.533 83.5714C94.6352 81.2548 95.6827 78.7837 97.9273 77.8571C100.172 76.9304 102.566 78.0115 103.464 80.3281C103.614 80.637 105.409 84.6525 110.048 87.8957L112.891 79.8648C113.191 78.9382 113.041 78.0115 112.443 77.2393C107.055 71.0617 100.771 68.7451 93.887 70.9073C91.9417 71.525 90.5949 73.0694 90.146 75.0772L84.1603 107.201C84.1603 107.355 84.1603 107.355 84.1603 107.51C84.1603 107.664 84.1603 107.973 84.1603 108.127L84.4596 122.799L81.1675 122.027C78.9228 121.564 76.5286 123.108 76.0796 125.425C75.6307 127.741 77.1271 130.212 79.3718 130.676L87.9013 132.529C89.2481 132.838 90.4452 132.529 91.4927 131.602C92.5402 130.676 93.1388 129.44 92.9891 128.05L92.6899 112.606L103.614 117.085V130.521C103.614 132.992 105.559 135 107.953 135C110.348 135 112.293 132.992 112.293 130.521V114.151C112.443 112.297 111.245 110.753 109.599 109.981Z" fill="#181817"/>
<path d="M121.122 93.1467C106.906 92.0656 102.417 81.4093 102.267 80.9459C101.668 79.4015 100.022 78.7838 98.5259 79.4015C97.0295 80.0193 96.4309 81.7181 97.0295 83.2625C97.3287 83.8803 103.015 97.7799 120.822 99.1699C122.469 99.3243 123.815 98.0888 123.815 96.39C123.815 94.6911 122.768 93.3011 121.122 93.1467Z" fill="#181817"/>
<path d="M146.71 73.0695C143.718 73.6873 141.473 76.4672 141.473 79.7104H154.791C154.791 76.1583 152.247 73.3784 148.955 72.9151C144.466 67.8185 137.283 69.8263 131.597 74.9228C131.896 75.2317 132.195 75.695 132.494 76.1583C136.535 72.2973 142.072 69.6718 146.71 73.0695Z" fill="#181817"/>
<path d="M169.456 109.672H127.407C126.21 109.672 125.162 110.753 125.162 111.988C125.162 113.224 126.21 114.305 127.407 114.305H127.856V118.166C127.856 124.189 132.644 129.131 138.48 129.131H158.682C164.518 129.131 169.306 124.189 169.306 118.166V114.305H169.755C170.952 114.305 172 113.224 172 111.988C171.701 110.598 170.653 109.672 169.456 109.672Z" fill="#181817"/>
<path d="M142.67 82.7992L142.82 81.4092C142.82 80.9459 142.67 80.637 142.221 80.637C141.772 80.637 141.473 80.7915 141.473 81.2548L141.323 82.6448C141.323 83.1081 141.473 83.417 141.922 83.417C142.221 83.417 142.52 83.1081 142.67 82.7992Z" fill="#181817"/>
<path d="M140.874 84.6525L140.725 86.0425C140.725 86.5058 140.874 86.8147 141.323 86.8147C141.772 86.8147 142.072 86.6602 142.072 86.1969L142.221 84.807C142.221 84.3436 142.072 84.0348 141.623 84.0348C141.323 84.0348 141.024 84.3436 140.874 84.6525Z" fill="#181817"/>
<path d="M145.962 83.417C146.411 83.417 146.71 83.1081 146.71 82.6448V81.1003C146.71 80.637 146.411 80.3281 145.962 80.3281C145.513 80.3281 145.214 80.637 145.214 81.1003V82.6448C145.214 82.9536 145.663 83.417 145.962 83.417Z" fill="#181817"/>
<path d="M145.064 86.1968C145.064 86.6601 145.364 86.969 145.813 86.969C146.261 86.969 146.561 86.6601 146.561 86.1968V84.6524C146.561 84.1891 146.261 83.8802 145.813 83.8802C145.364 83.8802 145.064 84.1891 145.064 84.6524V86.1968Z" fill="#181817"/>
<path d="M150.003 80.4827C149.554 80.4827 149.254 80.7916 149.254 81.2549V82.7993C149.254 83.2626 149.554 83.5715 150.003 83.5715C150.452 83.5715 150.751 83.2626 150.751 82.7993V81.2549C150.751 80.7916 150.452 80.4827 150.003 80.4827Z" fill="#181817"/>
<path d="M149.554 84.807V86.3514C149.554 86.8147 149.853 87.1236 150.302 87.1236C150.751 87.1236 151.05 86.8147 151.05 86.3514V84.807C151.05 84.3436 150.751 84.0348 150.302 84.0348C149.703 84.0348 149.404 84.3436 149.554 84.807Z" fill="#181817"/>
<path d="M153.893 80.4827C153.444 80.4827 153.295 80.946 153.295 81.2549L153.444 82.6448C153.444 82.9537 153.744 83.2626 154.192 83.2626C154.641 83.2626 154.941 82.7993 154.941 82.3359L154.641 81.1004C154.641 80.6371 154.192 80.3282 153.893 80.4827Z" fill="#181817"/>
<path d="M153.744 84.9614L153.893 86.3514C153.893 86.6602 154.342 86.9691 154.642 86.9691C155.091 86.9691 155.39 86.5058 155.24 86.1969V84.6525C155.24 84.1892 154.791 84.0348 154.492 84.0348C154.043 84.1892 153.744 84.4981 153.744 84.9614Z" fill="#181817"/>
<path d="M93.4873 181.028H89.4912L89.4697 178.944H92.8965C93.4837 178.944 93.9743 178.862 94.3682 178.697C94.762 178.533 95.0592 178.293 95.2598 177.978C95.4674 177.662 95.5713 177.279 95.5713 176.828C95.5713 176.327 95.4746 175.919 95.2812 175.604C95.0951 175.288 94.8014 175.059 94.4004 174.916C93.9993 174.766 93.4909 174.69 92.875 174.69H90.4473V188H87.4932V172.359H92.875C93.763 172.359 94.5544 172.445 95.249 172.617C95.9508 172.782 96.5452 173.04 97.0322 173.391C97.5192 173.742 97.888 174.182 98.1387 174.712C98.3965 175.242 98.5254 175.872 98.5254 176.603C98.5254 177.247 98.375 177.841 98.0742 178.386C97.7806 178.923 97.3258 179.36 96.71 179.696C96.1012 180.033 95.3278 180.226 94.3896 180.276L93.4873 181.028ZM93.3584 188H88.6211L89.8564 185.68H93.3584C93.9456 185.68 94.429 185.583 94.8086 185.39C95.1953 185.196 95.4818 184.931 95.668 184.595C95.8613 184.251 95.958 183.857 95.958 183.413C95.958 182.926 95.8721 182.504 95.7002 182.146C95.5355 181.787 95.2705 181.512 94.9053 181.318C94.5472 181.125 94.0745 181.028 93.4873 181.028H90.415L90.4365 178.944H94.3467L95.0234 179.75C95.9258 179.757 96.6598 179.936 97.2256 180.287C97.7985 180.638 98.221 181.089 98.4932 181.641C98.7653 182.192 98.9014 182.786 98.9014 183.424C98.9014 184.426 98.6829 185.268 98.2461 185.948C97.8164 186.629 97.1862 187.141 96.3555 187.484C95.5319 187.828 94.5329 188 93.3584 188ZM107.646 185.529V180.169C107.646 179.775 107.577 179.435 107.441 179.148C107.305 178.862 107.098 178.64 106.818 178.482C106.539 178.325 106.185 178.246 105.755 178.246C105.375 178.246 105.042 178.311 104.756 178.439C104.477 178.568 104.262 178.751 104.111 178.987C103.961 179.216 103.886 179.481 103.886 179.782H101.039C101.039 179.302 101.154 178.848 101.383 178.418C101.612 177.981 101.938 177.594 102.36 177.258C102.79 176.914 103.302 176.646 103.896 176.452C104.498 176.259 105.171 176.162 105.916 176.162C106.797 176.162 107.581 176.312 108.269 176.613C108.963 176.907 109.507 177.351 109.901 177.945C110.302 178.54 110.503 179.288 110.503 180.19V185.261C110.503 185.841 110.539 186.339 110.61 186.754C110.689 187.162 110.804 187.517 110.954 187.817V188H108.064C107.928 187.706 107.825 187.334 107.753 186.883C107.681 186.424 107.646 185.973 107.646 185.529ZM108.043 180.921L108.064 182.607H106.271C105.826 182.607 105.436 182.654 105.1 182.747C104.763 182.833 104.487 182.962 104.272 183.134C104.058 183.299 103.896 183.499 103.789 183.735C103.682 183.965 103.628 184.226 103.628 184.52C103.628 184.806 103.692 185.064 103.821 185.293C103.957 185.522 104.151 185.705 104.401 185.841C104.659 185.97 104.96 186.034 105.304 186.034C105.805 186.034 106.242 185.934 106.614 185.733C106.987 185.526 107.277 185.275 107.484 184.981C107.692 184.688 107.803 184.409 107.817 184.144L108.634 185.368C108.534 185.662 108.383 185.973 108.183 186.303C107.982 186.632 107.724 186.94 107.409 187.227C107.094 187.513 106.715 187.749 106.271 187.936C105.826 188.122 105.311 188.215 104.724 188.215C103.972 188.215 103.299 188.064 102.704 187.764C102.11 187.463 101.641 187.051 101.297 186.528C100.953 186.006 100.781 185.411 100.781 184.745C100.781 184.129 100.896 183.585 101.125 183.112C101.354 182.64 101.694 182.242 102.146 181.92C102.597 181.59 103.155 181.343 103.821 181.179C104.494 181.007 105.264 180.921 106.131 180.921H108.043ZM118.56 176.377V178.418H111.899V176.377H118.56ZM113.683 173.52H116.529V184.648C116.529 184.992 116.576 185.257 116.669 185.443C116.762 185.63 116.902 185.755 117.088 185.819C117.274 185.884 117.496 185.916 117.754 185.916C117.94 185.916 118.112 185.905 118.27 185.884C118.427 185.862 118.56 185.841 118.667 185.819L118.678 187.946C118.441 188.025 118.173 188.09 117.872 188.14C117.578 188.19 117.245 188.215 116.873 188.215C116.236 188.215 115.677 188.107 115.197 187.893C114.717 187.671 114.345 187.316 114.08 186.829C113.815 186.335 113.683 185.683 113.683 184.874V173.52ZM123.232 171.5V188H120.386V171.5H123.232ZM122.781 181.77H121.943C121.943 180.96 122.051 180.215 122.266 179.535C122.48 178.855 122.785 178.264 123.179 177.763C123.573 177.254 124.042 176.86 124.586 176.581C125.137 176.302 125.746 176.162 126.412 176.162C126.985 176.162 127.504 176.244 127.97 176.409C128.442 176.567 128.847 176.821 129.184 177.172C129.52 177.523 129.778 177.981 129.957 178.547C130.143 179.105 130.236 179.786 130.236 180.588V188H127.379V180.566C127.379 180.029 127.3 179.607 127.143 179.299C126.985 178.984 126.759 178.758 126.466 178.622C126.179 178.486 125.825 178.418 125.402 178.418C124.944 178.418 124.55 178.507 124.221 178.687C123.891 178.858 123.619 179.098 123.404 179.406C123.197 179.714 123.039 180.069 122.932 180.47C122.831 180.871 122.781 181.304 122.781 181.77ZM135.747 176.377V188H132.9V176.377H135.747ZM132.707 173.337C132.707 172.914 132.85 172.563 133.137 172.284C133.43 172.005 133.824 171.865 134.318 171.865C134.812 171.865 135.203 172.005 135.489 172.284C135.783 172.563 135.93 172.914 135.93 173.337C135.93 173.752 135.783 174.1 135.489 174.379C135.203 174.658 134.812 174.798 134.318 174.798C133.824 174.798 133.43 174.658 133.137 174.379C132.85 174.1 132.707 173.752 132.707 173.337ZM141.236 178.858V188H138.4V176.377H141.064L141.236 178.858ZM140.785 181.77H139.947C139.954 180.924 140.069 180.158 140.291 179.471C140.513 178.783 140.825 178.192 141.226 177.698C141.634 177.204 142.117 176.825 142.676 176.56C143.234 176.295 143.857 176.162 144.545 176.162C145.104 176.162 145.608 176.241 146.06 176.398C146.511 176.556 146.897 176.807 147.22 177.15C147.549 177.494 147.8 177.945 147.972 178.504C148.151 179.055 148.24 179.736 148.24 180.545V188H145.383V180.523C145.383 179.993 145.304 179.575 145.146 179.267C144.996 178.959 144.774 178.74 144.48 178.611C144.194 178.482 143.84 178.418 143.417 178.418C142.98 178.418 142.597 178.507 142.268 178.687C141.945 178.858 141.673 179.098 141.451 179.406C141.236 179.714 141.072 180.069 140.957 180.47C140.842 180.871 140.785 181.304 140.785 181.77ZM158.134 176.377H160.712V187.646C160.712 188.698 160.483 189.59 160.024 190.32C159.573 191.058 158.939 191.617 158.123 191.996C157.307 192.383 156.358 192.576 155.276 192.576C154.811 192.576 154.306 192.512 153.762 192.383C153.225 192.254 152.705 192.05 152.204 191.771C151.71 191.498 151.298 191.144 150.969 190.707L152.247 189.031C152.634 189.482 153.071 189.823 153.558 190.052C154.045 190.288 154.571 190.406 155.137 190.406C155.71 190.406 156.197 190.299 156.598 190.084C157.006 189.876 157.317 189.568 157.532 189.16C157.754 188.759 157.865 188.265 157.865 187.678V179.03L158.134 176.377ZM150.281 182.328V182.103C150.281 181.215 150.389 180.409 150.604 179.686C150.818 178.955 151.126 178.328 151.527 177.806C151.936 177.283 152.426 176.878 152.999 176.592C153.579 176.305 154.231 176.162 154.954 176.162C155.72 176.162 156.365 176.302 156.888 176.581C157.418 176.86 157.854 177.258 158.198 177.773C158.549 178.289 158.821 178.901 159.015 179.61C159.215 180.312 159.369 181.086 159.477 181.931V182.543C159.376 183.367 159.215 184.122 158.993 184.81C158.778 185.497 158.492 186.099 158.134 186.614C157.776 187.123 157.332 187.517 156.802 187.796C156.272 188.075 155.649 188.215 154.933 188.215C154.216 188.215 153.572 188.068 152.999 187.774C152.426 187.481 151.936 187.069 151.527 186.539C151.126 186.009 150.818 185.386 150.604 184.67C150.389 183.954 150.281 183.173 150.281 182.328ZM153.117 182.103V182.328C153.117 182.829 153.167 183.299 153.268 183.735C153.368 184.172 153.522 184.559 153.729 184.896C153.937 185.225 154.199 185.483 154.514 185.669C154.829 185.855 155.205 185.948 155.642 185.948C156.229 185.948 156.709 185.826 157.081 185.583C157.461 185.332 157.747 184.992 157.94 184.562C158.141 184.126 158.27 183.635 158.327 183.091V181.404C158.291 180.975 158.213 180.577 158.091 180.212C157.976 179.847 157.815 179.532 157.607 179.267C157.4 179.002 157.135 178.794 156.812 178.644C156.49 178.493 156.107 178.418 155.663 178.418C155.233 178.418 154.857 178.515 154.535 178.708C154.213 178.894 153.948 179.156 153.74 179.492C153.533 179.829 153.375 180.219 153.268 180.663C153.167 181.107 153.117 181.587 153.117 182.103Z" fill="#FF9F0E"/>
</g>
<defs>
<filter id="filter0_d_127_315" x="0" y="0" width="248" height="248" filterUnits="userSpaceOnUse" color-interpolation-filters="sRGB">
<feFlood flood-opacity="0" result="BackgroundImageFix"/>
<feColorMatrix in="SourceAlpha" type="matrix" values="0 0 0 0 0 0 0 0 0 0 0 0 0 0 0 0 0 0 127 0" result="hardAlpha"/>
<feOffset dy="4"/>
<feGaussianBlur stdDeviation="2"/>
<feComposite in2="hardAlpha" operator="out"/>
<feColorMatrix type="matrix" values="0 0 0 0 0.0941176 0 0 0 0 0.0941176 0 0 0 0 0.0901961 0 0 0 0.05 0"/>
<feBlend mode="normal" in2="BackgroundImageFix" result="effect1_dropShadow_127_315"/>
<feBlend mode="normal" in="SourceGraphic" in2="effect1_dropShadow_127_315" result="shape"/>
</filter>
<linearGradient id="paint0_linear_127_315" x1="124" y1="0" x2="124" y2="240" gradientUnits="userSpaceOnUse">
<stop stop-color="white"/>
<stop offset="1" stop-color="#FFFBF4"/>
</linearGradient>
</defs>
</svg>
