<svg width="248" height="248" viewBox="0 0 248 248" fill="none" xmlns="http://www.w3.org/2000/svg">
<g filter="url(#filter0_d_127_279)">
<rect x="4" width="240" height="240" rx="16" fill="url(#paint0_linear_127_279)"/>
<rect x="4.5" y="0.5" width="239" height="239" rx="15.5" stroke="#F9F9FF"/>
<path d="M143.245 104.39C141 103.948 138.779 105.413 137.84 107.953C137.659 108.446 137.535 108.957 137.464 109.473C139.781 108.088 141.806 106.419 143.554 104.451L143.245 104.39Z" fill="#181817"/>
<path d="M145.328 79.7792C149.537 76.4196 150.73 69.5108 147.991 64.348C145.252 59.1852 139.619 57.7235 135.41 61.0831C131.2 64.4427 130.008 71.3515 132.747 76.5143C135.485 81.6771 141.118 83.1389 145.328 79.7792Z" fill="#181817"/>
<path d="M162.02 82.595C158.087 76.6218 152.745 76.5534 149.794 78.9899C146.845 81.4249 147.06 87.6117 149.523 91.7657C149.635 91.9948 149.754 92.2333 149.871 92.4693C150.72 89.3099 150.839 87.0167 150.841 86.985C150.927 84.3046 152.7 82.2122 154.877 82.2122C154.927 82.2122 154.978 82.2132 155.028 82.2157C157.256 82.3159 159.001 84.6199 158.919 87.3524V87.3608L158.917 87.405C158.851 88.9351 158.424 94.4353 155.716 100.972C155.47 101.572 155.179 102.229 154.845 102.925C155.413 104.255 155.959 105.614 156.456 106.993L153.008 106.314C150.676 110.146 147.109 114.493 141.796 117.899L157.21 133.548C158.153 134.505 159.294 134.972 160.43 134.972C161.883 134.972 163.325 134.206 164.325 132.726C166.104 130.089 165.804 126.182 163.654 124L159.948 120.235L161.147 120.472C161.518 120.545 161.886 120.563 162.247 120.537C163.117 120.588 164.141 120.215 165.401 119.677C168.899 118.182 172.865 115.545 171.834 107.512C169.753 96.7195 167.387 90.8475 162.02 82.595Z" fill="#181817"/>
<path d="M154.996 100.521C157.906 93.4957 158.094 87.6807 158.112 87.3152C158.177 85.1257 156.785 83.2862 155 83.2064C153.217 83.125 151.719 84.8292 151.65 87.0138L151.649 87.0133C151.644 87.2657 151.374 92.0479 149.012 97.437C146.625 102.834 142.334 108.898 133.646 112.446C131.95 113.132 131.028 115.374 131.589 117.455C132.037 119.122 133.302 120.179 134.66 120.179C134.995 120.179 135.337 120.114 135.673 119.979C146.295 115.715 152.113 107.537 154.996 100.521Z" fill="#181817"/>
<path d="M112.402 119.388C113.872 119.73 115.641 120.295 116.109 120.903C117.368 122.533 117.983 125.899 119.616 126.135C120.757 126.299 121.158 126.269 122.571 125.151C123.966 124.044 122.641 119.735 122.308 118.08C121.836 115.73 122.962 113.15 122.979 112.992C122.993 112.862 123.963 110.367 126.767 111.314C127.746 111.647 127.172 109.427 125.639 108.318C123.816 107.001 122.497 107.615 121.164 108.897C118.591 106.482 114.559 106.953 112.267 108.005C111.901 109.837 111.759 111.608 111.759 113.238C111.758 115.715 112.081 117.864 112.402 119.388ZM118.937 114.176C119.536 113.675 120.353 113.865 120.762 114.6C121.171 115.335 121.016 116.338 120.417 116.839C119.816 117.34 118.999 117.15 118.59 116.415C118.182 115.68 118.336 114.677 118.937 114.176Z" fill="#181817"/>
<path d="M110.615 107.949C110.018 107.96 109.45 107.938 108.908 107.887C108.718 107.829 108.521 107.793 108.316 107.806C108.303 107.807 108.292 107.812 108.279 107.813C100.033 106.664 97.7883 99.0127 88.1543 106.953C85.2445 105.904 81.7753 103.65 79.1477 98.8386C78.6165 97.8713 77.5473 97.6179 76.761 98.2694C75.9707 98.9195 75.7621 100.23 76.2953 101.198C78.7948 105.728 81.8836 108.381 84.7821 109.936C84.7481 110.023 84.7125 110.127 84.677 110.226C83.934 111.597 83.3523 113.403 82.9739 115.81C82.9209 116.162 80.5618 134.628 84.2671 134.628C87.9724 134.628 88.9899 120.659 91.0588 118.87C91.3502 118.902 96.8468 125.966 101.542 125.078C102.642 124.869 104.131 124.036 105.372 123.15L107.403 133.122C107.631 134.241 108.446 135 109.361 135C109.46 135 109.562 134.991 109.663 134.972C110.695 134.782 111.437 133.669 111.383 132.391L110.855 119.975C110.501 118.318 110.142 115.976 110.141 113.238C110.141 111.592 110.273 109.806 110.615 107.949Z" fill="#181817"/>
<path d="M128.651 132.337H128.141L127.1 128.379H115.434L114.392 132.337H113.881C113.471 132.337 113.137 132.746 113.137 133.251C113.137 133.755 113.471 134.164 113.881 134.164H128.651C129.062 134.164 129.396 133.755 129.396 133.251C129.396 132.746 129.061 132.337 128.651 132.337Z" fill="#181817"/>
<path d="M94.5615 172.359V188H91.5967L84.9473 177.15V188H81.9932V172.359H84.9473L91.6182 183.22V172.359H94.5615ZM104.272 185.239V176.377H107.13V188H104.444L104.272 185.239ZM104.638 182.833L105.519 182.812C105.519 183.592 105.433 184.312 105.261 184.971C105.089 185.63 104.82 186.202 104.455 186.689C104.097 187.169 103.642 187.545 103.091 187.817C102.539 188.082 101.888 188.215 101.136 188.215C100.563 188.215 100.04 188.136 99.5674 187.979C99.0947 187.814 98.6865 187.56 98.3428 187.216C98.0062 186.865 97.7448 186.417 97.5586 185.873C97.3724 185.322 97.2793 184.659 97.2793 183.886V176.377H100.115V183.907C100.115 184.294 100.158 184.616 100.244 184.874C100.337 185.132 100.463 185.343 100.62 185.508C100.785 185.665 100.975 185.78 101.189 185.852C101.411 185.916 101.648 185.948 101.898 185.948C102.586 185.948 103.127 185.812 103.521 185.54C103.922 185.261 104.208 184.888 104.38 184.423C104.552 183.95 104.638 183.42 104.638 182.833ZM115.144 176.377V178.418H108.483V176.377H115.144ZM110.267 173.52H113.113V184.648C113.113 184.992 113.16 185.257 113.253 185.443C113.346 185.63 113.486 185.755 113.672 185.819C113.858 185.884 114.08 185.916 114.338 185.916C114.524 185.916 114.696 185.905 114.854 185.884C115.011 185.862 115.144 185.841 115.251 185.819L115.262 187.946C115.025 188.025 114.757 188.09 114.456 188.14C114.162 188.19 113.829 188.215 113.457 188.215C112.82 188.215 112.261 188.107 111.781 187.893C111.301 187.671 110.929 187.316 110.664 186.829C110.399 186.335 110.267 185.683 110.267 184.874V173.52ZM119.87 178.751V188H117.034V176.377H119.72L119.87 178.751ZM123.404 176.302L123.361 178.944C123.204 178.916 123.025 178.894 122.824 178.88C122.631 178.866 122.448 178.858 122.276 178.858C121.84 178.858 121.456 178.919 121.127 179.041C120.798 179.156 120.522 179.324 120.3 179.546C120.085 179.768 119.92 180.04 119.806 180.362C119.691 180.677 119.627 181.035 119.612 181.437L119 181.361C119 180.624 119.075 179.94 119.226 179.31C119.376 178.679 119.594 178.128 119.881 177.655C120.167 177.183 120.525 176.817 120.955 176.56C121.392 176.295 121.893 176.162 122.459 176.162C122.617 176.162 122.785 176.176 122.964 176.205C123.15 176.227 123.297 176.259 123.404 176.302ZM127.97 176.377V188H125.123V176.377H127.97ZM124.93 173.337C124.93 172.914 125.073 172.563 125.359 172.284C125.653 172.005 126.047 171.865 126.541 171.865C127.035 171.865 127.425 172.005 127.712 172.284C128.006 172.563 128.152 172.914 128.152 173.337C128.152 173.752 128.006 174.1 127.712 174.379C127.425 174.658 127.035 174.798 126.541 174.798C126.047 174.798 125.653 174.658 125.359 174.379C125.073 174.1 124.93 173.752 124.93 173.337ZM136.177 176.377V178.418H129.517V176.377H136.177ZM131.3 173.52H134.146V184.648C134.146 184.992 134.193 185.257 134.286 185.443C134.379 185.63 134.519 185.755 134.705 185.819C134.891 185.884 135.113 185.916 135.371 185.916C135.557 185.916 135.729 185.905 135.887 185.884C136.044 185.862 136.177 185.841 136.284 185.819L136.295 187.946C136.059 188.025 135.79 188.09 135.489 188.14C135.196 188.19 134.863 188.215 134.49 188.215C133.853 188.215 133.294 188.107 132.814 187.893C132.335 187.671 131.962 187.316 131.697 186.829C131.432 186.335 131.3 185.683 131.3 184.874V173.52ZM141.075 176.377V188H138.229V176.377H141.075ZM138.035 173.337C138.035 172.914 138.178 172.563 138.465 172.284C138.758 172.005 139.152 171.865 139.646 171.865C140.141 171.865 140.531 172.005 140.817 172.284C141.111 172.563 141.258 172.914 141.258 173.337C141.258 173.752 141.111 174.1 140.817 174.379C140.531 174.658 140.141 174.798 139.646 174.798C139.152 174.798 138.758 174.658 138.465 174.379C138.178 174.1 138.035 173.752 138.035 173.337ZM143.277 182.307V182.081C143.277 181.229 143.399 180.445 143.643 179.729C143.886 179.005 144.241 178.379 144.706 177.849C145.172 177.319 145.741 176.907 146.414 176.613C147.087 176.312 147.854 176.162 148.713 176.162C149.587 176.162 150.36 176.312 151.033 176.613C151.714 176.907 152.286 177.319 152.752 177.849C153.217 178.379 153.572 179.005 153.815 179.729C154.059 180.445 154.181 181.229 154.181 182.081V182.307C154.181 183.152 154.059 183.936 153.815 184.659C153.572 185.375 153.217 186.002 152.752 186.539C152.286 187.069 151.717 187.481 151.044 187.774C150.371 188.068 149.601 188.215 148.734 188.215C147.875 188.215 147.105 188.068 146.425 187.774C145.744 187.481 145.172 187.069 144.706 186.539C144.241 186.002 143.886 185.375 143.643 184.659C143.399 183.936 143.277 183.152 143.277 182.307ZM146.113 182.081V182.307C146.113 182.815 146.163 183.291 146.264 183.735C146.364 184.179 146.518 184.57 146.726 184.906C146.933 185.243 147.202 185.508 147.531 185.701C147.868 185.887 148.269 185.98 148.734 185.98C149.193 185.98 149.587 185.887 149.916 185.701C150.245 185.508 150.514 185.243 150.722 184.906C150.937 184.57 151.094 184.179 151.194 183.735C151.295 183.291 151.345 182.815 151.345 182.307V182.081C151.345 181.58 151.295 181.111 151.194 180.674C151.094 180.23 150.937 179.84 150.722 179.503C150.514 179.159 150.242 178.891 149.905 178.697C149.576 178.497 149.178 178.396 148.713 178.396C148.255 178.396 147.861 178.497 147.531 178.697C147.202 178.891 146.933 179.159 146.726 179.503C146.518 179.84 146.364 180.23 146.264 180.674C146.163 181.111 146.113 181.58 146.113 182.081ZM159.025 178.858V188H156.189V176.377H158.854L159.025 178.858ZM158.574 181.77H157.736C157.743 180.924 157.858 180.158 158.08 179.471C158.302 178.783 158.614 178.192 159.015 177.698C159.423 177.204 159.906 176.825 160.465 176.56C161.023 176.295 161.646 176.162 162.334 176.162C162.893 176.162 163.397 176.241 163.849 176.398C164.3 176.556 164.687 176.807 165.009 177.15C165.338 177.494 165.589 177.945 165.761 178.504C165.94 179.055 166.029 179.736 166.029 180.545V188H163.172V180.523C163.172 179.993 163.093 179.575 162.936 179.267C162.785 178.959 162.563 178.74 162.27 178.611C161.983 178.482 161.629 178.418 161.206 178.418C160.769 178.418 160.386 178.507 160.057 178.687C159.734 178.858 159.462 179.098 159.24 179.406C159.025 179.714 158.861 180.069 158.746 180.47C158.632 180.871 158.574 181.304 158.574 181.77Z" fill="#FF9F0E"/>
</g>
<defs>
<filter id="filter0_d_127_279" x="0" y="0" width="248" height="248" filterUnits="userSpaceOnUse" color-interpolation-filters="sRGB">
<feFlood flood-opacity="0" result="BackgroundImageFix"/>
<feColorMatrix in="SourceAlpha" type="matrix" values="0 0 0 0 0 0 0 0 0 0 0 0 0 0 0 0 0 0 127 0" result="hardAlpha"/>
<feOffset dy="4"/>
<feGaussianBlur stdDeviation="2"/>
<feComposite in2="hardAlpha" operator="out"/>
<feColorMatrix type="matrix" values="0 0 0 0 0.0941176 0 0 0 0 0.0941176 0 0 0 0 0.0901961 0 0 0 0.05 0"/>
<feBlend mode="normal" in2="BackgroundImageFix" result="effect1_dropShadow_127_279"/>
<feBlend mode="normal" in="SourceGraphic" in2="effect1_dropShadow_127_279" result="shape"/>
</filter>
<linearGradient id="paint0_linear_127_279" x1="124" y1="0" x2="124" y2="240" gradientUnits="userSpaceOnUse">
<stop stop-color="white"/>
<stop offset="1" stop-color="#FFFBF4"/>
</linearGradient>
</defs>
</svg>
