<svg viewBox="0 0 96 96" xmlns="http://www.w3.org/2000/svg" xmlns:xlink="http://www.w3.org/1999/xlink" width="96.000000" height="96.000000" fill="none" customFrame="#000000">
	<rect id="Frame 9" width="96.000000" height="96.000000" x="0.000000" y="0.000000" />
	<path id="Vector" d="M63.3008 28.0883C63.0471 26.975 62.354 26.1388 61.4009 25.7936C61.3327 25.7688 61.2613 25.7661 61.1922 25.7467C61.8752 22.6396 63.8011 11.3443 57.4913 4.73394C53.8341 0.9031 48.1275 -0.613029 40.5386 0.223132C40.3991 0.166762 40.2477 0.133879 40.0905 0.129181C34.1295 -0.0634176 29.5678 1.58013 26.5772 5.00757C20.7183 11.7204 22.8397 23.0477 23.4507 25.7327C23.3608 25.7558 23.2684 25.7615 23.1801 25.7936C22.2264 26.1388 21.534 26.975 21.2796 28.0883C21.053 29.0801 21.1792 30.2257 21.6349 31.3132C22.4694 33.3079 24.1578 34.5821 25.7794 34.5821C25.9528 34.5821 26.1254 34.5669 26.2962 34.537C27.6715 38.6092 29.9657 41.9953 33.7564 44.0737L33.7564 48.2484L31.7872 48.2484L31.7872 60.0228L52.7934 60.0228L52.7934 48.2484L50.8233 48.2484L50.8233 44.0997C54.6209 42.024 56.917 38.6276 58.2914 34.5388C58.4599 34.5678 58.6303 34.5821 58.8017 34.5821C60.4213 34.5821 62.1104 33.3079 62.9461 31.3138C63.4006 30.2257 63.5268 29.0801 63.3008 28.0883ZM23.4414 30.6585C23.1265 29.9057 23.0299 29.1053 23.1763 28.463C23.2925 27.9556 23.55 27.5951 23.8833 27.4741C23.9735 27.4418 24.072 27.426 24.1768 27.426C24.366 27.426 24.5756 27.4791 24.7919 27.5783C25.014 29.3753 25.3296 31.1178 25.7689 32.7726C25.0269 32.7588 23.9881 31.9648 23.4414 30.6585ZM51.9358 50.0522C50.0078 51.9378 46.4148 53.2089 42.2903 53.2089C38.1657 53.2089 34.5727 51.9378 32.6447 50.0522L34.7259 50.0522C35.2612 50.0522 35.6955 49.6482 35.6955 49.1503L35.6955 44.9742C37.5847 45.6972 39.7805 46.1487 42.3394 46.269C44.857 46.1499 47.0197 45.705 48.8849 44.995L48.8849 49.1503C48.8849 49.6482 49.3192 50.0522 49.8545 50.0522L51.9358 50.0522ZM57.8877 26.6232C57.8239 27.1777 57.7596 27.7318 57.6805 28.2648C57.4787 29.6235 57.2207 30.9063 56.9063 32.1175C56.7876 32.5745 56.6539 33.0134 56.5174 33.4484C55.3289 37.2369 53.457 40.1882 50.5662 42.0757C50.1393 42.3544 49.6771 42.597 49.205 42.8293C47.3051 43.7643 45.0522 44.3383 42.3394 44.4675C39.6327 44.3395 37.3802 43.7764 35.4786 42.8577C34.9738 42.6137 34.4846 42.3538 34.0307 42.0578C31.1337 40.1686 29.2574 37.2224 28.0669 33.4418C27.9299 33.0066 27.7957 32.5674 27.6767 32.1101C27.3619 30.9016 27.1035 29.622 26.9015 28.2668C26.822 27.7335 26.7573 27.1794 26.6933 26.6246C26.5222 25.1402 26.4002 23.5846 26.3259 21.9552C26.5528 20.6323 26.8851 19.5342 27.281 18.6345C27.8775 18.5406 29.1645 18.2816 30.68 17.6322C30.9186 17.9393 31.3251 18.1342 31.7379 18.1049C31.9525 18.0949 34.8093 17.9428 37.8289 16.8407C37.8138 16.9681 37.822 17.099 37.8548 17.2288C37.9842 17.7338 38.4639 18.0943 39.0219 18.1061C39.2813 18.1137 44.4135 18.1724 47.5809 14.8025C48.8029 17.5259 51.5467 21.9868 57.1429 24.7871L57.9772 25.8566C57.9509 26.1171 57.9171 26.3671 57.8877 26.6232ZM61.1383 30.6585C60.5935 31.9624 59.5574 32.7543 58.8172 32.7717C59.2544 31.117 59.5684 29.3745 59.7896 27.5775C60.0056 27.4787 60.2147 27.426 60.4036 27.426C60.5084 27.426 60.6069 27.4418 60.6965 27.4741C61.1535 27.6397 61.3365 28.1647 61.4047 28.463C61.5511 29.1053 61.4539 29.9057 61.1383 30.6585ZM40.0905 33.0066L40.0905 30.4782C40.0905 29.9803 40.5247 29.5763 41.06 29.5763C41.5953 29.5763 42.0295 29.9803 42.0295 30.4782L42.0295 32.8023L43.5204 32.8023C44.0557 32.8023 44.4899 33.2063 44.4899 33.7042C44.4899 34.2022 44.0557 34.6062 43.5204 34.6062L41.8099 34.6062C40.8618 34.6062 40.0905 33.8886 40.0905 33.0066ZM35.4577 27.2067C35.4577 28.1767 34.6123 28.9631 33.5696 28.9631C32.5269 28.9631 31.6816 28.1767 31.6816 27.2067C31.6816 26.2366 32.5269 25.4503 33.5696 25.4503C34.6123 25.4503 35.4577 26.2366 35.4577 27.2067ZM52.8989 27.2067C52.8989 28.1767 52.0536 28.9631 51.011 28.9631C49.9682 28.9631 49.1229 28.1767 49.1229 27.2067C49.1229 26.2366 49.9682 25.4503 51.011 25.4503C52.0536 25.4503 52.8989 26.2366 52.8989 27.2067ZM47.0362 38.5627C47.0362 40.0189 44.5846 40.538 42.2902 40.538C39.9964 40.538 37.5449 40.0189 37.5449 38.5627C37.5449 38.0647 37.9791 37.6607 38.5144 37.6607C38.9468 37.6607 39.3128 37.9238 39.4378 38.2878C39.7623 38.4664 40.7823 38.7341 42.2902 38.7341C43.7988 38.7341 44.8188 38.4664 45.1432 38.2873C45.2682 37.9238 45.6343 37.6607 46.0666 37.6607C46.6019 37.6607 47.0362 38.0647 47.0362 38.5627ZM95.6736 66.6944C95.3945 66.2372 94.9614 65.898 94.4454 65.7029C94.5264 65.2067 94.4464 64.6847 94.16 64.2153C93.8811 63.7582 93.4482 63.4193 92.9317 63.224C93.0125 62.7278 92.9325 62.2057 92.6464 61.7362C92.3598 61.2666 91.9182 60.9361 91.4181 60.7474C91.4993 60.251 91.4199 59.7288 91.134 59.2594C90.8046 58.7204 90.2706 58.334 89.628 58.1696C88.9918 58.0063 88.3176 58.0838 87.7382 58.3892L86.7556 58.9086C86.5684 58.6241 86.321 58.3671 86.0176 58.1539L86.0176 57.1678L91.5115 57.1678C92.0467 57.1678 92.481 56.7638 92.481 56.2653C92.481 55.7674 92.0467 55.3634 91.5115 55.3634L86.0176 55.3634L86.0176 54.4615L91.5115 54.4615C92.0467 54.4615 92.481 54.0575 92.481 53.5595C92.481 53.0616 92.0467 52.6576 91.5115 52.6576L86.0176 52.6576L86.0176 51.7557L91.5115 51.7557C92.0467 51.7557 92.481 51.3517 92.481 50.8538C92.481 50.3558 92.0467 49.9518 91.5115 49.9518L86.0176 49.9518L86.0176 49.0499L91.5115 49.0499C92.0467 49.0499 92.481 48.6459 92.481 48.148C92.481 47.65 92.0467 47.246 91.5115 47.246L86.0176 47.246L86.0239 46.3441L91.5115 46.3441C92.0467 46.3441 92.481 45.9401 92.481 45.4422C92.481 44.9443 92.0467 44.5403 91.5115 44.5403L86.0239 44.5403C84.9332 44.5403 84.0785 45.4645 84.0785 46.6448L84.0785 48.148L84.0785 50.8538L84.0785 50.99C83.9956 49.9653 83.5876 48.9361 82.8679 48.0499C81.0968 45.8673 78.0632 45.2079 76.109 46.5819C75.0904 47.2976 74.5743 48.4274 74.552 49.6524C73.2796 49.3367 71.9702 49.4894 70.9509 50.2055C69.9688 50.8949 69.3931 52.0135 69.3717 53.2736C69.3527 54.4403 69.7946 55.6411 70.6176 56.6558C71.4407 57.6693 72.5617 58.3939 73.7736 58.6957C74.1788 58.7967 74.5841 58.846 74.9805 58.846C75.8641 58.846 76.6998 58.5994 77.3777 58.1226C77.4421 58.0774 77.488 58.0178 77.5484 57.9693L80.5891 61.3621L79.4904 63.5638C79.4064 63.6989 79.3301 63.8367 79.2623 63.9808L72.8697 67.3544L61.9627 50.6893C61.6951 50.2808 61.3694 49.93 61.0193 49.6082C60.4418 48.915 59.6082 48.4214 58.6416 48.2623C57.6999 47.972 56.6961 47.8794 55.7019 48.0343L55.7019 60.1216C55.9388 60.1901 56.1581 60.2902 56.3488 60.4233C56.7063 60.6728 56.968 61.024 57.0734 61.4379L57.3178 62.3905L61.8422 80.0293L61.8422 72.4748L65.4759 78.0272C66.6297 79.79 68.6508 80.7694 70.7262 80.7694C71.7538 80.7694 72.7953 80.5287 73.7509 80.0237L85.3914 73.8793C85.4394 73.854 85.4765 73.8186 85.5236 73.7923C85.6151 73.7975 85.7059 73.8088 85.7979 73.8088C86.5553 73.8088 87.3229 73.6315 88.0273 73.2592L90.2156 72.103L90.3493 72.2521C90.7912 72.7449 91.5707 72.8282 92.1213 72.4415L92.5217 72.1602L92.9438 71.8637L93.3438 71.5827C93.7456 71.3005 93.8984 70.8195 93.7886 70.3551L94.7394 69.8523C95.3176 69.547 95.7329 69.0502 95.9097 68.4525C96.0864 67.8559 96.0018 67.2311 95.6736 66.6944ZM90.0325 62.5287L90.21 62.4349C90.2933 62.3915 90.3867 62.368 90.4801 62.368C90.5293 62.368 90.5786 62.375 90.6278 62.3868C90.7705 62.4232 90.8891 62.5089 90.9611 62.6275C91.1113 62.873 91.0179 63.1877 90.7541 63.3275L90.5773 63.4208L89.2996 64.0962L88.2166 64.6686C88.0891 64.7344 87.9414 64.7508 87.7988 64.7168C87.6574 64.6804 87.5387 64.5946 87.4668 64.476C87.3166 64.2294 87.4087 63.9158 87.6726 63.7761L88.6721 63.2478L90.0325 62.5287ZM86.9199 61.1245L86.9442 61.0762C86.9621 61.0402 86.9682 61.0022 86.9838 60.9658C87.0019 60.9236 87.0148 60.8806 87.0298 60.8379L88.24 60.1982L88.6964 59.957C88.7809 59.9135 88.8731 59.8901 88.9678 59.8901C89.017 59.8901 89.0662 59.8959 89.1142 59.9088C89.2569 59.9452 89.3755 60.031 89.4475 60.1496C89.5411 60.3024 89.5309 60.4782 89.4532 60.6258C89.4061 60.7153 89.34 60.7968 89.2404 60.8495L88.544 61.2176L87.5563 61.7396L86.703 62.1907C86.5975 62.2461 86.4785 62.2581 86.3591 62.2437L86.9199 61.1245ZM75.82 56.2037C75.3516 56.5301 74.7558 56.4509 74.4414 56.3722C73.7926 56.2107 73.1513 55.7856 72.6804 55.206C72.2108 54.6265 71.9469 53.9359 71.957 53.3111C71.9621 53.0093 72.0404 52.4533 72.5087 52.1244C72.7435 51.96 73.0326 51.8819 73.3457 51.8819C74.1056 51.8819 75.012 52.3393 75.647 53.1221C76.5446 54.2278 76.6228 55.6388 75.82 56.2037ZM77.8385 51.5825C76.9422 50.4774 76.8627 49.0658 77.6668 48.5009C77.9016 48.3365 78.1895 48.2584 78.5038 48.2584C79.2638 48.2584 80.1689 48.7164 80.8051 49.4991C81.276 50.0787 81.5399 50.7692 81.5298 51.3934C81.5247 51.6958 81.4464 52.2513 80.9781 52.5801C80.5097 52.9066 79.9139 52.8273 79.5996 52.7486C78.9507 52.5871 78.3094 52.162 77.8385 51.5825ZM80.3349 58.8286C79.8927 58.2838 80.009 57.5086 80.5946 57.0972C81.1802 56.6859 82.0135 56.794 82.4557 57.3388C82.6103 57.5293 82.673 57.7484 82.6949 57.9698C82.3315 58.189 82.0261 58.485 81.8353 58.8648L81.6244 59.2874C81.149 59.3647 80.6458 59.2115 80.3349 58.8286ZM87.956 71.2217L87.0691 71.6903C85.8307 72.3479 84.2439 71.9404 83.537 70.786L81.1409 66.8635C80.7991 66.3037 80.7119 65.6537 80.8958 65.0327L80.9066 65.011L81.2249 64.3731L83.5938 59.6246C83.6619 59.489 83.8482 59.4005 84.0785 59.3802C84.249 59.3652 84.4411 59.3832 84.6403 59.4696C84.8399 59.5562 84.9785 59.6817 85.0757 59.8131C85.0977 59.8428 85.1236 59.8705 85.1402 59.9007C85.2221 60.0502 85.2417 60.2019 85.1856 60.3152L83.2016 64.277L82.806 65.0667C82.7682 65.1423 82.7597 65.2214 82.7456 65.2998C82.6752 65.6895 82.871 66.0896 83.2756 66.2646C83.4082 66.3221 83.5471 66.3492 83.6834 66.3492C83.8217 66.3492 83.954 66.3136 84.0785 66.2617L84.0785 70.5464C84.0785 71.0443 84.5128 71.4483 85.048 71.4483C85.5833 71.4483 86.0176 71.0443 86.0176 70.5464L86.0176 67.4189L88.3565 70.0286L88.9536 70.6949L87.956 71.2217ZM89.7303 67.1466C89.6015 67.2123 89.4513 67.2323 89.3124 67.1947C89.171 67.1583 89.0524 67.0726 88.9804 66.954C88.8302 66.7073 88.9223 66.3938 89.1862 66.254L90.4153 65.6044L91.5459 65.0068L91.7236 64.9129C91.8069 64.8694 91.9003 64.8459 91.9937 64.8459C92.043 64.8459 92.0922 64.853 92.1414 64.8647C92.2828 64.9011 92.4015 64.9869 92.4734 65.1055C92.6237 65.3521 92.5315 65.6657 92.2677 65.8054L92.0908 65.8989L91.0429 66.4527L89.7303 67.1466ZM94.0401 67.9745C94.0009 68.106 93.9088 68.2164 93.7813 68.2834C93.7813 68.2834 93.7813 68.2834 93.78 68.2834L93.3254 68.5239L92.7862 68.8092L91.2451 69.6245C91.1299 69.6865 91.0016 69.6974 90.8798 69.6774C90.7227 69.6517 90.5774 69.5702 90.4927 69.4319C90.3425 69.1853 90.4359 68.8717 90.6998 68.732L92.1586 67.9609L92.5518 67.7531L93.2372 67.3908C93.3205 67.3474 93.4139 67.3239 93.5073 67.3239C93.5221 67.3239 93.5364 67.3284 93.5512 67.3295C93.5856 67.3323 93.6202 67.3345 93.6538 67.3427C93.7964 67.3791 93.9138 67.4648 93.9883 67.5858C94.0603 67.7044 94.0792 67.8418 94.0401 67.9745ZM61.6529 94.0844L61.1131 82.4018C61.1106 82.3713 61.1068 82.3407 61.0979 82.3102L55.8161 61.7162C55.7966 61.639 55.7554 61.5693 55.7019 61.5063C55.5579 61.3364 55.3082 61.2253 55.0284 61.2253L29.552 61.2253C29.2721 61.2253 29.0227 61.337 28.8786 61.5064C28.8252 61.5692 28.7839 61.6385 28.7643 61.715L24.1254 79.8044L23.5395 79.4972L23.4036 79.4259C23.2517 79.3484 23.099 79.285 22.9463 79.2208L27.2628 62.3889L27.4438 61.6833L27.507 61.4367C27.6127 61.0229 27.8746 60.672 28.2322 60.4228C28.4228 60.2899 28.642 60.1899 28.8786 60.1215L28.8786 48.1987L28.8786 48.0783C26.6167 47.3969 24.036 47.9736 22.3697 49.7422L1.52504 71.8394C0.368688 73.0655 -0.169091 74.692 0.0467785 76.3103C0.262648 77.9298 1.2126 79.3848 2.65614 80.3102L14.6135 87.9766C14.9867 88.216 15.3825 88.3961 15.7856 88.5491C16.2751 89.072 16.858 89.5187 17.5151 89.8591L21.7283 92.0426L22.36 92.3701L22.7383 92.5661L22.9604 92.6812C22.9713 92.6868 22.9832 92.6883 22.9941 92.6937L22.9286 94.0857L22.8677 95.3788C22.8595 95.5549 22.9535 95.6853 23.0343 95.7639C23.1883 95.9143 23.42 96 23.6687 96L60.9111 96C61.1598 96 61.3921 95.9143 61.5461 95.7639C61.6269 95.6853 61.7216 95.5549 61.7127 95.3788L61.6529 94.0844ZM15.3085 74.5475L22.7383 66.6713L22.7383 79.1319C22.4943 79.0387 22.25 78.9659 22.0058 78.9045C21.863 78.7939 21.738 78.6698 21.5819 78.5698L15.3085 74.5475ZM29.8582 85.2297C29.7704 85.3765 29.5634 85.4317 29.4094 85.3495C29.4088 85.3495 29.4088 85.3495 29.4088 85.3495L25.0017 83.0653C24.7573 82.9389 24.4696 82.9466 24.2112 83.04C23.9751 83.1253 23.7631 83.2813 23.6384 83.4881C23.5121 83.6972 23.4806 83.9438 23.5506 84.1751C23.6207 84.4053 23.7867 84.6003 24.0114 84.7177L24.0151 84.7196L29.2907 87.4552C29.393 87.508 29.4321 87.5938 29.446 87.6396C29.4605 87.6854 29.4757 87.777 29.4176 87.8733C29.3614 87.9684 29.2699 88.0036 29.22 88.0177C29.1702 88.0306 29.0704 88.0447 28.9694 87.9919L23.8142 85.3188L23.6901 85.2544C23.5834 85.199 23.4665 85.1747 23.3486 85.1656C23.1372 85.1494 22.9275 85.2102 22.7383 85.3138C22.7208 85.3234 22.7025 85.331 22.6856 85.3414C22.5411 85.4303 22.4104 85.5379 22.3255 85.6783C22.1999 85.8874 22.1683 86.1352 22.2384 86.3654C22.2983 86.5624 22.4388 86.7237 22.6161 86.8421C22.6459 86.862 22.6668 86.8912 22.6991 86.9079L22.7383 86.9283L22.7842 86.952L23.253 87.195L27.1061 89.1921C27.209 89.2449 27.2482 89.3307 27.2621 89.3776C27.2766 89.4235 27.2917 89.5139 27.2337 89.6102C27.1768 89.7053 27.086 89.7417 27.0361 89.7546C26.9875 89.7675 26.889 89.7828 26.7855 89.7288L23.2207 87.8816L22.7383 87.6317L22.5832 87.5513L22.3154 87.4125L21.9514 87.2239L21.8855 87.1898C21.5781 87.0312 21.1085 87.0923 20.8087 87.2661C20.5177 87.4352 20.3448 87.7347 20.353 88.0529C20.3576 88.2213 20.4176 88.378 20.5122 88.5149C20.5971 88.6377 20.7089 88.7453 20.8504 88.8186L21.8535 89.3386L22.4852 89.6661L22.7383 89.7973L23.1212 89.9957L24.226 90.5685C24.3276 90.6213 24.3661 90.707 24.3806 90.7529C24.3945 90.7987 24.4097 90.8903 24.3529 90.9854C24.2658 91.131 24.0575 91.1886 23.9041 91.1052L23.0888 90.6826L22.7383 90.5009L22.4534 90.3533L21.8217 90.0258L19.5137 88.8296L18.4594 88.2831C17.5568 87.8157 16.8461 87.0676 16.4585 86.1763C15.9333 84.9714 15.9927 83.6537 16.6163 82.652C17.3756 81.4329 18.8369 80.5322 20.4628 80.5322C21.1218 80.5322 21.8081 80.6845 22.4853 81.0185C22.5048 81.0281 22.5244 81.0343 22.5439 81.0442L22.7383 81.1462L23.0718 81.3211L23.6576 81.6283L24.0054 81.8107L29.7294 84.8128C29.8323 84.8657 29.8714 84.9526 29.8853 84.9984C29.8998 85.0442 29.915 85.1358 29.8582 85.2297ZM53.8282 80.7574C53.8005 82.3418 52.1572 83.0335 51.3193 81.8098L50.4765 80.5807C50.2523 81.31 49.9112 81.9949 49.4697 82.6189C49.4732 82.7158 49.4836 82.8108 49.4836 82.9086C49.4836 86.997 46.2633 90.3117 42.2903 90.3117C38.3172 90.3117 35.0969 86.997 35.0969 82.9086C35.0969 82.8108 35.1073 82.7158 35.1108 82.6189C34.6687 81.9949 34.3275 81.31 34.1034 80.5807L33.2613 81.8098C32.4233 83.0335 30.78 82.3418 30.7516 80.7574C30.7384 80.0174 30.7101 79.2493 30.6575 78.4964C30.4741 75.8521 34.3434 74.6124 36.0871 74.1882C37.6384 73.1512 39.8394 72.6845 42.2903 72.6845C44.7404 72.6845 46.9421 73.1512 48.4934 74.1882C50.2371 74.6124 54.1063 75.8521 53.923 78.4964C53.8704 79.2493 53.842 80.0174 53.8282 80.7574ZM39.3425 86.2484C39.3425 85.1345 40.6623 84.2314 42.2903 84.2314C43.9183 84.2314 45.238 85.1345 45.238 86.2484C45.238 87.3622 43.9183 88.2652 42.2903 88.2652C40.6623 88.2652 39.3425 87.3622 39.3425 86.2484Z" fill="rgb(24.4375,24.2005,23.3582)" fill-rule="nonzero" />
</svg>
