<svg width="248" height="248" viewBox="0 0 248 248" fill="none" xmlns="http://www.w3.org/2000/svg">
<g filter="url(#filter0_d_127_251)">
<rect x="4" width="240" height="240" rx="16" fill="url(#paint0_linear_127_251)"/>
<rect x="4.5" y="0.5" width="239" height="239" rx="15.5" stroke="#F9F9FF"/>
<path d="M139.301 75.0883C139.047 73.975 138.354 73.1388 137.401 72.7936C137.333 72.7688 137.261 72.7661 137.192 72.7467C137.875 69.6396 139.801 58.3443 133.491 51.7339C129.834 47.9031 124.128 46.387 116.539 47.2231C116.399 47.1668 116.248 47.1339 116.09 47.1292C110.129 46.9366 105.568 48.5801 102.577 52.0076C96.7183 58.7204 98.8397 70.0477 99.4507 72.7327C99.3608 72.7558 99.2684 72.7615 99.1801 72.7936C98.2264 73.1388 97.534 73.975 97.2796 75.0883C97.053 76.0801 97.1792 77.2257 97.6349 78.3132C98.4694 80.3079 100.158 81.5821 101.779 81.5821C101.953 81.5821 102.125 81.5669 102.296 81.537C103.672 85.6092 105.966 88.9953 109.756 91.0737V95.2484H107.787V107.023H128.793V95.2484H126.823V91.0997C130.621 89.024 132.917 85.6276 134.291 81.5388C134.46 81.5678 134.63 81.5821 134.802 81.5821C136.421 81.5821 138.11 80.3079 138.946 78.3138C139.401 77.2257 139.527 76.0801 139.301 75.0883ZM99.4414 77.6585C99.1265 76.9057 99.0299 76.1053 99.1763 75.463C99.2925 74.9556 99.55 74.5951 99.8833 74.4741C99.9735 74.4418 100.072 74.426 100.177 74.426C100.366 74.426 100.576 74.4791 100.792 74.5783C101.014 76.3753 101.33 78.1178 101.769 79.7726C101.027 79.7588 99.9881 78.9648 99.4414 77.6585ZM127.936 97.0522C126.008 98.9378 122.415 100.209 118.29 100.209C114.166 100.209 110.573 98.9378 108.645 97.0522H110.726C111.261 97.0522 111.695 96.6483 111.695 96.1503V91.9742C113.585 92.6972 115.78 93.1487 118.339 93.269C120.857 93.1499 123.02 92.705 124.885 91.995V96.1503C124.885 96.6483 125.319 97.0522 125.854 97.0522H127.936ZM133.888 73.6232C133.824 74.1777 133.76 74.7318 133.68 75.2648C133.479 76.6235 133.221 77.9063 132.906 79.1175C132.788 79.5745 132.654 80.0134 132.517 80.4484C131.329 84.2369 129.457 87.1882 126.566 89.0757C126.139 89.3544 125.677 89.597 125.205 89.8293C123.305 90.7643 121.052 91.3383 118.339 91.4675C115.633 91.3395 113.38 90.7764 111.479 89.8577C110.974 89.6137 110.485 89.3538 110.031 89.0578C107.134 87.1686 105.257 84.2224 104.067 80.4418C103.93 80.0066 103.796 79.5674 103.677 79.1101C103.362 77.9016 103.103 76.622 102.901 75.2668C102.822 74.7335 102.757 74.1794 102.693 73.6246C102.522 72.1402 102.4 70.5846 102.326 68.9552C102.553 67.6323 102.885 66.5342 103.281 65.6345C103.877 65.5406 105.164 65.2816 106.68 64.6322C106.919 64.9393 107.325 65.1342 107.738 65.1049C107.952 65.0949 110.809 64.9428 113.829 63.8407C113.814 63.9681 113.822 64.099 113.855 64.2288C113.984 64.7338 114.464 65.0943 115.022 65.1061C115.281 65.1137 120.414 65.1724 123.581 61.8025C124.803 64.5259 127.547 68.9868 133.143 71.7871L133.977 72.8566C133.951 73.1171 133.917 73.3671 133.888 73.6232ZM137.138 77.6585C136.593 78.9624 135.557 79.7543 134.817 79.7717C135.254 78.117 135.568 76.3745 135.79 74.5775C136.006 74.4787 136.215 74.426 136.404 74.426C136.508 74.426 136.607 74.4418 136.697 74.4741C137.153 74.6397 137.337 75.1647 137.405 75.463C137.551 76.1053 137.454 76.9057 137.138 77.6585ZM116.09 80.0066V77.4782C116.09 76.9803 116.525 76.5763 117.06 76.5763C117.595 76.5763 118.03 76.9803 118.03 77.4782V79.8023H119.52C120.056 79.8023 120.49 80.2063 120.49 80.7042C120.49 81.2022 120.056 81.6062 119.52 81.6062H117.81C116.862 81.6062 116.09 80.8886 116.09 80.0066ZM111.458 74.2067C111.458 75.1767 110.612 75.9631 109.57 75.9631C108.527 75.9631 107.682 75.1767 107.682 74.2067C107.682 73.2366 108.527 72.4503 109.57 72.4503C110.612 72.4503 111.458 73.2366 111.458 74.2067ZM128.899 74.2067C128.899 75.1767 128.054 75.9631 127.011 75.9631C125.968 75.9631 125.123 75.1767 125.123 74.2067C125.123 73.2366 125.968 72.4503 127.011 72.4503C128.054 72.4503 128.899 73.2366 128.899 74.2067ZM123.036 85.5627C123.036 87.0189 120.585 87.538 118.29 87.538C115.996 87.538 113.545 87.0189 113.545 85.5627C113.545 85.0647 113.979 84.6607 114.514 84.6607C114.947 84.6607 115.313 84.9238 115.438 85.2878C115.762 85.4664 116.782 85.7341 118.29 85.7341C119.799 85.7341 120.819 85.4664 121.143 85.2873C121.268 84.9238 121.634 84.6607 122.067 84.6607C122.602 84.6607 123.036 85.0647 123.036 85.5627ZM171.674 113.694C171.395 113.237 170.961 112.898 170.445 112.703C170.526 112.207 170.446 111.685 170.16 111.215C169.881 110.758 169.448 110.419 168.932 110.224C169.012 109.728 168.933 109.206 168.646 108.736C168.36 108.267 167.918 107.936 167.418 107.747C167.499 107.251 167.42 106.729 167.134 106.259C166.805 105.72 166.271 105.334 165.628 105.17C164.992 105.006 164.318 105.084 163.738 105.389L162.756 105.909C162.568 105.624 162.321 105.367 162.018 105.154V104.168H167.511C168.047 104.168 168.481 103.764 168.481 103.265C168.481 102.767 168.047 102.363 167.511 102.363H162.018V101.461H167.511C168.047 101.461 168.481 101.057 168.481 100.56C168.481 100.062 168.047 99.6576 167.511 99.6576H162.018V98.7557H167.511C168.047 98.7557 168.481 98.3517 168.481 97.8538C168.481 97.3558 168.047 96.9518 167.511 96.9518H162.018V96.0499H167.511C168.047 96.0499 168.481 95.6459 168.481 95.148C168.481 94.65 168.047 94.246 167.511 94.246H162.018L162.024 93.3441H167.511C168.047 93.3441 168.481 92.9401 168.481 92.4422C168.481 91.9443 168.047 91.5403 167.511 91.5403H162.024C160.933 91.5403 160.079 92.4645 160.079 93.6448V95.148V97.8538V97.99C159.996 96.9653 159.588 95.9361 158.868 95.0499C157.097 92.8673 154.063 92.2079 152.109 93.5819C151.09 94.2976 150.574 95.4274 150.552 96.6524C149.28 96.3367 147.97 96.4894 146.951 97.2055C145.969 97.8949 145.393 99.0135 145.372 100.274C145.353 101.44 145.795 102.641 146.618 103.656C147.441 104.669 148.562 105.394 149.774 105.696C150.179 105.797 150.584 105.846 150.98 105.846C151.864 105.846 152.7 105.599 153.378 105.123C153.442 105.077 153.488 105.018 153.548 104.969L156.589 108.362L155.49 110.564C155.406 110.699 155.33 110.837 155.262 110.981L148.87 114.354L137.963 97.6893C137.695 97.2808 137.369 96.93 137.019 96.6082C136.442 95.915 135.608 95.4214 134.642 95.2623C133.7 94.972 132.696 94.8794 131.702 95.0344V107.122C131.939 107.19 132.158 107.29 132.349 107.423C132.706 107.673 132.968 108.024 133.073 108.438L133.318 109.391L137.842 127.029V119.475L141.476 125.027C142.63 126.79 144.651 127.769 146.726 127.769C147.754 127.769 148.795 127.529 149.751 127.024L161.391 120.879C161.439 120.854 161.477 120.819 161.524 120.792C161.615 120.797 161.706 120.809 161.798 120.809C162.555 120.809 163.323 120.632 164.027 120.259L166.216 119.103L166.349 119.252C166.791 119.745 167.571 119.828 168.121 119.441L168.522 119.16L168.944 118.864L169.344 118.583C169.746 118.301 169.898 117.82 169.789 117.355L170.739 116.852C171.318 116.547 171.733 116.05 171.91 115.452C172.086 114.856 172.002 114.231 171.674 113.694ZM166.033 109.529L166.21 109.435C166.293 109.391 166.387 109.368 166.48 109.368C166.529 109.368 166.579 109.375 166.628 109.387C166.77 109.423 166.889 109.509 166.961 109.628C167.111 109.873 167.018 110.188 166.754 110.327L166.577 110.421L165.3 111.096L164.217 111.669C164.089 111.734 163.941 111.751 163.799 111.717C163.657 111.68 163.539 111.595 163.467 111.476C163.317 111.229 163.409 110.916 163.673 110.776L164.672 110.248L166.033 109.529ZM162.92 108.124L162.944 108.076C162.962 108.04 162.968 108.002 162.984 107.966C163.002 107.924 163.015 107.881 163.03 107.838L164.24 107.198L164.696 106.957C164.781 106.914 164.873 106.89 164.968 106.89C165.017 106.89 165.066 106.896 165.114 106.909C165.257 106.945 165.376 107.031 165.447 107.15C165.541 107.302 165.531 107.478 165.453 107.626C165.406 107.715 165.34 107.797 165.24 107.85L164.544 108.218L163.556 108.74L162.703 109.191C162.597 109.246 162.478 109.258 162.359 109.244L162.92 108.124ZM151.82 103.204C151.352 103.53 150.756 103.451 150.441 103.372C149.793 103.211 149.151 102.786 148.68 102.206C148.211 101.626 147.947 100.936 147.957 100.311C147.962 100.009 148.04 99.4533 148.509 99.1244C148.744 98.96 149.033 98.8819 149.346 98.8819C150.106 98.8819 151.012 99.3394 151.647 100.122C152.545 101.228 152.623 102.639 151.82 103.204ZM153.839 98.5825C152.942 97.4774 152.863 96.0658 153.667 95.5009C153.902 95.3365 154.189 95.2584 154.504 95.2584C155.264 95.2584 156.169 95.7164 156.805 96.4991C157.276 97.0787 157.54 97.7692 157.53 98.3934C157.525 98.6958 157.446 99.2513 156.978 99.5801C156.51 99.9066 155.914 99.8273 155.6 99.7486C154.951 99.5871 154.309 99.162 153.839 98.5825ZM156.335 105.829C155.893 105.284 156.009 104.509 156.595 104.097C157.18 103.686 158.013 103.794 158.456 104.339C158.61 104.529 158.673 104.748 158.695 104.97C158.331 105.189 158.026 105.485 157.835 105.865L157.624 106.287C157.149 106.365 156.646 106.212 156.335 105.829ZM163.956 118.222L163.069 118.69C161.831 119.348 160.244 118.94 159.537 117.786L157.141 113.864C156.799 113.304 156.712 112.654 156.896 112.033L156.907 112.011L157.225 111.373L159.594 106.625C159.662 106.489 159.848 106.4 160.079 106.38C160.249 106.365 160.441 106.383 160.64 106.47C160.84 106.556 160.979 106.682 161.076 106.813C161.098 106.843 161.124 106.87 161.14 106.901C161.222 107.05 161.242 107.202 161.186 107.315L159.202 111.277L158.806 112.067C158.768 112.142 158.76 112.221 158.746 112.3C158.675 112.69 158.871 113.09 159.276 113.265C159.408 113.322 159.547 113.349 159.683 113.349C159.822 113.349 159.954 113.314 160.079 113.262V117.546C160.079 118.044 160.513 118.448 161.048 118.448C161.583 118.448 162.018 118.044 162.018 117.546V114.419L164.357 117.029L164.954 117.695L163.956 118.222ZM165.73 114.147C165.601 114.212 165.451 114.232 165.312 114.195C165.171 114.158 165.052 114.073 164.98 113.954C164.83 113.707 164.922 113.394 165.186 113.254L166.415 112.604L167.546 112.007L167.724 111.913C167.807 111.869 167.9 111.846 167.994 111.846C168.043 111.846 168.092 111.853 168.141 111.865C168.283 111.901 168.401 111.987 168.473 112.105C168.624 112.352 168.532 112.666 168.268 112.805L168.091 112.899L167.043 113.453L165.73 114.147ZM170.04 114.975C170.001 115.106 169.909 115.216 169.781 115.283C169.781 115.283 169.781 115.283 169.78 115.283L169.325 115.524L168.786 115.809L167.245 116.625C167.13 116.687 167.002 116.697 166.88 116.677C166.723 116.652 166.577 116.57 166.493 116.432C166.343 116.185 166.436 115.872 166.7 115.732L168.159 114.961L168.552 114.753L169.237 114.391C169.32 114.347 169.414 114.324 169.507 114.324C169.522 114.324 169.536 114.328 169.551 114.33C169.586 114.332 169.62 114.334 169.654 114.343C169.796 114.379 169.914 114.465 169.988 114.586C170.06 114.704 170.079 114.842 170.04 114.975ZM137.653 141.084L137.113 129.402C137.111 129.371 137.107 129.341 137.098 129.31L131.816 108.716C131.797 108.639 131.755 108.569 131.702 108.506C131.558 108.336 131.308 108.225 131.028 108.225H105.552C105.272 108.225 105.023 108.337 104.879 108.506C104.825 108.569 104.784 108.638 104.764 108.715L100.125 126.804L99.5395 126.497L99.4036 126.426C99.2518 126.348 99.099 126.285 98.9463 126.221L103.263 109.389L103.444 108.683L103.507 108.437C103.613 108.023 103.875 107.672 104.232 107.423C104.423 107.29 104.642 107.19 104.879 107.122V95.1987V95.0783C102.617 94.3969 100.036 94.9736 98.3697 96.7422L77.525 118.839C76.3687 120.065 75.8309 121.692 76.0468 123.31C76.2626 124.93 77.2126 126.385 78.6561 127.31L90.6135 134.977C90.9867 135.216 91.3825 135.396 91.7856 135.549C92.2751 136.072 92.858 136.519 93.5151 136.859L97.7283 139.043L98.36 139.37L98.7383 139.566L98.9605 139.681C98.9713 139.687 98.9832 139.688 98.9941 139.694L98.9286 141.086L98.8677 142.379C98.8595 142.555 98.9535 142.685 99.0343 142.764C99.1883 142.914 99.42 143 99.6687 143H136.911C137.16 143 137.392 142.914 137.546 142.764C137.627 142.685 137.722 142.555 137.713 142.379L137.653 141.084ZM91.3085 121.548L98.7384 113.671V126.132C98.4943 126.039 98.25 125.966 98.0058 125.904C97.863 125.794 97.738 125.67 97.5819 125.57L91.3085 121.548ZM105.858 132.23C105.77 132.377 105.563 132.432 105.409 132.35C105.409 132.35 105.409 132.35 105.409 132.35L101.002 130.065C100.757 129.939 100.47 129.947 100.211 130.04C99.9751 130.125 99.7631 130.281 99.6384 130.488C99.5121 130.697 99.4806 130.944 99.5506 131.175C99.6207 131.405 99.7867 131.6 100.011 131.718L100.015 131.72L105.291 134.455C105.393 134.508 105.432 134.594 105.446 134.64C105.461 134.685 105.476 134.777 105.418 134.873C105.361 134.968 105.27 135.004 105.22 135.018C105.17 135.031 105.07 135.045 104.969 134.992L99.8142 132.319L99.6901 132.254C99.5834 132.199 99.4665 132.175 99.3486 132.166C99.1372 132.149 98.9275 132.21 98.7384 132.314C98.7208 132.323 98.7025 132.331 98.6856 132.341C98.5411 132.43 98.4104 132.538 98.3255 132.678C98.1999 132.887 98.1683 133.135 98.2384 133.365C98.2983 133.562 98.4388 133.724 98.6161 133.842C98.6459 133.862 98.6668 133.891 98.6991 133.908L98.7384 133.928L98.7842 133.952L99.253 134.195L103.106 136.192C103.209 136.245 103.248 136.331 103.262 136.378C103.277 136.423 103.292 136.514 103.234 136.61C103.177 136.705 103.086 136.742 103.036 136.755C102.987 136.768 102.889 136.783 102.786 136.729L99.2207 134.882L98.7384 134.632L98.5832 134.551L98.3154 134.413L97.9514 134.224L97.8855 134.19C97.5781 134.031 97.1085 134.092 96.8087 134.266C96.5177 134.435 96.3448 134.735 96.353 135.053C96.3576 135.221 96.4176 135.378 96.5122 135.515C96.5971 135.638 96.7089 135.745 96.8504 135.819L97.8535 136.339L98.4852 136.666L98.7384 136.797L99.1212 136.996L100.226 137.568C100.328 137.621 100.366 137.707 100.381 137.753C100.395 137.799 100.41 137.89 100.353 137.985C100.266 138.131 100.057 138.189 99.9041 138.105L99.0888 137.683L98.7384 137.501L98.4534 137.353L97.8217 137.026L95.5137 135.83L94.4594 135.283C93.5568 134.816 92.8461 134.068 92.4585 133.176C91.9333 131.971 91.9927 130.654 92.6163 129.652C93.3756 128.433 94.8369 127.532 96.4628 127.532C97.1218 127.532 97.8081 127.684 98.4853 128.019C98.5048 128.028 98.5244 128.034 98.5439 128.044L98.7384 128.146L99.0718 128.321L99.6576 128.628L100.005 128.811L105.729 131.813C105.832 131.866 105.871 131.953 105.885 131.998C105.9 132.044 105.915 132.136 105.858 132.23ZM129.828 127.757C129.801 129.342 128.157 130.033 127.319 128.81L126.476 127.581C126.252 128.31 125.911 128.995 125.47 129.619C125.473 129.716 125.484 129.811 125.484 129.909C125.484 133.997 122.263 137.312 118.29 137.312C114.317 137.312 111.097 133.997 111.097 129.909C111.097 129.811 111.107 129.716 111.111 129.619C110.669 128.995 110.328 128.31 110.103 127.581L109.261 128.81C108.423 130.033 106.78 129.342 106.752 127.757C106.738 127.017 106.71 126.249 106.657 125.496C106.474 122.852 110.343 121.612 112.087 121.188C113.638 120.151 115.839 119.685 118.29 119.685C120.74 119.685 122.942 120.151 124.493 121.188C126.237 121.612 130.106 122.852 129.923 125.496C129.87 126.249 129.842 127.017 129.828 127.757ZM115.343 133.248C115.343 132.134 116.662 131.231 118.29 131.231C119.918 131.231 121.238 132.134 121.238 133.248C121.238 134.362 119.918 135.265 118.29 135.265C116.662 135.265 115.343 134.362 115.343 133.248Z" fill="#181817"/>
<path d="M88.6963 179.911V186.002C88.4671 186.296 88.1055 186.614 87.6113 186.958C87.1243 187.302 86.487 187.599 85.6992 187.85C84.9115 188.093 83.9447 188.215 82.7988 188.215C81.8034 188.215 80.8939 188.05 80.0703 187.721C79.2467 187.384 78.5378 186.894 77.9434 186.249C77.349 185.604 76.8906 184.817 76.5684 183.886C76.2461 182.955 76.085 181.891 76.085 180.695V179.664C76.085 178.468 76.2354 177.405 76.5361 176.474C76.8441 175.543 77.2809 174.755 77.8467 174.11C78.4196 173.466 79.1035 172.975 79.8984 172.639C80.7005 172.302 81.5957 172.134 82.584 172.134C83.9089 172.134 84.9974 172.352 85.8496 172.789C86.709 173.226 87.3678 173.827 87.8262 174.594C88.2845 175.353 88.571 176.227 88.6855 177.215H85.8066C85.7279 176.671 85.5703 176.194 85.334 175.786C85.0977 175.371 84.7611 175.049 84.3242 174.819C83.8945 174.583 83.3359 174.465 82.6484 174.465C82.0684 174.465 81.5563 174.579 81.1123 174.809C80.6683 175.038 80.2959 175.371 79.9951 175.808C79.6943 176.244 79.4652 176.785 79.3076 177.43C79.1572 178.074 79.082 178.812 79.082 179.643V180.695C79.082 181.533 79.168 182.278 79.3398 182.93C79.5117 183.574 79.7588 184.118 80.0811 184.562C80.4105 184.999 80.8151 185.332 81.2949 185.562C81.7819 185.784 82.3333 185.895 82.9492 185.895C83.5078 185.895 83.9697 185.848 84.335 185.755C84.7074 185.655 85.0046 185.536 85.2266 185.4C85.4486 185.264 85.6204 185.132 85.7422 185.003V182.07H82.6377V179.911H88.6963ZM94.1104 178.751V188H91.2744V176.377H93.96L94.1104 178.751ZM97.6445 176.302L97.6016 178.944C97.444 178.916 97.265 178.894 97.0645 178.88C96.8711 178.866 96.6885 178.858 96.5166 178.858C96.0798 178.858 95.6966 178.919 95.3672 179.041C95.0378 179.156 94.762 179.324 94.54 179.546C94.3252 179.768 94.1605 180.04 94.0459 180.362C93.9313 180.677 93.8669 181.035 93.8525 181.437L93.2402 181.361C93.2402 180.624 93.3154 179.94 93.4658 179.31C93.6162 178.679 93.8346 178.128 94.1211 177.655C94.4076 177.183 94.7656 176.817 95.1953 176.56C95.6322 176.295 96.1335 176.162 96.6992 176.162C96.8568 176.162 97.0251 176.176 97.2041 176.205C97.3903 176.227 97.5371 176.259 97.6445 176.302ZM98.3965 182.307V182.081C98.3965 181.229 98.5182 180.445 98.7617 179.729C99.0052 179.005 99.3597 178.379 99.8252 177.849C100.291 177.319 100.86 176.907 101.533 176.613C102.206 176.312 102.973 176.162 103.832 176.162C104.706 176.162 105.479 176.312 106.152 176.613C106.833 176.907 107.406 177.319 107.871 177.849C108.337 178.379 108.691 179.005 108.935 179.729C109.178 180.445 109.3 181.229 109.3 182.081V182.307C109.3 183.152 109.178 183.936 108.935 184.659C108.691 185.375 108.337 186.002 107.871 186.539C107.406 187.069 106.836 187.481 106.163 187.774C105.49 188.068 104.72 188.215 103.854 188.215C102.994 188.215 102.224 188.068 101.544 187.774C100.864 187.481 100.291 187.069 99.8252 186.539C99.3597 186.002 99.0052 185.375 98.7617 184.659C98.5182 183.936 98.3965 183.152 98.3965 182.307ZM101.232 182.081V182.307C101.232 182.815 101.283 183.291 101.383 183.735C101.483 184.179 101.637 184.57 101.845 184.906C102.052 185.243 102.321 185.508 102.65 185.701C102.987 185.887 103.388 185.98 103.854 185.98C104.312 185.98 104.706 185.887 105.035 185.701C105.365 185.508 105.633 185.243 105.841 184.906C106.056 184.57 106.213 184.179 106.313 183.735C106.414 183.291 106.464 182.815 106.464 182.307V182.081C106.464 181.58 106.414 181.111 106.313 180.674C106.213 180.23 106.056 179.84 105.841 179.503C105.633 179.159 105.361 178.891 105.024 178.697C104.695 178.497 104.298 178.396 103.832 178.396C103.374 178.396 102.98 178.497 102.65 178.697C102.321 178.891 102.052 179.159 101.845 179.503C101.637 179.84 101.483 180.23 101.383 180.674C101.283 181.111 101.232 181.58 101.232 182.081ZM110.857 182.307V182.081C110.857 181.229 110.979 180.445 111.223 179.729C111.466 179.005 111.821 178.379 112.286 177.849C112.752 177.319 113.321 176.907 113.994 176.613C114.667 176.312 115.434 176.162 116.293 176.162C117.167 176.162 117.94 176.312 118.613 176.613C119.294 176.907 119.867 177.319 120.332 177.849C120.798 178.379 121.152 179.005 121.396 179.729C121.639 180.445 121.761 181.229 121.761 182.081V182.307C121.761 183.152 121.639 183.936 121.396 184.659C121.152 185.375 120.798 186.002 120.332 186.539C119.867 187.069 119.297 187.481 118.624 187.774C117.951 188.068 117.181 188.215 116.314 188.215C115.455 188.215 114.685 188.068 114.005 187.774C113.325 187.481 112.752 187.069 112.286 186.539C111.821 186.002 111.466 185.375 111.223 184.659C110.979 183.936 110.857 183.152 110.857 182.307ZM113.693 182.081V182.307C113.693 182.815 113.743 183.291 113.844 183.735C113.944 184.179 114.098 184.57 114.306 184.906C114.513 185.243 114.782 185.508 115.111 185.701C115.448 185.887 115.849 185.98 116.314 185.98C116.773 185.98 117.167 185.887 117.496 185.701C117.826 185.508 118.094 185.243 118.302 184.906C118.517 184.57 118.674 184.179 118.774 183.735C118.875 183.291 118.925 182.815 118.925 182.307V182.081C118.925 181.58 118.875 181.111 118.774 180.674C118.674 180.23 118.517 179.84 118.302 179.503C118.094 179.159 117.822 178.891 117.485 178.697C117.156 178.497 116.758 178.396 116.293 178.396C115.835 178.396 115.441 178.497 115.111 178.697C114.782 178.891 114.513 179.159 114.306 179.503C114.098 179.84 113.944 180.23 113.844 180.674C113.743 181.111 113.693 181.58 113.693 182.081ZM126.648 178.762V188H123.812V176.377H126.487L126.648 178.762ZM126.229 181.77H125.359C125.359 180.96 125.456 180.215 125.649 179.535C125.85 178.855 126.144 178.264 126.53 177.763C126.917 177.254 127.393 176.86 127.959 176.581C128.532 176.302 129.194 176.162 129.946 176.162C130.469 176.162 130.949 176.241 131.386 176.398C131.823 176.549 132.199 176.789 132.514 177.118C132.836 177.44 133.083 177.863 133.255 178.386C133.427 178.901 133.513 179.521 133.513 180.244V188H130.677V180.534C130.677 179.99 130.598 179.564 130.44 179.256C130.29 178.948 130.072 178.733 129.785 178.611C129.499 178.482 129.155 178.418 128.754 178.418C128.31 178.418 127.927 178.507 127.604 178.687C127.289 178.858 127.028 179.098 126.82 179.406C126.62 179.714 126.469 180.069 126.369 180.47C126.276 180.871 126.229 181.304 126.229 181.77ZM133.298 181.243L132.127 181.458C132.134 180.728 132.234 180.044 132.428 179.406C132.621 178.762 132.904 178.2 133.276 177.72C133.656 177.233 134.125 176.853 134.684 176.581C135.249 176.302 135.901 176.162 136.639 176.162C137.212 176.162 137.727 176.244 138.186 176.409C138.651 176.567 139.049 176.821 139.378 177.172C139.707 177.516 139.958 177.963 140.13 178.515C140.309 179.066 140.398 179.739 140.398 180.534V188H137.541V180.523C137.541 179.958 137.462 179.524 137.305 179.224C137.154 178.923 136.936 178.715 136.649 178.601C136.363 178.479 136.026 178.418 135.64 178.418C135.246 178.418 134.902 178.493 134.608 178.644C134.322 178.787 134.078 178.987 133.878 179.245C133.685 179.503 133.538 179.804 133.438 180.147C133.344 180.484 133.298 180.849 133.298 181.243ZM145.952 176.377V188H143.105V176.377H145.952ZM142.912 173.337C142.912 172.914 143.055 172.563 143.342 172.284C143.635 172.005 144.029 171.865 144.523 171.865C145.018 171.865 145.408 172.005 145.694 172.284C145.988 172.563 146.135 172.914 146.135 173.337C146.135 173.752 145.988 174.1 145.694 174.379C145.408 174.658 145.018 174.798 144.523 174.798C144.029 174.798 143.635 174.658 143.342 174.379C143.055 174.1 142.912 173.752 142.912 173.337ZM151.441 178.858V188H148.605V176.377H151.27L151.441 178.858ZM150.99 181.77H150.152C150.16 180.924 150.274 180.158 150.496 179.471C150.718 178.783 151.03 178.192 151.431 177.698C151.839 177.204 152.322 176.825 152.881 176.56C153.439 176.295 154.062 176.162 154.75 176.162C155.309 176.162 155.813 176.241 156.265 176.398C156.716 176.556 157.103 176.807 157.425 177.15C157.754 177.494 158.005 177.945 158.177 178.504C158.356 179.055 158.445 179.736 158.445 180.545V188H155.588V180.523C155.588 179.993 155.509 179.575 155.352 179.267C155.201 178.959 154.979 178.74 154.686 178.611C154.399 178.482 154.045 178.418 153.622 178.418C153.185 178.418 152.802 178.507 152.473 178.687C152.15 178.858 151.878 179.098 151.656 179.406C151.441 179.714 151.277 180.069 151.162 180.47C151.048 180.871 150.99 181.304 150.99 181.77ZM168.339 176.377H170.917V187.646C170.917 188.698 170.688 189.59 170.229 190.32C169.778 191.058 169.145 191.617 168.328 191.996C167.512 192.383 166.563 192.576 165.481 192.576C165.016 192.576 164.511 192.512 163.967 192.383C163.43 192.254 162.91 192.05 162.409 191.771C161.915 191.498 161.503 191.144 161.174 190.707L162.452 189.031C162.839 189.482 163.276 189.823 163.763 190.052C164.25 190.288 164.776 190.406 165.342 190.406C165.915 190.406 166.402 190.299 166.803 190.084C167.211 189.876 167.522 189.568 167.737 189.16C167.959 188.759 168.07 188.265 168.07 187.678V179.03L168.339 176.377ZM160.486 182.328V182.103C160.486 181.215 160.594 180.409 160.809 179.686C161.023 178.955 161.331 178.328 161.732 177.806C162.141 177.283 162.631 176.878 163.204 176.592C163.784 176.305 164.436 176.162 165.159 176.162C165.925 176.162 166.57 176.302 167.093 176.581C167.623 176.86 168.06 177.258 168.403 177.773C168.754 178.289 169.026 178.901 169.22 179.61C169.42 180.312 169.574 181.086 169.682 181.931V182.543C169.581 183.367 169.42 184.122 169.198 184.81C168.983 185.497 168.697 186.099 168.339 186.614C167.981 187.123 167.537 187.517 167.007 187.796C166.477 188.075 165.854 188.215 165.138 188.215C164.422 188.215 163.777 188.068 163.204 187.774C162.631 187.481 162.141 187.069 161.732 186.539C161.331 186.009 161.023 185.386 160.809 184.67C160.594 183.954 160.486 183.173 160.486 182.328ZM163.322 182.103V182.328C163.322 182.829 163.372 183.299 163.473 183.735C163.573 184.172 163.727 184.559 163.935 184.896C164.142 185.225 164.404 185.483 164.719 185.669C165.034 185.855 165.41 185.948 165.847 185.948C166.434 185.948 166.914 185.826 167.286 185.583C167.666 185.332 167.952 184.992 168.146 184.562C168.346 184.126 168.475 183.635 168.532 183.091V181.404C168.496 180.975 168.418 180.577 168.296 180.212C168.181 179.847 168.02 179.532 167.812 179.267C167.605 179.002 167.34 178.794 167.018 178.644C166.695 178.493 166.312 178.418 165.868 178.418C165.438 178.418 165.062 178.515 164.74 178.708C164.418 178.894 164.153 179.156 163.945 179.492C163.738 179.829 163.58 180.219 163.473 180.663C163.372 181.107 163.322 181.587 163.322 182.103Z" fill="#FF9F0E"/>
</g>
<defs>
<filter id="filter0_d_127_251" x="0" y="0" width="248" height="248" filterUnits="userSpaceOnUse" color-interpolation-filters="sRGB">
<feFlood flood-opacity="0" result="BackgroundImageFix"/>
<feColorMatrix in="SourceAlpha" type="matrix" values="0 0 0 0 0 0 0 0 0 0 0 0 0 0 0 0 0 0 127 0" result="hardAlpha"/>
<feOffset dy="4"/>
<feGaussianBlur stdDeviation="2"/>
<feComposite in2="hardAlpha" operator="out"/>
<feColorMatrix type="matrix" values="0 0 0 0 0.0941176 0 0 0 0 0.0941176 0 0 0 0 0.0901961 0 0 0 0.05 0"/>
<feBlend mode="normal" in2="BackgroundImageFix" result="effect1_dropShadow_127_251"/>
<feBlend mode="normal" in="SourceGraphic" in2="effect1_dropShadow_127_251" result="shape"/>
</filter>
<linearGradient id="paint0_linear_127_251" x1="124" y1="0" x2="124" y2="240" gradientUnits="userSpaceOnUse">
<stop stop-color="white"/>
<stop offset="1" stop-color="#FFFBF4"/>
</linearGradient>
</defs>
</svg>
