<svg viewBox="0 0 96 96" xmlns="http://www.w3.org/2000/svg" xmlns:xlink="http://www.w3.org/1999/xlink" width="96.000000" height="96.000000" fill="none">
	<rect id="Frame 11" width="96.000000" height="96.000000" x="0.000000" y="0.000000" />
	<g id="Group">
		<path id="Vector" d="M67.2448 57.3904C64.9996 56.9477 62.7787 58.4128 61.8405 60.9534C61.6586 61.4463 61.5349 61.957 61.4637 62.4731C63.7808 61.0883 65.8061 59.4188 67.5545 57.4514L67.2448 57.3904Z" fill="rgb(24.4375,24.2005,23.3582)" fill-rule="nonzero" />
		<path id="Vector" d="M9.75183 21.1636C15.1376 21.1636 19.5037 16.426 19.5037 10.5818C19.5037 4.73764 15.1376 0 9.75183 0C4.36604 0 0 4.73764 0 10.5818C0 16.426 4.36604 21.1636 9.75183 21.1636Z" fill="rgb(24.4375,24.2005,23.3582)" fill-rule="evenodd" transform="matrix(0.781614,-0.623795,0.468648,0.883408,51.7874,20.1663)" />
		<path id="Vector" d="M86.0195 35.595C82.0866 29.6218 76.7449 29.5534 73.7943 31.9899C70.8445 34.4249 71.06 40.6118 73.5235 44.7658C73.6355 44.9948 73.7543 45.2333 73.8707 45.4693C74.7196 42.3099 74.8393 40.0168 74.8405 39.985C74.927 37.3046 76.6996 35.2122 78.8769 35.2122C78.9274 35.2122 78.978 35.2132 79.0285 35.2157C81.2559 35.3159 83.0014 37.62 82.9193 40.3524L82.9193 40.3609L82.9169 40.405C82.8506 41.9351 82.4237 47.4353 79.7161 53.9717C79.4695 54.5716 79.1789 55.2291 78.8454 55.9252C79.4129 57.255 79.9587 58.6136 80.4563 59.9935L77.0085 59.3142C74.6764 63.1459 71.1089 67.4928 65.7959 70.8986L81.2102 86.5478C82.1529 87.5052 83.2945 87.9718 84.4296 87.9718C85.8829 87.9718 87.3252 87.2062 88.3249 85.7262C90.1036 83.0889 89.804 79.1823 87.6543 77.0002L83.9478 73.2354L85.1467 73.4724C85.5182 73.5453 85.8857 73.5631 86.2467 73.5374C87.1174 73.5884 88.1414 73.2151 89.4006 72.6771C92.8989 71.1817 96.865 68.5454 95.8338 60.5116C93.7531 49.7195 91.3867 43.8475 86.0195 35.595Z" fill="rgb(24.4375,24.2005,23.3582)" fill-rule="nonzero" />
		<path id="Vector" d="M78.9959 53.5215C81.9065 46.4957 82.0944 40.6807 82.1118 40.3153C82.1773 38.1257 80.7847 36.2862 78.9995 36.2064C77.2172 36.1251 75.7195 37.8292 75.6496 40.0138L75.6491 40.0133C75.6439 40.2657 75.3743 45.0479 73.0123 50.437C70.6252 55.8341 66.3337 61.898 57.6461 65.4456C55.9499 66.1318 55.0282 68.3744 55.5889 70.4554C56.0372 72.1224 57.3017 73.1795 58.6595 73.1795C58.9955 73.1795 59.337 73.1145 59.6734 72.9787C70.2953 68.7151 76.1128 60.5374 78.9959 53.5215Z" fill="rgb(24.4375,24.2005,23.3582)" fill-rule="nonzero" />
		<path id="Vector" d="M36.4025 72.3881C37.8723 72.7302 39.6413 73.2955 40.109 73.9029C41.3682 75.5326 41.9835 78.8988 43.6162 79.1348C44.757 79.2994 45.1576 79.2691 46.5709 78.1506C47.9659 77.0439 46.6412 72.7352 46.3081 71.0796C45.8359 68.7304 46.9618 66.1502 46.9791 65.9925C46.9933 65.8616 47.9631 63.3671 50.7665 64.3141C51.7456 64.6473 51.1724 62.4275 49.6391 61.3184C47.8159 60.0015 46.4969 60.6153 45.1641 61.8975C42.5907 59.4818 38.5591 59.9534 36.2671 61.0055C35.9008 62.8366 35.7589 64.6082 35.7589 66.2379C35.7577 68.7156 36.0811 70.864 36.4025 72.3881ZM42.9367 67.1765C43.5358 66.6752 44.3532 66.8652 44.7623 67.6C45.1706 68.3353 45.0157 69.3383 44.4166 69.8386C43.8159 70.3399 42.9994 70.1505 42.5903 69.4152C42.1824 68.6804 42.3364 67.6773 42.9367 67.1765Z" fill="rgb(24.4375,24.2005,23.3582)" fill-rule="nonzero" />
		<path id="Vector" d="M34.615 60.9494C34.0183 60.9598 33.4499 60.9385 32.9078 60.887C32.7178 60.8289 32.5214 60.7927 32.3156 60.8056C32.3031 60.8066 32.2918 60.8116 32.2792 60.8126C24.033 59.6638 21.7883 52.0127 12.1543 59.9528C9.24453 58.9042 5.7753 56.6497 3.1477 51.8387C2.61652 50.8713 1.5473 50.618 0.761039 51.2695C-0.02926 51.9195 -0.23785 53.23 0.295349 54.1978C2.7948 58.7276 5.88363 61.3813 8.78207 62.9357C8.74812 63.023 8.71254 63.1266 8.67697 63.2257C7.93397 64.5967 7.35226 66.403 6.97388 68.8102C6.92093 69.1617 4.56175 87.6282 8.26706 87.6282C11.9724 87.6282 12.9899 73.6589 15.0588 71.8704C15.3502 71.9022 20.8468 78.9661 25.5417 78.0781C26.6416 77.8689 28.1309 77.0359 29.3719 76.1499L31.4028 86.1219C31.6308 87.2409 32.4462 88 33.3606 88C33.4604 88 33.5619 87.9911 33.6634 87.9723C34.6946 87.7824 35.4372 86.6687 35.3826 85.391L34.8555 72.9746C34.5006 71.3181 34.1424 68.9758 34.1408 66.2379C34.1412 64.5922 34.2734 62.8063 34.615 60.9494Z" fill="rgb(24.4375,24.2005,23.3582)" fill-rule="nonzero" />
		<path id="Vector" d="M52.6512 85.3369L52.141 85.3369L51.0997 81.3793L39.4336 81.3793L38.3922 85.3369L37.8812 85.3369C37.4705 85.3369 37.1366 85.746 37.1366 86.2507C37.1366 86.755 37.4705 87.164 37.8812 87.164L52.6512 87.164C53.0619 87.164 53.3958 86.755 53.3958 86.2507C53.3958 85.746 53.0615 85.3369 52.6512 85.3369Z" fill="rgb(24.4375,24.2005,23.3582)" fill-rule="nonzero" />
	</g>
</svg>
