<svg width="248" height="248" viewBox="0 0 248 248" fill="none" xmlns="http://www.w3.org/2000/svg">
<g filter="url(#filter0_d_127_303)">
<rect x="4" width="240" height="240" rx="16" fill="url(#paint0_linear_127_303)"/>
<rect x="4.5" y="0.5" width="239" height="239" rx="15.5" stroke="#F9F9FF"/>
<path d="M94.6928 123.786L98.1538 112.151L96.8953 108.721C94.2208 108.273 92.0183 106.931 90.6024 105.141L85.8827 120.803L76.6007 136.464C75.3421 138.552 76.1287 141.237 78.3312 142.431C80.5337 143.624 83.3655 142.878 84.6241 140.79L94.3781 124.681C94.5354 124.382 94.6928 124.084 94.6928 123.786Z" fill="#181817"/>
<path d="M79.2713 91.2928C80.7194 92.0522 82.6501 91.4447 83.4546 89.9259L90.6949 75.9534L91.9821 75.0421L92.6257 71.2452C92.9475 69.2708 93.9128 67.4483 95.2 65.9296L86.5116 71.2452C86.0289 71.549 85.7072 72.0046 85.3854 72.4602L77.8233 87.1922C77.0188 88.7109 77.6624 90.5334 79.2713 91.2928Z" fill="#181817"/>
<path d="M107.015 63.2254C111.909 63.2254 115.877 59.5932 115.877 55.1127C115.877 50.6322 111.909 47 107.015 47C102.121 47 98.1538 50.6322 98.1538 55.1127C98.1538 59.5932 102.121 63.2254 107.015 63.2254Z" fill="#181817"/>
<path d="M162.908 123.772C162.908 123.772 163.065 123.921 163.065 124.07C164.32 123.323 164.791 121.68 164.791 121.68C169.499 123.025 170.44 118.841 170.44 118.841C171.068 117.646 167.929 116.45 167.929 116.45C167.772 113.462 164.163 112.565 164.163 112.565C162.437 111.071 162.908 112.565 162.908 112.565C161.182 112.416 160.083 113.014 160.083 113.014C157.258 110.474 155.532 114.358 155.532 114.358C155.062 114.358 154.748 114.508 154.277 114.508C157.102 118.094 160.083 121.232 162.908 123.772Z" fill="#181817"/>
<path d="M167.286 133.346C166.471 132.589 160.603 129.261 160.603 129.261C161.907 128.656 162.07 126.083 162.07 125.176C158.974 122.452 155.714 118.972 152.454 115.039C150.824 115.341 140.068 119.578 129.637 115.19C125.725 113.526 122.303 115.946 122.303 115.946C119.369 119.124 120.673 124.268 120.673 124.268L124.747 120.183C126.866 118.67 127.681 118.972 128.17 119.729C128.496 120.334 128.333 121.091 127.844 121.696C123.932 125.478 125.236 129.412 125.236 129.412L119.695 133.951C117.576 136.069 120.021 137.734 120.021 137.734C120.51 136.069 124.421 133.497 124.421 133.497C124.258 135.464 125.236 135.918 125.236 135.918C128.007 135.161 127.355 132.589 127.355 132.589C131.755 132.438 132.244 130.622 132.244 130.622C136.645 131.379 138.764 128.656 138.764 128.656C139.905 130.622 149.847 132.741 149.847 132.741C150.498 133.043 154.247 140.003 154.247 140.003C155.062 140.154 155.877 141.213 155.877 141.213C157.67 142.273 161.418 141.062 161.418 141.062C161.092 139.7 159.137 139.7 159.137 139.7C154.736 139.7 155.388 132.892 155.388 132.892C155.551 131.984 158.974 133.648 158.974 133.648L166.471 136.221C170.219 138.036 171.849 135.918 171.849 135.918C172.99 134.254 167.286 133.346 167.286 133.346Z" fill="#181817"/>
<path d="M130.646 80.0415C134.369 87.5747 142.3 102.493 152.497 114.606C152.982 114.458 153.63 114.458 154.277 114.31C154.115 114.163 153.953 114.015 153.791 113.719C143.595 101.755 135.664 86.8362 132.103 79.4507C131.455 79.8938 130.808 80.0415 130.646 80.0415Z" fill="#181817"/>
<path d="M131.441 78.3007C133.07 77.702 134.047 76.0555 133.396 74.5587C132.744 73.0619 130.952 72.1638 129.324 72.7626L120.527 75.6065C110.265 66.7753 109.776 65.2785 105.704 64.6798C100.491 63.9314 95.6045 67.3741 94.7901 72.1638L90.8806 97.3101C90.0661 102.1 93.8127 106.59 99.0253 107.339C99.1882 107.339 99.3511 107.339 99.514 107.339L103.749 119.014L95.1159 130.689C93.6498 132.635 94.1385 135.479 96.419 136.826C98.5366 138.173 101.632 137.724 103.098 135.628L113.197 122.157C114.012 120.96 114.337 119.612 113.849 118.265L108.473 103.447C109.288 102.399 109.939 101.052 110.102 99.705L113.686 77.4026L117.758 80.995C118.573 81.7434 119.876 82.0427 121.016 81.5937L131.441 78.3007Z" fill="#181817"/>
<path d="M91.707 172.359V188H88.7637V172.359H91.707ZM96.5625 172.359V174.69H83.9619V172.359H96.5625ZM100.397 178.751V188H97.5615V176.377H100.247L100.397 178.751ZM103.932 176.302L103.889 178.944C103.731 178.916 103.552 178.894 103.352 178.88C103.158 178.866 102.976 178.858 102.804 178.858C102.367 178.858 101.984 178.919 101.654 179.041C101.325 179.156 101.049 179.324 100.827 179.546C100.612 179.768 100.448 180.04 100.333 180.362C100.218 180.677 100.154 181.035 100.14 181.437L99.5273 181.361C99.5273 180.624 99.6025 179.94 99.7529 179.31C99.9033 178.679 100.122 178.128 100.408 177.655C100.695 177.183 101.053 176.817 101.482 176.56C101.919 176.295 102.421 176.162 102.986 176.162C103.144 176.162 103.312 176.176 103.491 176.205C103.677 176.227 103.824 176.259 103.932 176.302ZM111.526 185.529V180.169C111.526 179.775 111.458 179.435 111.322 179.148C111.186 178.862 110.979 178.64 110.699 178.482C110.42 178.325 110.065 178.246 109.636 178.246C109.256 178.246 108.923 178.311 108.637 178.439C108.357 178.568 108.143 178.751 107.992 178.987C107.842 179.216 107.767 179.481 107.767 179.782H104.92C104.92 179.302 105.035 178.848 105.264 178.418C105.493 177.981 105.819 177.594 106.241 177.258C106.671 176.914 107.183 176.646 107.777 176.452C108.379 176.259 109.052 176.162 109.797 176.162C110.678 176.162 111.462 176.312 112.149 176.613C112.844 176.907 113.388 177.351 113.782 177.945C114.183 178.54 114.384 179.288 114.384 180.19V185.261C114.384 185.841 114.42 186.339 114.491 186.754C114.57 187.162 114.685 187.517 114.835 187.817V188H111.945C111.809 187.706 111.705 187.334 111.634 186.883C111.562 186.424 111.526 185.973 111.526 185.529ZM111.924 180.921L111.945 182.607H110.151C109.707 182.607 109.317 182.654 108.98 182.747C108.644 182.833 108.368 182.962 108.153 183.134C107.938 183.299 107.777 183.499 107.67 183.735C107.562 183.965 107.509 184.226 107.509 184.52C107.509 184.806 107.573 185.064 107.702 185.293C107.838 185.522 108.032 185.705 108.282 185.841C108.54 185.97 108.841 186.034 109.185 186.034C109.686 186.034 110.123 185.934 110.495 185.733C110.868 185.526 111.158 185.275 111.365 184.981C111.573 184.688 111.684 184.409 111.698 184.144L112.515 185.368C112.414 185.662 112.264 185.973 112.063 186.303C111.863 186.632 111.605 186.94 111.29 187.227C110.975 187.513 110.595 187.749 110.151 187.936C109.707 188.122 109.192 188.215 108.604 188.215C107.853 188.215 107.179 188.064 106.585 187.764C105.991 187.463 105.521 187.051 105.178 186.528C104.834 186.006 104.662 185.411 104.662 184.745C104.662 184.129 104.777 183.585 105.006 183.112C105.235 182.64 105.575 182.242 106.026 181.92C106.478 181.59 107.036 181.343 107.702 181.179C108.375 181.007 109.145 180.921 110.012 180.921H111.924ZM119.948 176.377V188H117.102V176.377H119.948ZM116.908 173.337C116.908 172.914 117.051 172.563 117.338 172.284C117.632 172.005 118.025 171.865 118.52 171.865C119.014 171.865 119.404 172.005 119.69 172.284C119.984 172.563 120.131 172.914 120.131 173.337C120.131 173.752 119.984 174.1 119.69 174.379C119.404 174.658 119.014 174.798 118.52 174.798C118.025 174.798 117.632 174.658 117.338 174.379C117.051 174.1 116.908 173.752 116.908 173.337ZM125.438 178.858V188H122.602V176.377H125.266L125.438 178.858ZM124.986 181.77H124.148C124.156 180.924 124.27 180.158 124.492 179.471C124.714 178.783 125.026 178.192 125.427 177.698C125.835 177.204 126.318 176.825 126.877 176.56C127.436 176.295 128.059 176.162 128.746 176.162C129.305 176.162 129.81 176.241 130.261 176.398C130.712 176.556 131.099 176.807 131.421 177.15C131.75 177.494 132.001 177.945 132.173 178.504C132.352 179.055 132.441 179.736 132.441 180.545V188H129.584V180.523C129.584 179.993 129.505 179.575 129.348 179.267C129.197 178.959 128.975 178.74 128.682 178.611C128.395 178.482 128.041 178.418 127.618 178.418C127.181 178.418 126.798 178.507 126.469 178.687C126.146 178.858 125.874 179.098 125.652 179.406C125.438 179.714 125.273 180.069 125.158 180.47C125.044 180.871 124.986 181.304 124.986 181.77ZM137.952 176.377V188H135.105V176.377H137.952ZM134.912 173.337C134.912 172.914 135.055 172.563 135.342 172.284C135.635 172.005 136.029 171.865 136.523 171.865C137.018 171.865 137.408 172.005 137.694 172.284C137.988 172.563 138.135 172.914 138.135 173.337C138.135 173.752 137.988 174.1 137.694 174.379C137.408 174.658 137.018 174.798 136.523 174.798C136.029 174.798 135.635 174.658 135.342 174.379C135.055 174.1 134.912 173.752 134.912 173.337ZM143.441 178.858V188H140.605V176.377H143.27L143.441 178.858ZM142.99 181.77H142.152C142.16 180.924 142.274 180.158 142.496 179.471C142.718 178.783 143.03 178.192 143.431 177.698C143.839 177.204 144.322 176.825 144.881 176.56C145.439 176.295 146.062 176.162 146.75 176.162C147.309 176.162 147.813 176.241 148.265 176.398C148.716 176.556 149.103 176.807 149.425 177.15C149.754 177.494 150.005 177.945 150.177 178.504C150.356 179.055 150.445 179.736 150.445 180.545V188H147.588V180.523C147.588 179.993 147.509 179.575 147.352 179.267C147.201 178.959 146.979 178.74 146.686 178.611C146.399 178.482 146.045 178.418 145.622 178.418C145.185 178.418 144.802 178.507 144.473 178.687C144.15 178.858 143.878 179.098 143.656 179.406C143.441 179.714 143.277 180.069 143.162 180.47C143.048 180.871 142.99 181.304 142.99 181.77ZM160.339 176.377H162.917V187.646C162.917 188.698 162.688 189.59 162.229 190.32C161.778 191.058 161.145 191.617 160.328 191.996C159.512 192.383 158.563 192.576 157.481 192.576C157.016 192.576 156.511 192.512 155.967 192.383C155.43 192.254 154.91 192.05 154.409 191.771C153.915 191.498 153.503 191.144 153.174 190.707L154.452 189.031C154.839 189.482 155.276 189.823 155.763 190.052C156.25 190.288 156.776 190.406 157.342 190.406C157.915 190.406 158.402 190.299 158.803 190.084C159.211 189.876 159.522 189.568 159.737 189.16C159.959 188.759 160.07 188.265 160.07 187.678V179.03L160.339 176.377ZM152.486 182.328V182.103C152.486 181.215 152.594 180.409 152.809 179.686C153.023 178.955 153.331 178.328 153.732 177.806C154.141 177.283 154.631 176.878 155.204 176.592C155.784 176.305 156.436 176.162 157.159 176.162C157.925 176.162 158.57 176.302 159.093 176.581C159.623 176.86 160.06 177.258 160.403 177.773C160.754 178.289 161.026 178.901 161.22 179.61C161.42 180.312 161.574 181.086 161.682 181.931V182.543C161.581 183.367 161.42 184.122 161.198 184.81C160.983 185.497 160.697 186.099 160.339 186.614C159.981 187.123 159.537 187.517 159.007 187.796C158.477 188.075 157.854 188.215 157.138 188.215C156.422 188.215 155.777 188.068 155.204 187.774C154.631 187.481 154.141 187.069 153.732 186.539C153.331 186.009 153.023 185.386 152.809 184.67C152.594 183.954 152.486 183.173 152.486 182.328ZM155.322 182.103V182.328C155.322 182.829 155.372 183.299 155.473 183.735C155.573 184.172 155.727 184.559 155.935 184.896C156.142 185.225 156.404 185.483 156.719 185.669C157.034 185.855 157.41 185.948 157.847 185.948C158.434 185.948 158.914 185.826 159.286 185.583C159.666 185.332 159.952 184.992 160.146 184.562C160.346 184.126 160.475 183.635 160.532 183.091V181.404C160.496 180.975 160.418 180.577 160.296 180.212C160.181 179.847 160.02 179.532 159.812 179.267C159.605 179.002 159.34 178.794 159.018 178.644C158.695 178.493 158.312 178.418 157.868 178.418C157.438 178.418 157.062 178.515 156.74 178.708C156.418 178.894 156.153 179.156 155.945 179.492C155.738 179.829 155.58 180.219 155.473 180.663C155.372 181.107 155.322 181.587 155.322 182.103Z" fill="#FF9F0E"/>
</g>
<defs>
<filter id="filter0_d_127_303" x="0" y="0" width="248" height="248" filterUnits="userSpaceOnUse" color-interpolation-filters="sRGB">
<feFlood flood-opacity="0" result="BackgroundImageFix"/>
<feColorMatrix in="SourceAlpha" type="matrix" values="0 0 0 0 0 0 0 0 0 0 0 0 0 0 0 0 0 0 127 0" result="hardAlpha"/>
<feOffset dy="4"/>
<feGaussianBlur stdDeviation="2"/>
<feComposite in2="hardAlpha" operator="out"/>
<feColorMatrix type="matrix" values="0 0 0 0 0.0941176 0 0 0 0 0.0941176 0 0 0 0 0.0901961 0 0 0 0.05 0"/>
<feBlend mode="normal" in2="BackgroundImageFix" result="effect1_dropShadow_127_303"/>
<feBlend mode="normal" in="SourceGraphic" in2="effect1_dropShadow_127_303" result="shape"/>
</filter>
<linearGradient id="paint0_linear_127_303" x1="124" y1="0" x2="124" y2="240" gradientUnits="userSpaceOnUse">
<stop stop-color="white"/>
<stop offset="1" stop-color="#FFFBF4"/>
</linearGradient>
</defs>
</svg>
