<svg width="32" height="32" viewBox="0 0 32 32" fill="none" xmlns="http://www.w3.org/2000/svg">
<path d="M6.46671 29.3334V16.5334L6.10004 16.1667C5.8556 15.9223 5.66671 15.6334 5.53337 15.3001C5.40004 14.9667 5.33337 14.6223 5.33337 14.2667C5.33337 13.9112 5.40004 13.5725 5.53337 13.2507C5.66671 12.9281 5.8556 12.6445 6.10004 12.4001L10.4667 8.00008H15.8L21.1334 2.66675L23.8667 5.40008C24.7556 6.28897 25.4445 7.2943 25.9334 8.41608C26.4223 9.53875 26.6667 10.7334 26.6667 12.0001C26.6667 13.2667 26.4223 14.4614 25.9334 15.5841C25.4445 16.7059 24.7556 17.7112 23.8667 18.6001L21.1334 21.3334V29.3334H6.46671ZM9.13337 26.6667H18.4667V20.2334L21.9667 16.7334C22.6112 16.089 23.1112 15.3667 23.4667 14.5667C23.8223 13.7667 24 12.9112 24 12.0001C24 11.1112 23.8165 10.2667 23.4494 9.46675C23.0832 8.66675 22.5889 7.94453 21.9667 7.30008L21.1334 6.43341L16.9 10.6667H11.5667L10.8 11.4334L13.0334 13.6667C13.6556 14.289 14.1392 15.0054 14.484 15.8161C14.828 16.6276 15 17.4779 15 18.3667C15 19.2556 14.8334 20.1059 14.5 20.9174C14.1667 21.7281 13.6778 22.4556 13.0334 23.1001L9.13337 19.2001V26.6667Z" fill="#FF9F0E"/>
</svg>
