<svg width="40" height="40" viewBox="0 0 40 40" fill="none" xmlns="http://www.w3.org/2000/svg">
<g clip-path="url(#clip0_140_3363)">
<path d="M1.87467 15.9999H38.1253V13.3333H1.87467V15.9999ZM37.3333 15.2079V16.3786H40V15.2079H37.3333ZM33.0293 37.3333H6.97067V40H33.0293V37.3333ZM2.66667 16.3786V15.2079H0V16.3786H2.66667ZM7.72267 37.7973C4.3976 31.147 2.66658 23.8138 2.66667 16.3786H0C0 24.2293 1.82667 31.9706 5.33867 38.992L7.72267 37.7973ZM6.97067 37.3333C7.29067 37.3333 7.58133 37.5146 7.72267 37.7973L5.33867 38.992C5.49048 39.2948 5.72351 39.5494 6.01171 39.7274C6.29991 39.9054 6.63193 39.9998 6.97067 40V37.3333ZM32.2773 37.7973C32.3472 37.6577 32.4546 37.5404 32.5874 37.4584C32.7202 37.3765 32.8733 37.3331 33.0293 37.3333V40C33.7227 40 34.352 39.6106 34.6613 38.992L32.2773 37.7973ZM37.3333 16.3786C37.3333 23.8133 35.6 31.1466 32.2773 37.7973L34.6613 38.992C38.1722 31.9708 40.0001 24.2286 40 16.3786H37.3333ZM38.1253 15.9999C37.9153 15.9999 37.7138 15.9165 37.5653 15.768C37.4168 15.6194 37.3333 15.418 37.3333 15.2079H40C40 14.7108 39.8025 14.2339 39.4509 13.8824C39.0994 13.5308 38.6225 13.3333 38.1253 13.3333V15.9999ZM1.87467 13.3333C1.37747 13.3333 0.900645 13.5308 0.549077 13.8824C0.197509 14.2339 0 14.7108 0 15.2079H2.66667C2.66667 15.418 2.58322 15.6194 2.4347 15.768C2.28617 15.9165 2.08472 15.9999 1.87467 15.9999V13.3333ZM10.4773 15.3519L18.4773 2.01862L16.1867 0.647949L8.18667 13.9813L10.4773 15.3519ZM21.5227 2.01862L29.5227 15.3519L31.8107 13.9813L23.8107 0.647949L21.5227 2.01862ZM13.3333 26.6666H26.6667V24H13.3333V26.6666Z" fill="#FF9F0E"/>
</g>
<defs>
<clipPath id="clip0_140_3363">
<rect width="40" height="40" fill="white"/>
</clipPath>
</defs>
</svg>
