<svg xmlns="http://www.w3.org/2000/svg" aria-hidden="true" overflow="hidden" style="position:absolute;width:0;height:0">
  <defs>
    <symbol id="icon-facebook" viewBox="0 0 32 32">
      <path d="M32 16A16 16 0 0 0 4.687 4.687a16.006 16.006 0 0 0-3.469 17.436A16.005 16.005 0 0 0 16 32a16.013 16.013 0 0 0 16-16zM17.231 29.477v-9.785h3.692a1.228 1.228 0 0 0 .87-2.1 1.228 1.228 0 0 0-.87-.36h-3.692V13.54a2.461 2.461 0 0 1 2.462-2.462h2.462a1.228 1.228 0 0 0 .87-2.1 1.228 1.228 0 0 0-.87-.36h-2.462a4.934 4.934 0 0 0-4.923 4.923v3.692h-3.692a1.228 1.228 0 0 0-.87 2.1c.23.231.544.36.87.36h3.692v9.785a13.539 13.539 0 1 1 2.462 0z"/>
    </symbol>
    <symbol id="icon-form-dog" viewBox="0 0 32 32">
      <path d="M6.467 29.333v-12.8l-.367-.367c-.244-.244-.433-.533-.567-.867s-.2-.678-.2-1.033a2.637 2.637 0 0 1 .767-1.867l4.367-4.4H15.8l5.333-5.333 2.733 2.733c.889.889 1.578 1.894 2.067 3.016s.733 2.317.733 3.584-.244 2.461-.733 3.584-1.178 2.127-2.067 3.016l-2.733 2.733v8H6.466zm2.666-2.666h9.333v-6.433l3.5-3.5c.645-.644 1.145-1.367 1.5-2.167s.533-1.655.533-2.567c0-.889-.183-1.733-.551-2.533s-.86-1.522-1.483-2.167l-.833-.867-4.233 4.233h-5.333l-.767.767 2.233 2.233c.622.622 1.106 1.339 1.451 2.149s.516 1.662.516 2.551a6.614 6.614 0 0 1-1.967 4.734l-3.9-3.9v7.467z"/>
    </symbol>
    <symbol id="icon-form-email" viewBox="0 0 32 32">
      <path d="M16 29.333c-1.822 0-3.544-.35-5.167-1.051s-3.039-1.655-4.249-2.867c-1.212-1.211-2.167-2.627-2.867-4.249s-1.051-3.344-1.051-5.167c0-1.845.35-3.572 1.051-5.183s1.655-3.023 2.867-4.233c1.211-1.212 2.627-2.168 4.249-2.868S14.177 2.666 16 2.666c1.844 0 3.572.35 5.183 1.049 1.612.7 3.023 1.656 4.233 2.868s2.167 2.622 2.867 4.233c.701 1.611 1.051 3.338 1.051 5.183v1.933c0 1.311-.45 2.428-1.349 3.349-.901.923-2.006 1.384-3.317 1.384-.8 0-1.544-.178-2.233-.533s-1.256-.822-1.7-1.4a6.634 6.634 0 0 1-4.733 1.933c-1.845 0-3.416-.65-4.716-1.951s-1.951-2.872-1.951-4.716c0-1.845.65-3.417 1.951-4.717s2.872-1.949 4.716-1.949c1.844 0 3.417.65 4.717 1.949s1.949 2.873 1.949 4.717v1.933c0 .645.2 1.15.6 1.516s.867.551 1.4.551c.533 0 1-.184 1.4-.551s.6-.872.6-1.516v-1.933c0-2.911-1.05-5.417-3.151-7.517s-4.605-3.149-7.516-3.149c-2.911 0-5.417 1.05-7.517 3.149s-3.149 4.606-3.149 7.517 1.05 5.416 3.149 7.516c2.1 2.1 4.606 3.151 7.517 3.151h6.667v2.667h-6.667zM16 20c1.111 0 2.055-.389 2.833-1.167S20 17.111 20 16c0-1.111-.389-2.056-1.167-2.833S17.111 12 16 12c-1.111 0-2.056.389-2.833 1.167S12 14.889 12 16s.389 2.055 1.167 2.833S14.889 20 16 20z"/>
    </symbol>
    <symbol id="icon-form-man" viewBox="0 0 32 32">
      <path d="M10.726 7.901c0-1.334.529-2.612 1.47-3.555a5.014 5.014 0 0 1 7.098 0 5.034 5.034 0 0 1 0 7.11 5.014 5.014 0 0 1-7.098 0 5.034 5.034 0 0 1-1.47-3.555zM15.746 0c-2.092 0-4.098.832-5.578 2.314s-2.31 3.492-2.31 5.587c0 2.096.831 4.105 2.31 5.587a7.88 7.88 0 0 0 11.156 0 7.908 7.908 0 0 0 0-11.174A7.88 7.88 0 0 0 15.746 0zM3.556 22.985c0-1.143.453-2.239 1.26-3.047s1.901-1.262 3.042-1.262h15.776c1.141 0 2.235.454 3.042 1.262s1.26 1.904 1.26 3.047v.325a3.841 3.841 0 0 1-.029.401 7.205 7.205 0 0 1-.186.985 8.007 8.007 0 0 1-1.433 2.898c-1.678 2.158-4.835 4.011-10.543 4.011s-8.863-1.853-10.543-4.011a8.002 8.002 0 0 1-1.434-2.898 6.968 6.968 0 0 1-.209-1.29l-.003-.096v-.033l-.001-.012v-.28zm2.868.256v.017c.02.242.061.481.122.715.129.5.392 1.175.919 1.855 1.011 1.299 3.233 2.903 8.281 2.903s7.271-1.605 8.281-2.902c.429-.55.741-1.181.918-1.856.062-.234.103-.474.123-.715l.001-.017v-.256a1.439 1.439 0 0 0-1.434-1.437H7.858a1.439 1.439 0 0 0-1.434 1.437v.256z"/>
    </symbol>
    <symbol id="icon-form-phone" viewBox="0 0 32 32">
      <path d="M27.833 29.333c-3.467 0-6.728-.655-9.783-1.967s-5.723-3.105-8-5.383c-2.278-2.278-4.078-4.945-5.4-8S2.666 7.655 2.666 4.166c-.022-.4.111-.75.4-1.051s.644-.449 1.067-.449h5.2c.4 0 .744.15 1.033.449s.433.662.433 1.084c0 .978.067 1.9.2 2.767s.345 1.689.633 2.467c.111.244.133.494.067.749s-.2.495-.4.717l-3.333 3.333c.956 1.956 2.311 3.811 4.067 5.567s3.644 3.155 5.667 4.2l3.333-3.333c.2-.2.433-.333.7-.4s.533-.044.8.067c.822.267 1.672.472 2.549.616s1.784.217 2.717.217c.422 0 .784.156 1.084.467s.449.689.449 1.133v5.1c0 .4-.145.744-.433 1.033s-.644.433-1.067.433zm-7.666-4c1 .378 2.044.678 3.133.9s2.211.367 3.367.433v-2.867c-.689-.044-1.394-.122-2.116-.233s-1.44-.278-2.151-.5l-2.233 2.267zm6.5-9.333c0-2.978-1.033-5.5-3.1-7.567s-4.589-3.1-7.567-3.1V2.666c1.845 0 3.578.35 5.2 1.049s3.033 1.651 4.233 2.851 2.15 2.611 2.849 4.233c.7 1.622 1.051 3.355 1.051 5.2h-2.667zm-5.334 0c0-1.467-.522-2.722-1.567-3.767s-2.3-1.567-3.767-1.567V7.999c2.222 0 4.111.778 5.667 2.333s2.333 3.444 2.333 5.667h-2.667zM6.667 11.767l2.2-2.233c-.178-.644-.328-1.322-.451-2.033s-.205-1.433-.249-2.167h-2.8c.044 1.067.178 2.133.4 3.2s.522 2.145.9 3.233z"/>
    </symbol>
    <symbol id="icon-bones-grade" viewBox="0 0 73 32">
      <path d="M72.673 13.749c.834-1.892.379-4.677 0-6.753-.295-1.765-1.027-3.222-2.124-4.502S67.831.608 66.302.243c-1.214-.314-3.038-.336-4.247 0s-1.168 1.335-2.124 2.251c-2.383 2.173-5.455 2.326-8.494 2.251H21.706c-3.039.076-6.112-.078-8.494-2.251-.956-.916-.914-1.915-2.124-2.251s-3.034-.314-4.247 0c-1.529.365-3.151.971-4.247 2.251S.766 5.231.47 6.996c-.38 2.076-.834 4.861 0 6.753.302.681 2.124 1.486 2.124 2.251S.773 17.57.47 18.251c-.832 1.892-.378 4.677 0 6.753.296 1.766 1.028 3.22 2.124 4.502s2.718 1.882 4.247 2.251c1.214.313 3.038.336 4.247 0s1.168-1.335 2.124-2.251c2.382-2.176 5.454-2.322 8.494-2.251h29.731c3.04-.071 6.113.075 8.494 2.251.956.916.914 1.915 2.124 2.251s3.034.313 4.247 0c1.529-.369 3.151-.969 4.247-2.251s1.828-2.736 2.124-4.502c.378-2.076.832-4.861 0-6.753-.302-.681-2.124-1.486-2.124-2.251s1.822-1.57 2.124-2.251z"/>
    </symbol>
    <symbol id="icon-instagram" viewBox="0 0 32 32">
      <path stroke-linecap="round" stroke-linejoin="round" stroke-width="2.575" d="M20.624 20.624a6.54 6.54 0 0 0-9.248-9.248 6.539 6.539 0 0 0 9.248 9.248z"/>
      <path stroke-width="2.575" d="M1.287 9.461a8.174 8.174 0 0 1 8.174-8.174h13.078a8.174 8.174 0 0 1 8.174 8.174v13.078a8.174 8.174 0 0 1-8.174 8.174H9.461a8.174 8.174 0 0 1-8.174-8.174V9.461z"/>
      <path stroke-linecap="round" stroke-linejoin="round" stroke-width="2.575" d="m24.991 7.026.017-.019"/>
    </symbol>
    <symbol id="icon-service-arrow" viewBox="0 0 99 32">
      <path d="M0 13.598h96.082v4.804H0v-4.804zM92.685 16 80.795 4.11c-.951-.951-.951-2.446 0-3.397s2.446-.951 3.397 0L97.78 14.301a2.379 2.379 0 0 1 0 3.397L84.192 31.286c-.951.951-2.446.951-3.397 0s-.951-2.446 0-3.397l11.89-11.89z"/>
    </symbol>
    <symbol id="icon-customer-arrow" viewBox="0 0 41 32">
      <path d="M40.845 13.598H2.412v4.804h38.433v-4.804zM5.809 16l11.89-11.89c.951-.951.951-2.446 0-3.397s-2.446-.951-3.397 0L.714 14.301a2.379 2.379 0 0 0 0 3.397l13.588 13.588c.951.951 2.446.951 3.397 0s.951-2.446 0-3.397l-11.89-11.89z"/>
    </symbol>
    <symbol id="icon-shopping-cart" viewBox="0 0 31 32">
      <path d="M1.467 12.878H29.76v-2.081H1.467v2.081zm27.675-.618v.914h2.081v-.914h-2.081zm-3.359 17.268H5.445v2.081h20.338v-2.081zM2.085 13.174v-.914H.004v.914h2.081zm3.946 16.717a37.382 37.382 0 0 1-3.946-16.717H.004a39.45 39.45 0 0 0 4.167 17.649l1.861-.932zm-.587-.363c.25 0 .477.142.587.362l-1.861.932a1.43 1.43 0 0 0 1.273.787v-2.081zm19.752.363a.658.658 0 0 1 .587-.363v2.081c.541 0 1.032-.304 1.274-.787l-1.861-.932zm3.946-16.717a37.412 37.412 0 0 1-3.946 16.717l1.861.932a39.466 39.466 0 0 0 4.167-17.649h-2.081zm.618-.296a.618.618 0 0 1-.618-.618h2.081a1.463 1.463 0 0 0-1.464-1.464v2.081zM1.467 10.797a1.463 1.463 0 0 0-1.464 1.464h2.081a.618.618 0 0 1-.618.618v-2.081zm6.714 1.575 6.244-10.406-1.788-1.07-6.244 10.407 1.788 1.07zm8.621-10.406 6.244 10.406 1.786-1.07L18.588.895l-1.786 1.07zM10.41 21.203h10.406v-2.081H10.41v2.081z"/>
    </symbol>
  </defs>
</svg>
