<svg width="32" height="32" viewBox="0 0 32 32" fill="none" xmlns="http://www.w3.org/2000/svg">
<path d="M16 29.3334C14.1777 29.3334 12.4555 28.9832 10.8333 28.2827C9.21107 27.5832 7.79463 26.6276 6.58396 25.4161C5.3724 24.2054 4.41685 22.789 3.71729 21.1667C3.01685 19.5445 2.66663 17.8223 2.66663 16.0001C2.66663 14.1556 3.01685 12.4281 3.71729 10.8174C4.41685 9.20586 5.3724 7.79475 6.58396 6.58408C7.79463 5.37253 9.21107 4.41653 10.8333 3.71608C12.4555 3.01653 14.1777 2.66675 16 2.66675C17.8444 2.66675 19.572 3.01653 21.1826 3.71608C22.7942 4.41653 24.2053 5.37253 25.416 6.58408C26.6275 7.79475 27.5831 9.20586 28.2826 10.8174C28.9831 12.4281 29.3333 14.1556 29.3333 16.0001V17.9334C29.3333 19.2445 28.8835 20.361 27.984 21.2827C27.0835 22.2054 25.9777 22.6667 24.6666 22.6667C23.8666 22.6667 23.1222 22.489 22.4333 22.1334C21.7444 21.7779 21.1777 21.3112 20.7333 20.7334C20.1333 21.3334 19.428 21.8059 18.6173 22.1507C17.8057 22.4947 16.9333 22.6667 16 22.6667C14.1555 22.6667 12.5835 22.0165 11.284 20.7161C9.98351 19.4165 9.33329 17.8445 9.33329 16.0001C9.33329 14.1556 9.98351 12.5832 11.284 11.2827C12.5835 9.98319 14.1555 9.33341 16 9.33341C17.8444 9.33341 19.4168 9.98319 20.7173 11.2827C22.0168 12.5832 22.6666 14.1556 22.6666 16.0001V17.9334C22.6666 18.5779 22.8666 19.0832 23.2666 19.4494C23.6666 19.8165 24.1333 20.0001 24.6666 20.0001C25.2 20.0001 25.6666 19.8165 26.0666 19.4494C26.4666 19.0832 26.6666 18.5779 26.6666 17.9334V16.0001C26.6666 13.089 25.6164 10.5832 23.516 8.48275C21.4164 6.38319 18.9111 5.33341 16 5.33341C13.0888 5.33341 10.5831 6.38319 8.48263 8.48275C6.38307 10.5832 5.33329 13.089 5.33329 16.0001C5.33329 18.9112 6.38307 21.4165 8.48263 23.5161C10.5831 25.6165 13.0888 26.6667 16 26.6667H22.6666V29.3334H16ZM16 20.0001C17.1111 20.0001 18.0555 19.6112 18.8333 18.8334C19.6111 18.0556 20 17.1112 20 16.0001C20 14.889 19.6111 13.9445 18.8333 13.1667C18.0555 12.389 17.1111 12.0001 16 12.0001C14.8888 12.0001 13.9444 12.389 13.1666 13.1667C12.3888 13.9445 12 14.889 12 16.0001C12 17.1112 12.3888 18.0556 13.1666 18.8334C13.9444 19.6112 14.8888 20.0001 16 20.0001Z" fill="#FF9F0E"/>
</svg>
