<svg width="32" height="32" viewBox="0 0 32 32" fill="none" xmlns="http://www.w3.org/2000/svg">
<path d="M27.8334 29.3334C24.3667 29.3334 21.1058 28.6779 18.0507 27.3667C14.9947 26.0556 12.328 24.2614 10.0507 21.9841C7.77247 19.7059 5.97247 17.0392 4.65069 13.9841C3.32802 10.9281 2.66669 7.65564 2.66669 4.16675C2.64447 3.76675 2.7778 3.41653 3.06669 3.11608C3.35558 2.81653 3.71113 2.66675 4.13335 2.66675H9.33335C9.73335 2.66675 10.0778 2.81653 10.3667 3.11608C10.6556 3.41653 10.8 3.77786 10.8 4.20008C10.8 5.17786 10.8667 6.10008 11 6.96675C11.1334 7.83341 11.3445 8.65564 11.6334 9.43341C11.7445 9.67786 11.7667 9.92764 11.7 10.1827C11.6334 10.4387 11.5 10.6779 11.3 10.9001L7.96669 14.2334C8.92224 16.189 10.2778 18.0445 12.0334 19.8001C13.7889 21.5556 15.6778 22.9556 17.7 24.0001L21.0334 20.6667C21.2334 20.4667 21.4667 20.3334 21.7334 20.2667C22 20.2001 22.2667 20.2223 22.5334 20.3334C23.3556 20.6001 24.2054 20.8054 25.0827 20.9494C25.9609 21.0943 26.8667 21.1667 27.8 21.1667C28.2222 21.1667 28.5836 21.3223 28.884 21.6334C29.1836 21.9445 29.3334 22.3223 29.3334 22.7667V27.8667C29.3334 28.2667 29.1889 28.6112 28.9 28.9001C28.6111 29.189 28.2556 29.3334 27.8334 29.3334ZM20.1667 25.3334C21.1667 25.7112 22.2111 26.0112 23.3 26.2334C24.3889 26.4556 25.5111 26.6001 26.6667 26.6667V23.8001C25.9778 23.7556 25.2725 23.6779 24.5507 23.5667C23.828 23.4556 23.1111 23.289 22.4 23.0667L20.1667 25.3334ZM26.6667 16.0001C26.6667 13.0223 25.6334 10.5001 23.5667 8.43341C21.5 6.36675 18.9778 5.33341 16 5.33341V2.66675C17.8445 2.66675 19.5778 3.01653 21.2 3.71608C22.8222 4.41653 24.2334 5.36675 25.4334 6.56675C26.6334 7.76675 27.5831 9.17786 28.2827 10.8001C28.9831 12.4223 29.3334 14.1556 29.3334 16.0001H26.6667ZM21.3334 16.0001C21.3334 14.5334 20.8111 13.2779 19.7667 12.2334C18.7222 11.189 17.4667 10.6667 16 10.6667V8.00008C18.2222 8.00008 20.1111 8.77786 21.6667 10.3334C23.2222 11.889 24 13.7779 24 16.0001H21.3334ZM6.66669 11.7667L8.86669 9.53341C8.68891 8.88897 8.53869 8.21119 8.41602 7.50008C8.29424 6.78897 8.21113 6.06675 8.16669 5.33341H5.36669C5.41113 6.40008 5.54447 7.46675 5.76669 8.53341C5.98891 9.60008 6.28891 10.6779 6.66669 11.7667Z" fill="#FF9F0E"/>
</svg>
