<svg width="161" height="123" viewBox="0 0 161 123" fill="none" xmlns="http://www.w3.org/2000/svg">
<path d="M0.376215 52.1494C0.376215 52.1494 -7.03197 21.9889 43.8993 3.65513C94.8305 -14.6786 193.452 39.9153 150.392 79.4347C107.332 118.954 83.7182 134.029 43.8993 114.473C4.0803 94.9165 0.376215 52.1494 0.376215 52.1494Z" fill="#839AA9"/>
<path d="M91.2136 46.9062C91.1854 47.2014 91.0061 47.5243 90.5925 47.8524C86.5378 51.0697 82.4831 54.2869 78.4284 57.5041C77.5627 58.191 75.5085 58.3509 75.5085 56.7349C75.5085 50.7817 75.5085 44.8286 75.5085 38.8754C75.5085 37.413 77.7133 37.0526 78.5957 37.648C82.6504 40.3839 86.7052 43.1198 90.7599 45.8557C91.2242 46.169 91.3261 46.5445 91.2136 46.9062ZM105 51.9806C103.715 82.7926 51.7932 76.4094 57.4273 43.9744C59.7913 30.3648 71.0923 23.2073 83.5091 24.0698C97.4858 25.0407 104.746 37.7545 104.999 51.7767C104.999 51.812 104.976 51.8413 104.972 51.8755C104.977 51.9136 105.002 51.9379 105 51.9806ZM102.394 52.3793C102.184 42.4538 98.6638 31.7343 89.5821 27.468C77.5455 21.8137 63.364 28.4825 60.3052 42.2249C57.5693 54.5163 63.6535 65.4139 74.7858 69.3557C86.6529 73.5577 101.746 66.9456 102.394 52.3793Z" fill="white"/>
<path d="M48.2188 93.7734V95H42.5312V93.7734H48.2188ZM42.8281 83.625V95H41.3203V83.625H42.8281ZM53.2344 95.1562C52.6458 95.1562 52.112 95.0573 51.6328 94.8594C51.1589 94.6562 50.75 94.3724 50.4062 94.0078C50.0677 93.6432 49.8073 93.2109 49.625 92.7109C49.4427 92.2109 49.3516 91.6641 49.3516 91.0703V90.7422C49.3516 90.0547 49.4531 89.4427 49.6562 88.9062C49.8594 88.3646 50.1354 87.9062 50.4844 87.5312C50.8333 87.1562 51.2292 86.8724 51.6719 86.6797C52.1146 86.487 52.5729 86.3906 53.0469 86.3906C53.651 86.3906 54.1719 86.4948 54.6094 86.7031C55.0521 86.9115 55.4141 87.2031 55.6953 87.5781C55.9766 87.9479 56.1849 88.3854 56.3203 88.8906C56.4557 89.3906 56.5234 89.9375 56.5234 90.5312V91.1797H50.2109V90H55.0781V89.8906C55.0573 89.5156 54.9792 89.151 54.8438 88.7969C54.7135 88.4427 54.5052 88.151 54.2188 87.9219C53.9323 87.6927 53.5417 87.5781 53.0469 87.5781C52.7188 87.5781 52.4167 87.6484 52.1406 87.7891C51.8646 87.9245 51.6276 88.1276 51.4297 88.3984C51.2318 88.6693 51.0781 89 50.9688 89.3906C50.8594 89.7812 50.8047 90.2318 50.8047 90.7422V91.0703C50.8047 91.4714 50.8594 91.849 50.9688 92.2031C51.0833 92.5521 51.2474 92.8594 51.4609 93.125C51.6797 93.3906 51.9427 93.599 52.25 93.75C52.5625 93.901 52.9167 93.9766 53.3125 93.9766C53.8229 93.9766 54.2552 93.8724 54.6094 93.6641C54.9635 93.4557 55.2734 93.1771 55.5391 92.8281L56.4141 93.5234C56.2318 93.7995 56 94.0625 55.7188 94.3125C55.4375 94.5625 55.0911 94.7656 54.6797 94.9219C54.2734 95.0781 53.7917 95.1562 53.2344 95.1562ZM63.1953 93.5547V89.2031C63.1953 88.8698 63.1276 88.5807 62.9922 88.3359C62.862 88.0859 62.6641 87.8932 62.3984 87.7578C62.1328 87.6224 61.8047 87.5547 61.4141 87.5547C61.0495 87.5547 60.7292 87.6172 60.4531 87.7422C60.1823 87.8672 59.9688 88.0312 59.8125 88.2344C59.6615 88.4375 59.5859 88.6562 59.5859 88.8906H58.1406C58.1406 88.5885 58.2188 88.2891 58.375 87.9922C58.5312 87.6953 58.7552 87.4271 59.0469 87.1875C59.3438 86.9427 59.6979 86.75 60.1094 86.6094C60.526 86.4635 60.9896 86.3906 61.5 86.3906C62.1146 86.3906 62.6562 86.4948 63.125 86.7031C63.599 86.9115 63.9688 87.2266 64.2344 87.6484C64.5052 88.0651 64.6406 88.5885 64.6406 89.2188V93.1562C64.6406 93.4375 64.6641 93.737 64.7109 94.0547C64.763 94.3724 64.8385 94.6458 64.9375 94.875V95H63.4297C63.3568 94.8333 63.2995 94.612 63.2578 94.3359C63.2161 94.0547 63.1953 93.7943 63.1953 93.5547ZM63.4453 89.875L63.4609 90.8906H62C61.5885 90.8906 61.2214 90.9245 60.8984 90.9922C60.5755 91.0547 60.3047 91.151 60.0859 91.2812C59.8672 91.4115 59.7005 91.5755 59.5859 91.7734C59.4714 91.9661 59.4141 92.1927 59.4141 92.4531C59.4141 92.7188 59.474 92.9609 59.5938 93.1797C59.7135 93.3984 59.8932 93.5729 60.1328 93.7031C60.3776 93.8281 60.6771 93.8906 61.0312 93.8906C61.474 93.8906 61.8646 93.7969 62.2031 93.6094C62.5417 93.4219 62.8099 93.1927 63.0078 92.9219C63.2109 92.651 63.3203 92.388 63.3359 92.1328L63.9531 92.8281C63.9167 93.0469 63.8177 93.2891 63.6562 93.5547C63.4948 93.8203 63.2786 94.0755 63.0078 94.3203C62.7422 94.5599 62.4245 94.7604 62.0547 94.9219C61.6901 95.0781 61.2786 95.1562 60.8203 95.1562C60.2474 95.1562 59.7448 95.0443 59.3125 94.8203C58.8854 94.5964 58.5521 94.2969 58.3125 93.9219C58.0781 93.5417 57.9609 93.1172 57.9609 92.6484C57.9609 92.1953 58.0495 91.7969 58.2266 91.4531C58.4036 91.1042 58.6589 90.8151 58.9922 90.5859C59.3255 90.3516 59.7266 90.1745 60.1953 90.0547C60.6641 89.9349 61.1875 89.875 61.7656 89.875H63.4453ZM68.3594 87.875V95H66.9141V86.5469H68.3203L68.3594 87.875ZM71 86.5L70.9922 87.8438C70.8724 87.8177 70.7578 87.8021 70.6484 87.7969C70.5443 87.7865 70.4245 87.7812 70.2891 87.7812C69.9557 87.7812 69.6615 87.8333 69.4062 87.9375C69.151 88.0417 68.9349 88.1875 68.7578 88.375C68.5807 88.5625 68.4401 88.7865 68.3359 89.0469C68.237 89.3021 68.1719 89.5833 68.1406 89.8906L67.7344 90.125C67.7344 89.6146 67.7839 89.1354 67.8828 88.6875C67.987 88.2396 68.1458 87.8438 68.3594 87.5C68.5729 87.151 68.8438 86.8802 69.1719 86.6875C69.5052 86.4896 69.901 86.3906 70.3594 86.3906C70.4635 86.3906 70.5833 86.4036 70.7188 86.4297C70.8542 86.4505 70.9479 86.474 71 86.5ZM73.7812 88.3516V95H72.3359V86.5469H73.7031L73.7812 88.3516ZM73.4375 90.4531L72.8359 90.4297C72.8411 89.8516 72.9271 89.3177 73.0938 88.8281C73.2604 88.3333 73.4948 87.9036 73.7969 87.5391C74.099 87.1745 74.4583 86.8932 74.875 86.6953C75.2969 86.4922 75.763 86.3906 76.2734 86.3906C76.6901 86.3906 77.0651 86.4479 77.3984 86.5625C77.7318 86.6719 78.0156 86.849 78.25 87.0938C78.4896 87.3385 78.6719 87.6562 78.7969 88.0469C78.9219 88.4323 78.9844 88.9036 78.9844 89.4609V95H77.5312V89.4453C77.5312 89.0026 77.4661 88.6484 77.3359 88.3828C77.2057 88.112 77.0156 87.9167 76.7656 87.7969C76.5156 87.6719 76.2083 87.6094 75.8438 87.6094C75.4844 87.6094 75.1562 87.6849 74.8594 87.8359C74.5677 87.987 74.3151 88.1953 74.1016 88.4609C73.8932 88.7266 73.7292 89.0312 73.6094 89.375C73.4948 89.7135 73.4375 90.0729 73.4375 90.4531ZM86.5859 88.2266V95H85.1328V86.5469H86.5078L86.5859 88.2266ZM86.2891 90.4531L85.6172 90.4297C85.6224 89.8516 85.6979 89.3177 85.8438 88.8281C85.9896 88.3333 86.2057 87.9036 86.4922 87.5391C86.7786 87.1745 87.1354 86.8932 87.5625 86.6953C87.9896 86.4922 88.4844 86.3906 89.0469 86.3906C89.4427 86.3906 89.8073 86.4479 90.1406 86.5625C90.474 86.6719 90.763 86.8464 91.0078 87.0859C91.2526 87.3255 91.4427 87.6328 91.5781 88.0078C91.7135 88.3828 91.7812 88.8359 91.7812 89.3672V95H90.3359V89.4375C90.3359 88.9948 90.2604 88.6406 90.1094 88.375C89.9635 88.1094 89.7552 87.9167 89.4844 87.7969C89.2135 87.6719 88.8958 87.6094 88.5312 87.6094C88.1042 87.6094 87.7474 87.6849 87.4609 87.8359C87.1745 87.987 86.9453 88.1953 86.7734 88.4609C86.6016 88.7266 86.4766 89.0312 86.3984 89.375C86.3255 89.7135 86.2891 90.0729 86.2891 90.4531ZM91.7656 89.6562L90.7969 89.9531C90.8021 89.4896 90.8776 89.0443 91.0234 88.6172C91.1745 88.1901 91.3906 87.8099 91.6719 87.4766C91.9583 87.1432 92.3099 86.8802 92.7266 86.6875C93.1432 86.4896 93.6198 86.3906 94.1562 86.3906C94.6094 86.3906 95.0104 86.4505 95.3594 86.5703C95.7135 86.6901 96.0104 86.875 96.25 87.125C96.4948 87.3698 96.6797 87.6849 96.8047 88.0703C96.9297 88.4557 96.9922 88.9141 96.9922 89.4453V95H95.5391V89.4297C95.5391 88.9557 95.4635 88.5885 95.3125 88.3281C95.1667 88.0625 94.9583 87.8776 94.6875 87.7734C94.4219 87.6641 94.1042 87.6094 93.7344 87.6094C93.4167 87.6094 93.1354 87.6641 92.8906 87.7734C92.6458 87.8828 92.4401 88.0339 92.2734 88.2266C92.1068 88.4141 91.9792 88.6302 91.8906 88.875C91.8073 89.1198 91.7656 89.3802 91.7656 89.6562ZM98.7969 90.8672V90.6875C98.7969 90.0781 98.8854 89.513 99.0625 88.9922C99.2396 88.4661 99.4948 88.0104 99.8281 87.625C100.161 87.2344 100.565 86.9323 101.039 86.7188C101.513 86.5 102.044 86.3906 102.633 86.3906C103.227 86.3906 103.76 86.5 104.234 86.7188C104.714 86.9323 105.12 87.2344 105.453 87.625C105.792 88.0104 106.049 88.4661 106.227 88.9922C106.404 89.513 106.492 90.0781 106.492 90.6875V90.8672C106.492 91.4766 106.404 92.0417 106.227 92.5625C106.049 93.0833 105.792 93.5391 105.453 93.9297C105.12 94.3151 104.716 94.6172 104.242 94.8359C103.773 95.0495 103.242 95.1562 102.648 95.1562C102.055 95.1562 101.521 95.0495 101.047 94.8359C100.573 94.6172 100.167 94.3151 99.8281 93.9297C99.4948 93.5391 99.2396 93.0833 99.0625 92.5625C98.8854 92.0417 98.7969 91.4766 98.7969 90.8672ZM100.242 90.6875V90.8672C100.242 91.2891 100.292 91.6875 100.391 92.0625C100.49 92.4323 100.638 92.7604 100.836 93.0469C101.039 93.3333 101.292 93.5599 101.594 93.7266C101.896 93.888 102.247 93.9688 102.648 93.9688C103.044 93.9688 103.391 93.888 103.688 93.7266C103.99 93.5599 104.24 93.3333 104.438 93.0469C104.635 92.7604 104.784 92.4323 104.883 92.0625C104.987 91.6875 105.039 91.2891 105.039 90.8672V90.6875C105.039 90.2708 104.987 89.8776 104.883 89.5078C104.784 89.1328 104.633 88.8021 104.43 88.5156C104.232 88.224 103.982 87.9948 103.68 87.8281C103.383 87.6615 103.034 87.5781 102.633 87.5781C102.237 87.5781 101.888 87.6615 101.586 87.8281C101.289 87.9948 101.039 88.224 100.836 88.5156C100.638 88.8021 100.49 89.1328 100.391 89.5078C100.292 89.8776 100.242 90.2708 100.242 90.6875ZM109.75 87.875V95H108.305V86.5469H109.711L109.75 87.875ZM112.391 86.5L112.383 87.8438C112.263 87.8177 112.148 87.8021 112.039 87.7969C111.935 87.7865 111.815 87.7812 111.68 87.7812C111.346 87.7812 111.052 87.8333 110.797 87.9375C110.542 88.0417 110.326 88.1875 110.148 88.375C109.971 88.5625 109.831 88.7865 109.727 89.0469C109.628 89.3021 109.562 89.5833 109.531 89.8906L109.125 90.125C109.125 89.6146 109.174 89.1354 109.273 88.6875C109.378 88.2396 109.536 87.8438 109.75 87.5C109.964 87.151 110.234 86.8802 110.562 86.6875C110.896 86.4896 111.292 86.3906 111.75 86.3906C111.854 86.3906 111.974 86.4036 112.109 86.4297C112.245 86.4505 112.339 86.474 112.391 86.5ZM117.078 95.1562C116.49 95.1562 115.956 95.0573 115.477 94.8594C115.003 94.6562 114.594 94.3724 114.25 94.0078C113.911 93.6432 113.651 93.2109 113.469 92.7109C113.286 92.2109 113.195 91.6641 113.195 91.0703V90.7422C113.195 90.0547 113.297 89.4427 113.5 88.9062C113.703 88.3646 113.979 87.9062 114.328 87.5312C114.677 87.1562 115.073 86.8724 115.516 86.6797C115.958 86.487 116.417 86.3906 116.891 86.3906C117.495 86.3906 118.016 86.4948 118.453 86.7031C118.896 86.9115 119.258 87.2031 119.539 87.5781C119.82 87.9479 120.029 88.3854 120.164 88.8906C120.299 89.3906 120.367 89.9375 120.367 90.5312V91.1797H114.055V90H118.922V89.8906C118.901 89.5156 118.823 89.151 118.688 88.7969C118.557 88.4427 118.349 88.151 118.062 87.9219C117.776 87.6927 117.385 87.5781 116.891 87.5781C116.562 87.5781 116.26 87.6484 115.984 87.7891C115.708 87.9245 115.471 88.1276 115.273 88.3984C115.076 88.6693 114.922 89 114.812 89.3906C114.703 89.7812 114.648 90.2318 114.648 90.7422V91.0703C114.648 91.4714 114.703 91.849 114.812 92.2031C114.927 92.5521 115.091 92.8594 115.305 93.125C115.523 93.3906 115.786 93.599 116.094 93.75C116.406 93.901 116.76 93.9766 117.156 93.9766C117.667 93.9766 118.099 93.8724 118.453 93.6641C118.807 93.4557 119.117 93.1771 119.383 92.8281L120.258 93.5234C120.076 93.7995 119.844 94.0625 119.562 94.3125C119.281 94.5625 118.935 94.7656 118.523 94.9219C118.117 95.0781 117.635 95.1562 117.078 95.1562Z" fill="white"/>
</svg>
